%TF.GenerationSoftware,KiCad,Pcbnew,7.0.7*%
%TF.CreationDate,2023-11-05T18:49:40-05:00*%
%TF.ProjectId,MaisonEtape1,4d616973-6f6e-4457-9461-7065312e6b69,rev?*%
%TF.SameCoordinates,Original*%
%TF.FileFunction,Drillmap*%
%TF.FilePolarity,Positive*%
%FSLAX45Y45*%
G04 Gerber Fmt 4.5, Leading zero omitted, Abs format (unit mm)*
G04 Created by KiCad (PCBNEW 7.0.7) date 2023-11-05 18:49:40*
%MOMM*%
%LPD*%
G01*
G04 APERTURE LIST*
%ADD10C,0.200000*%
G04 APERTURE END LIST*
D10*
X15232380Y-8432800D02*
X15329189Y-8432800D01*
X15328500Y-4179000D01*
X19044800Y-4178300D01*
X19044800Y-6661150D01*
X19044800Y-9042400D01*
X19024600Y-9082751D01*
X17716500Y-9082751D01*
X15735300Y-9082751D01*
X15735300Y-9154160D01*
X16357600Y-9154160D01*
X16357600Y-9639300D01*
X18046700Y-9639300D01*
X18046700Y-9154160D01*
X19024600Y-9154160D01*
X19050000Y-9169400D01*
X19044800Y-14165600D01*
X18110200Y-14165580D01*
X18110200Y-13610400D01*
X18112740Y-11419840D01*
X17983200Y-11417300D01*
X17650460Y-11417300D01*
X17650460Y-11521440D01*
X17995900Y-11521440D01*
X17995900Y-14161537D01*
X16415100Y-14166260D01*
X16415505Y-12048330D01*
X16416020Y-11521440D01*
X16700500Y-11521440D01*
X16700500Y-11419840D01*
X16309340Y-11419840D01*
X16308840Y-13602320D01*
X16309340Y-14163040D01*
X15328900Y-14163040D01*
X15328900Y-9474200D01*
X15232091Y-9474200D01*
X15232380Y-14163446D01*
X9362300Y-14165600D01*
X9362500Y-12252000D01*
X9415500Y-12243000D01*
X14377700Y-12242800D01*
X14377700Y-12145991D01*
X9405500Y-12141000D01*
X9360412Y-12128476D01*
X9358500Y-10066000D01*
X9537700Y-10058400D01*
X14427200Y-10058400D01*
X14427200Y-9961591D01*
X9537700Y-9961591D01*
X9360331Y-9955999D01*
X9359500Y-8180000D01*
X14643100Y-8179409D01*
X14643100Y-8102600D01*
X9361500Y-8102000D01*
X9359900Y-6210300D01*
X14251940Y-6210300D01*
X14251940Y-6108700D01*
X9362440Y-6108700D01*
X9362300Y-4178300D01*
X12269400Y-4178300D01*
X15232500Y-4178000D01*
X15232380Y-8432800D01*
X9609277Y-14487744D02*
X9609277Y-14287744D01*
X9609277Y-14287744D02*
X9656896Y-14287744D01*
X9656896Y-14287744D02*
X9685467Y-14297268D01*
X9685467Y-14297268D02*
X9704515Y-14316315D01*
X9704515Y-14316315D02*
X9714039Y-14335363D01*
X9714039Y-14335363D02*
X9723563Y-14373458D01*
X9723563Y-14373458D02*
X9723563Y-14402029D01*
X9723563Y-14402029D02*
X9714039Y-14440125D01*
X9714039Y-14440125D02*
X9704515Y-14459172D01*
X9704515Y-14459172D02*
X9685467Y-14478220D01*
X9685467Y-14478220D02*
X9656896Y-14487744D01*
X9656896Y-14487744D02*
X9609277Y-14487744D01*
X9809277Y-14487744D02*
X9809277Y-14354410D01*
X9809277Y-14392506D02*
X9818801Y-14373458D01*
X9818801Y-14373458D02*
X9828324Y-14363934D01*
X9828324Y-14363934D02*
X9847372Y-14354410D01*
X9847372Y-14354410D02*
X9866420Y-14354410D01*
X9933086Y-14487744D02*
X9933086Y-14354410D01*
X9933086Y-14287744D02*
X9923563Y-14297268D01*
X9923563Y-14297268D02*
X9933086Y-14306791D01*
X9933086Y-14306791D02*
X9942610Y-14297268D01*
X9942610Y-14297268D02*
X9933086Y-14287744D01*
X9933086Y-14287744D02*
X9933086Y-14306791D01*
X10056896Y-14487744D02*
X10037848Y-14478220D01*
X10037848Y-14478220D02*
X10028324Y-14459172D01*
X10028324Y-14459172D02*
X10028324Y-14287744D01*
X10161658Y-14487744D02*
X10142610Y-14478220D01*
X10142610Y-14478220D02*
X10133086Y-14459172D01*
X10133086Y-14459172D02*
X10133086Y-14287744D01*
X10390229Y-14487744D02*
X10390229Y-14287744D01*
X10390229Y-14287744D02*
X10456896Y-14430601D01*
X10456896Y-14430601D02*
X10523563Y-14287744D01*
X10523563Y-14287744D02*
X10523563Y-14487744D01*
X10704515Y-14487744D02*
X10704515Y-14382982D01*
X10704515Y-14382982D02*
X10694991Y-14363934D01*
X10694991Y-14363934D02*
X10675944Y-14354410D01*
X10675944Y-14354410D02*
X10637848Y-14354410D01*
X10637848Y-14354410D02*
X10618801Y-14363934D01*
X10704515Y-14478220D02*
X10685467Y-14487744D01*
X10685467Y-14487744D02*
X10637848Y-14487744D01*
X10637848Y-14487744D02*
X10618801Y-14478220D01*
X10618801Y-14478220D02*
X10609277Y-14459172D01*
X10609277Y-14459172D02*
X10609277Y-14440125D01*
X10609277Y-14440125D02*
X10618801Y-14421077D01*
X10618801Y-14421077D02*
X10637848Y-14411553D01*
X10637848Y-14411553D02*
X10685467Y-14411553D01*
X10685467Y-14411553D02*
X10704515Y-14402029D01*
X10799753Y-14354410D02*
X10799753Y-14554410D01*
X10799753Y-14363934D02*
X10818801Y-14354410D01*
X10818801Y-14354410D02*
X10856896Y-14354410D01*
X10856896Y-14354410D02*
X10875944Y-14363934D01*
X10875944Y-14363934D02*
X10885467Y-14373458D01*
X10885467Y-14373458D02*
X10894991Y-14392506D01*
X10894991Y-14392506D02*
X10894991Y-14449648D01*
X10894991Y-14449648D02*
X10885467Y-14468696D01*
X10885467Y-14468696D02*
X10875944Y-14478220D01*
X10875944Y-14478220D02*
X10856896Y-14487744D01*
X10856896Y-14487744D02*
X10818801Y-14487744D01*
X10818801Y-14487744D02*
X10799753Y-14478220D01*
X10980705Y-14468696D02*
X10990229Y-14478220D01*
X10990229Y-14478220D02*
X10980705Y-14487744D01*
X10980705Y-14487744D02*
X10971182Y-14478220D01*
X10971182Y-14478220D02*
X10980705Y-14468696D01*
X10980705Y-14468696D02*
X10980705Y-14487744D01*
X10980705Y-14363934D02*
X10990229Y-14373458D01*
X10990229Y-14373458D02*
X10980705Y-14382982D01*
X10980705Y-14382982D02*
X10971182Y-14373458D01*
X10971182Y-14373458D02*
X10980705Y-14363934D01*
X10980705Y-14363934D02*
X10980705Y-14382982D01*
M02*
