M48
; DRILL file {KiCad 7.0.7} date Sun Nov  5 16:15:04 2023
; FORMAT={-:-/ absolute / inch / decimal}
; #@! TF.CreationDate,2023-11-05T16:15:04-05:00
; #@! TF.GenerationSoftware,Kicad,Pcbnew,7.0.7
; #@! TF.FileFunction,Plated,1,4,PTH
FMAT,2
INCH
; #@! TA.AperFunction,Plated,PTH,ViaDrill
T1C0.0157
; #@! TA.AperFunction,Plated,PTH,ComponentDrill
T2C0.0197
; #@! TA.AperFunction,Plated,PTH,ComponentDrill
T3C0.0300
; #@! TA.AperFunction,Plated,PTH,ComponentDrill
T4C0.0315
; #@! TA.AperFunction,Plated,PTH,ComponentDrill
T5C0.0394
; #@! TA.AperFunction,Plated,PTH,ComponentDrill
T6C0.0402
; #@! TA.AperFunction,Plated,PTH,ComponentDrill
T7C0.0433
; #@! TA.AperFunction,Plated,PTH,ComponentDrill
T8C0.1260
%
G90
G05
T1
X3.733Y-4.631
X3.736Y-4.735
X3.737Y-4.22
X3.753Y-3.725
X3.757Y-3.857
X3.848Y-3.721
X3.859Y-4.686
X3.875Y-1.7
X3.925Y-1.75
X3.973Y-4.74
X3.975Y-1.7
X3.998Y-2.699
X4.022Y-3.075
X4.025Y-1.75
X4.025Y-1.85
X4.025Y-1.95
X4.032Y-4.677
X4.045Y-4.22
X4.057Y-5.377
X4.075Y-1.7
X4.075Y-1.8
X4.075Y-1.9
X4.1Y-4.738
X4.125Y-1.75
X4.125Y-1.85
X4.125Y-1.95
X4.135Y-4.22
X4.175Y-1.7
X4.207Y-3.7885
X4.225Y-1.675
X4.225Y-1.725
X4.2271Y-5.4134
X4.245Y-4.2321
X4.247Y-3.674
X4.2503Y-2.1047
X4.265Y-4.57
X4.275Y-1.7
X4.275Y-1.8
X4.325Y-1.675
X4.325Y-1.75
X4.325Y-4.61
X4.335Y-4.5085
X4.335Y-5.25
X4.341Y-3.676
X4.3516Y-3.7885
X4.355Y-5.31
X4.3565Y-4.1986
X4.3659Y-2.0623
X4.375Y-1.7
X4.375Y-1.8
X4.379Y-5.046
X4.3842Y-4.3792
X4.3912Y-2.8439
X4.3975Y-2.2285
X4.4011Y-2.1161
X4.402Y-3.397
X4.4041Y-1.856
X4.405Y-5.14
X4.405Y-5.34
X4.4052Y-4.2429
X4.409Y-3.533
X4.41Y-2.69
X4.415Y-4.07
X4.415Y-5.27
X4.4155Y-5.0161
X4.4165Y-4.2015
X4.4181Y-5.1869
X4.425Y-1.675
X4.425Y-1.75
X4.428Y-3.413
X4.4342Y-4.3139
X4.4343Y-4.433
X4.4661Y-3.371
X4.472Y-1.8566
X4.4748Y-2.1504
X4.475Y-1.7
X4.475Y-4.56
X4.485Y-5.01
X4.5024Y-4.9463
X4.5092Y-4.4998
X4.5179Y-1.8911
X4.525Y-1.675
X4.526Y-2.5525
X4.5263Y-2.785
X4.535Y-5.0458
X4.535Y-5.269
X4.5356Y-2.8957
X4.5394Y-2.02
X4.5409Y-1.7737
X4.542Y-2.733
X4.5455Y-3.635
X4.548Y-3.46
X4.554Y-2.2911
X4.5552Y-2.1148
X4.5639Y-4.2871
X4.5677Y-5.1127
X4.568Y-2.6589
X4.5724Y-2.2235
X4.575Y-1.7
X4.5789Y-3.3326
X4.5789Y-4.4347
X4.5817Y-2.5463
X4.583Y-3.6665
X4.583Y-3.4421
X4.5904Y-2.2635
X4.5919Y-2.7301
X4.5944Y-1.8921
X4.595Y-4.55
X4.5982Y-5.269
X4.6012Y-5.08
X4.6036Y-2.0214
X4.6098Y-5.1497
X4.6215Y-5.2365
X4.625Y-1.675
X4.626Y-3.7885
X4.629Y-2.663
X4.629Y-2.2711
X4.641Y-3.436
X4.6419Y-3.6549
X4.642Y-5.0794
X4.6437Y-1.892
X4.645Y-4.58
X4.663Y-2.822
X4.663Y-3.518
X4.665Y-4.3386
X4.665Y-5.44
X4.6722Y-3.4599
X4.6734Y-2.2578
X4.6734Y-3.7885
X4.6734Y-4.284
X4.6734Y-4.5526
X4.6924Y-5.1926
X4.705Y-1.96
X4.7095Y-3.317
X4.715Y-3.278
X4.715Y-5.45
X4.716Y-3.457
X4.7172Y-1.7323
X4.7183Y-3.598
X4.724Y-5.2701
X4.725Y-5.41
X4.725Y-2.5058
X4.734Y-2.755
X4.7438Y-4.2438
X4.749Y-2.823
X4.7562Y-1.7406
X4.76Y-2.661
X4.7602Y-5.1997
X4.765Y-4.2106
X4.765Y-4.4351
X4.7699Y-3.5985
X4.8023Y-3.7551
X4.8048Y-4.1766
X4.816Y-1.816
X4.828Y-5.0113
X4.8438Y-4.1042
X4.8528Y-3.0263
X4.8676Y-5.1212
X4.872Y-2.6473
X4.8723Y-4.1774
X4.875Y-1.7
X4.875Y-4.98
X4.8754Y-1.8115
X4.8839Y-4.3466
X4.886Y-3.509
X4.889Y-3.628
X4.889Y-2.7858
X4.895Y-4.29
X4.8961Y-2.8387
X4.897Y-3.4326
X4.8977Y-2.8957
X4.905Y-4.5927
X4.9057Y-3.009
X4.9061Y-5.1291
X4.925Y-1.675
X4.925Y-5.41
X4.929Y-3.512
X4.945Y-5.27
X4.975Y-1.7
X4.992Y-4.735
X5.005Y-3.0046
X5.0169Y-5.0933
X5.0175Y-3.3499
X5.025Y-1.675
X5.035Y-1.83
X5.062Y-3.685
X5.068Y-3.009
X5.075Y-1.7
X5.1117Y-5.0767
X5.12Y-2.672
X5.125Y-1.675
X5.135Y-1.8
X5.153Y-3.436
X5.1571Y-3.6761
X5.163Y-4.728
X5.175Y-1.7
X5.175Y-2.6331
X5.225Y-1.675
X5.2285Y-2.8795
X5.235Y-5.09
X5.255Y-5.33
X5.258Y-2.569
X5.275Y-1.7
X5.297Y-4.723
X5.325Y-1.675
X5.36Y-2.908
X5.375Y-1.7
X5.385Y-2.1485
X5.42Y-4.659
X5.425Y-1.675
X5.475Y-1.7
X5.498Y-4.715
X5.525Y-1.675
X5.575Y-1.7
X5.575Y-2.3
X5.584Y-3.152
X5.625Y-1.675
X5.625Y-2.35
X5.637Y-4.65
X5.652Y-3.737
X5.654Y-3.096
X5.675Y-1.7
X5.675Y-2.3
X5.692Y-3.267
X5.704Y-3.401
X5.712Y-3.145
X5.716Y-3.018
X5.72Y-3.876
X5.724Y-3.752
X5.725Y-1.675
X5.725Y-1.725
X5.725Y-2.35
X5.75Y-3.32
X5.752Y-4.037
X5.754Y-4.168
X5.757Y-4.708
X5.763Y-2.962
X5.766Y-4.53
X5.773Y-3.072
X5.775Y-1.7
X5.775Y-2.2
X5.775Y-2.3
X5.816Y-3.264
X5.821Y-3.144
X5.825Y-1.675
X5.825Y-1.725
X5.825Y-2.25
X5.825Y-2.35
X5.825Y-3.391
X5.825Y-3.816
X5.831Y-3.011
X5.837Y-4.63
X5.847Y-4.115
X5.875Y-1.7
X5.875Y-2.2
X5.875Y-2.3
X5.889Y-2.96
X5.892Y-3.071
X5.892Y-3.319
X5.925Y-1.675
X5.925Y-1.725
X5.925Y-1.775
X5.925Y-1.825
X5.925Y-1.875
X5.925Y-2.15
X5.925Y-2.25
X5.925Y-2.35
X5.927Y-4.159
X5.927Y-4.708
X5.932Y-4.044
X5.941Y-3.747
X5.941Y-3.872
X5.944Y-3.014
X5.947Y-3.136
X5.952Y-4.53
X5.953Y-3.399
X5.957Y-3.263
X5.975Y-1.7
X5.975Y-1.75
X5.975Y-1.8
X5.975Y-1.85
X5.975Y-1.9
X5.975Y-2.1
X5.975Y-2.15
X5.975Y-2.2
X5.975Y-2.3
X6.285Y-2.92
X6.3102Y-3.0825
X6.3718Y-2.4977
X6.4016Y-2.8927
X6.4219Y-2.7555
X6.495Y-2.42
X6.4974Y-2.7027
X6.4997Y-2.8904
X6.5001Y-2.8269
X6.5015Y-3.0825
X6.5609Y-2.4973
X6.565Y-2.7
X6.6168Y-2.9236
X6.7392Y-2.8435
X6.777Y-3.463
X6.779Y-3.533
X6.85Y-3.497
X6.889Y-4.09
X6.922Y-3.532
X6.924Y-3.45
X6.99Y-3.497
X7.023Y-3.963
X7.07Y-3.527
X7.072Y-3.462
X7.132Y-3.865
X7.147Y-4.09
X7.158Y-3.494
T2
X3.758Y-2.8168
X3.766Y-1.9455
X3.7737Y-5.1668
X3.7787Y-3.5445
X3.7787Y-4.3473
X3.7857Y-2.75
X3.7857Y-2.8836
X3.7937Y-1.8787
X3.7937Y-2.0123
X3.8014Y-5.1
X3.8014Y-5.2336
X3.8064Y-3.4777
X3.8064Y-3.6113
X3.8064Y-4.2805
X3.8064Y-4.4141
X3.8525Y-2.7223
X3.8525Y-2.9113
X3.8605Y-1.851
X3.8605Y-2.04
X3.8682Y-5.0723
X3.8682Y-5.2613
X3.8732Y-3.45
X3.8732Y-3.639
X3.8732Y-4.2528
X3.8732Y-4.4418
X3.9193Y-2.75
X3.9193Y-2.8836
X3.9273Y-1.8787
X3.9273Y-2.0123
X3.935Y-5.1
X3.935Y-5.2336
X3.94Y-3.4777
X3.94Y-3.6113
X3.94Y-4.2805
X3.94Y-4.4141
X3.947Y-2.8168
X3.955Y-1.9455
X3.9627Y-5.1668
X3.9677Y-3.5445
X3.9677Y-4.3473
X5.7155Y-3.5827
X5.7405Y-2.805
X5.7405Y-4.3355
X5.7432Y-3.5159
X5.7432Y-3.6495
X5.7505Y-1.9955
X5.7505Y-5.1845
X5.7682Y-2.7382
X5.7682Y-2.8718
X5.7682Y-4.2687
X5.7682Y-4.4023
X5.7782Y-1.9287
X5.7782Y-2.0623
X5.7782Y-5.1177
X5.7782Y-5.2513
X5.81Y-3.4882
X5.81Y-3.6772
X5.835Y-2.7105
X5.835Y-2.8995
X5.835Y-4.241
X5.835Y-4.43
X5.845Y-1.901
X5.845Y-2.09
X5.845Y-5.09
X5.845Y-5.279
X5.8768Y-3.5159
X5.8768Y-3.6495
X5.9018Y-2.7382
X5.9018Y-2.8718
X5.9018Y-4.2687
X5.9018Y-4.4023
X5.9045Y-3.5827
X5.9118Y-1.9287
X5.9118Y-2.0623
X5.9118Y-5.1177
X5.9118Y-5.2513
X5.9295Y-2.805
X5.9295Y-4.3355
X5.9395Y-1.9955
X5.9395Y-5.1845
X6.1037Y-1.7768
X6.1137Y-3.4068
X6.1314Y-1.71
X6.1314Y-1.8436
X6.1414Y-3.34
X6.1414Y-3.4736
X6.1982Y-1.6823
X6.1982Y-1.8713
X6.2082Y-3.3123
X6.2082Y-3.5013
X6.265Y-1.71
X6.265Y-1.8436
X6.275Y-3.34
X6.275Y-3.4736
X6.2927Y-1.7768
X6.3027Y-3.4068
X7.2505Y-3.404
X7.2525Y-1.7745
X7.2782Y-3.3372
X7.2782Y-3.4708
X7.2802Y-1.7077
X7.2802Y-1.8413
X7.345Y-3.3095
X7.345Y-3.4985
X7.347Y-1.68
X7.347Y-1.869
X7.4118Y-3.3372
X7.4118Y-3.4708
X7.4138Y-1.7077
X7.4138Y-1.8413
X7.4395Y-3.404
X7.4415Y-1.7745
T3
X3.865Y-5.53
X3.965Y-5.53
X4.065Y-5.53
X4.165Y-5.53
X4.175Y-4.0
X4.185Y-4.75
X4.204Y-3.161
X4.215Y-3.89
X4.265Y-5.53
X4.275Y-4.0
X4.285Y-4.75
X4.304Y-3.161
X4.315Y-3.89
X4.365Y-5.53
X4.375Y-4.0
X4.385Y-4.75
X4.404Y-3.161
X4.415Y-3.89
X4.465Y-5.53
X4.475Y-4.0
X4.485Y-4.75
X4.504Y-3.161
X4.515Y-3.89
X4.535Y-4.85
X4.565Y-5.53
X4.575Y-4.0
X4.585Y-4.75
X4.604Y-3.161
X4.615Y-3.89
X4.635Y-4.85
X4.675Y-4.0
X4.685Y-4.75
X4.704Y-3.161
X4.705Y-2.37
X4.715Y-3.89
X4.735Y-4.85
X4.775Y-4.0
X4.785Y-4.75
X4.804Y-3.161
X4.805Y-2.37
X4.815Y-3.89
X4.835Y-4.85
X4.875Y-4.0
X4.885Y-4.75
X4.904Y-3.161
X4.905Y-2.37
X4.915Y-3.89
X4.935Y-4.85
X5.004Y-3.161
X5.005Y-2.37
X5.015Y-3.89
X5.035Y-4.85
X5.104Y-3.161
X5.105Y-2.37
X5.115Y-3.89
X5.135Y-4.85
X5.204Y-3.161
X5.205Y-2.37
X5.215Y-3.89
X5.235Y-4.85
X5.304Y-3.161
X5.305Y-2.37
X5.315Y-3.89
X5.404Y-3.161
X5.405Y-2.37
X5.415Y-3.89
X5.505Y-2.37
X5.515Y-3.89
X5.615Y-3.89
X6.075Y-1.94
X6.075Y-2.04
X6.075Y-2.14
X6.075Y-2.24
X6.075Y-2.34
X6.075Y-2.44
X6.075Y-2.54
X6.075Y-2.64
X6.075Y-2.74
X6.075Y-2.84
X6.075Y-2.94
X6.075Y-3.04
X6.075Y-3.14
X6.075Y-3.24
T4
X3.875Y-2.18
X3.875Y-2.28
X3.975Y-2.18
X3.975Y-2.28
X4.073Y-2.866
X4.073Y-2.966
X4.075Y-2.18
X4.075Y-2.28
X4.099Y-2.744
X4.1Y-3.4937
X4.1Y-3.5937
X4.125Y-4.3055
X4.125Y-4.4055
X4.131Y-3.336
X4.173Y-2.866
X4.173Y-2.966
X4.199Y-2.744
X4.2Y-3.4937
X4.2Y-3.5937
X4.225Y-4.3055
X4.225Y-4.4055
X4.231Y-3.336
X4.273Y-2.866
X4.273Y-2.966
X4.299Y-2.744
X4.3Y-3.4937
X4.3Y-3.5937
X4.325Y-4.3055
X4.325Y-4.4055
X4.331Y-3.336
X5.0005Y-5.2297
X5.035Y-4.3635
X5.1005Y-5.2297
X5.135Y-4.3635
X5.2005Y-5.2297
X5.235Y-4.3635
X5.485Y-5.36
X5.485Y-5.46
X5.585Y-5.36
X5.585Y-5.46
X5.685Y-5.36
X5.685Y-5.46
X6.4018Y-3.1677
X6.455Y-3.3236
X6.455Y-3.4236
X6.5018Y-3.1677
X6.555Y-3.3236
X6.555Y-3.4236
X6.6018Y-3.1677
X6.655Y-3.3236
X6.655Y-3.4236
X6.7097Y-4.51
X6.7097Y-4.61
X6.7097Y-4.71
X6.7097Y-4.81
X6.833Y-1.782
X6.833Y-1.882
X6.833Y-1.982
X6.833Y-2.082
X6.833Y-2.182
X6.833Y-2.282
X6.833Y-2.382
X6.833Y-2.482
X6.833Y-2.682
X6.833Y-2.782
X6.833Y-2.882
X6.833Y-2.982
X6.833Y-3.082
X6.833Y-3.182
X6.833Y-3.282
X6.833Y-3.382
X7.0097Y-4.51
X7.0097Y-4.61
X7.0097Y-4.71
X7.0097Y-4.81
X7.133Y-1.782
X7.133Y-1.882
X7.133Y-1.982
X7.133Y-2.082
X7.133Y-2.182
X7.133Y-2.282
X7.133Y-2.382
X7.133Y-2.482
X7.133Y-2.682
X7.133Y-2.782
X7.133Y-2.882
X7.133Y-2.982
X7.133Y-3.082
X7.133Y-3.182
X7.133Y-3.282
X7.133Y-3.382
T5
X4.9223Y-1.925
X4.9223Y-2.1
X4.945Y-2.665
X4.955Y-2.92
X4.9605Y-5.0117
X4.9742Y-3.405
X4.993Y-4.1365
X5.0223Y-1.925
X5.0223Y-2.1
X5.045Y-2.665
X5.055Y-2.92
X5.0605Y-5.0117
X5.0742Y-3.405
X5.093Y-4.1365
X5.1223Y-1.925
X5.1223Y-2.1
X5.2223Y-1.925
X5.2223Y-2.1
X5.249Y-3.366
X5.249Y-3.466
X5.249Y-3.566
X5.249Y-3.666
X5.303Y-2.6524
X5.303Y-2.7524
X5.303Y-2.8524
X5.303Y-2.9524
X5.3223Y-1.925
X5.3223Y-2.1
X5.3419Y-4.1253
X5.3419Y-4.2253
X5.355Y-4.9094
X5.355Y-5.0094
X5.4223Y-1.925
X5.4223Y-2.1
X5.485Y-4.1255
X5.485Y-4.2255
X5.485Y-4.3255
X5.485Y-4.4255
X5.505Y-4.91
X5.505Y-5.01
X5.505Y-5.11
X5.505Y-5.21
X5.5223Y-1.925
X5.5223Y-2.1
X5.5414Y-3.3626
X5.5414Y-3.4626
X5.5414Y-3.5626
X5.5414Y-3.6626
X5.5499Y-2.6516
X5.5499Y-2.7516
X5.5499Y-2.8516
X5.5499Y-2.9516
X5.6223Y-1.925
X5.6223Y-2.1
X6.135Y-3.71
X6.135Y-3.81
X6.135Y-3.91
X6.135Y-4.01
X6.135Y-4.11
X6.135Y-4.21
X6.135Y-4.31
X6.135Y-4.41
X6.135Y-4.51
X6.135Y-4.61
X6.135Y-4.71
X6.135Y-4.81
X6.135Y-4.91
X6.135Y-5.01
X6.135Y-5.11
X6.135Y-5.21
X6.135Y-5.31
X6.135Y-5.41
X6.135Y-5.51
X6.3458Y-2.276
X6.405Y-1.748
X6.425Y-1.89
X6.505Y-1.748
X6.525Y-1.89
X6.5497Y-4.6
X6.5497Y-4.7
X6.5497Y-4.8
X6.5497Y-4.9
X6.605Y-1.748
X6.645Y-2.276
X6.705Y-1.748
X7.395Y-3.71
X7.395Y-3.81
X7.395Y-3.91
X7.395Y-4.01
X7.395Y-4.11
X7.395Y-4.21
X7.395Y-4.31
X7.395Y-4.41
X7.395Y-4.51
X7.395Y-4.61
X7.395Y-4.71
X7.395Y-4.81
X7.395Y-4.91
X7.395Y-5.01
X7.395Y-5.11
X7.395Y-5.21
X7.395Y-5.31
X7.395Y-5.41
X7.395Y-5.51
X7.4089Y-1.99
X7.4089Y-2.09
X7.4089Y-2.19
X7.4089Y-2.29
X7.4089Y-2.39
X7.4089Y-2.49
X7.4089Y-2.59
X7.4089Y-2.69
X7.4089Y-2.79
X7.4089Y-2.89
X7.4089Y-2.99
X7.4089Y-3.09
X7.4089Y-3.19
T6
X6.265Y-3.71
X6.265Y-3.81
X6.265Y-3.91
X6.265Y-4.01
X6.265Y-4.11
X6.265Y-4.21
X6.265Y-4.31
X6.265Y-4.41
X6.265Y-4.51
X6.265Y-4.61
X6.265Y-4.71
X6.265Y-4.81
X6.265Y-4.91
X6.265Y-5.01
X6.265Y-5.11
X6.265Y-5.21
X6.265Y-5.31
X6.265Y-5.41
X6.265Y-5.51
X7.265Y-3.71
X7.265Y-3.81
X7.265Y-3.91
X7.265Y-4.01
X7.265Y-4.11
X7.265Y-4.21
X7.265Y-4.31
X7.265Y-4.41
X7.265Y-4.51
X7.265Y-4.61
X7.265Y-4.71
X7.265Y-4.81
X7.265Y-4.91
X7.265Y-5.01
X7.265Y-5.11
X7.265Y-5.21
X7.265Y-5.31
X7.265Y-5.41
X7.265Y-5.51
T7
X5.0005Y-5.4309
X5.035Y-4.5635
X5.1005Y-5.4309
X5.135Y-4.5635
X5.2005Y-5.4309
X5.235Y-4.5635
T8
X3.8525Y-2.8168
X3.8605Y-1.9455
X3.8682Y-5.1668
X3.8732Y-3.5445
X3.8732Y-4.3473
X5.81Y-3.5827
X5.835Y-2.805
X5.835Y-4.3355
X5.845Y-1.9955
X5.845Y-5.1845
X6.1982Y-1.7768
X6.2082Y-3.4068
X6.6247Y-4.32
X6.9047Y-5.015
X7.345Y-3.404
X7.347Y-1.7745
T0
M30
