%TF.GenerationSoftware,KiCad,Pcbnew,7.0.7*%
%TF.CreationDate,2023-11-05T16:16:48-05:00*%
%TF.ProjectId,MaisonEtape1,4d616973-6f6e-4457-9461-7065312e6b69,rev?*%
%TF.SameCoordinates,Original*%
%TF.FileFunction,Profile,NP*%
%FSLAX46Y46*%
G04 Gerber Fmt 4.6, Leading zero omitted, Abs format (unit mm)*
G04 Created by KiCad (PCBNEW 7.0.7) date 2023-11-05 16:16:48*
%MOMM*%
%LPD*%
G01*
G04 APERTURE LIST*
%TA.AperFunction,Profile*%
%ADD10C,0.100000*%
%TD*%
%TA.AperFunction,Profile*%
%ADD11C,0.200000*%
%TD*%
G04 APERTURE END LIST*
D10*
X146939000Y-122428000D02*
X139446000Y-122428000D01*
X139446000Y-121459908D01*
X146939000Y-121459908D01*
X146939000Y-122428000D01*
%TA.AperFunction,Profile*%
G36*
X146939000Y-122428000D02*
G01*
X139446000Y-122428000D01*
X139446000Y-121459908D01*
X146939000Y-121459908D01*
X146939000Y-122428000D01*
G37*
%TD.AperFunction*%
X134379000Y-122428000D02*
X105042000Y-122428000D01*
X105042000Y-121459908D01*
X134379000Y-121459908D01*
X134379000Y-122428000D01*
%TA.AperFunction,Profile*%
G36*
X134379000Y-122428000D02*
G01*
X105042000Y-122428000D01*
X105042000Y-121459908D01*
X134379000Y-121459908D01*
X134379000Y-122428000D01*
G37*
%TD.AperFunction*%
X141224000Y-81994092D02*
X104775000Y-81994092D01*
X104775000Y-81026000D01*
X141224000Y-81026000D01*
X141224000Y-81994092D01*
%TA.AperFunction,Profile*%
G36*
X141224000Y-81994092D02*
G01*
X104775000Y-81994092D01*
X104775000Y-81026000D01*
X141224000Y-81026000D01*
X141224000Y-81994092D01*
G37*
%TD.AperFunction*%
X150317200Y-100584000D02*
X148590000Y-100584000D01*
X148590000Y-99615908D01*
X150317200Y-99615908D01*
X150317200Y-100584000D01*
%TA.AperFunction,Profile*%
G36*
X150317200Y-100584000D02*
G01*
X148590000Y-100584000D01*
X148590000Y-99615908D01*
X150317200Y-99615908D01*
X150317200Y-100584000D01*
G37*
%TD.AperFunction*%
X148717000Y-81994092D02*
X145288000Y-81994092D01*
X145288000Y-81026000D01*
X148717000Y-81026000D01*
X148717000Y-81994092D01*
%TA.AperFunction,Profile*%
G36*
X148717000Y-81994092D02*
G01*
X145288000Y-81994092D01*
X145288000Y-81026000D01*
X148717000Y-81026000D01*
X148717000Y-81994092D01*
G37*
%TD.AperFunction*%
X153289000Y-137414000D02*
X152320908Y-137414000D01*
X152320908Y-131445000D01*
X153289000Y-131445000D01*
X153289000Y-137414000D01*
%TA.AperFunction,Profile*%
G36*
X153289000Y-137414000D02*
G01*
X152320908Y-137414000D01*
X152320908Y-131445000D01*
X153289000Y-131445000D01*
X153289000Y-137414000D01*
G37*
%TD.AperFunction*%
X153291892Y-127127000D02*
X152323800Y-127127000D01*
X152323800Y-87630000D01*
X153291892Y-87630000D01*
X153291892Y-127127000D01*
%TA.AperFunction,Profile*%
G36*
X153291892Y-127127000D02*
G01*
X152323800Y-127127000D01*
X152323800Y-87630000D01*
X153291892Y-87630000D01*
X153291892Y-127127000D01*
G37*
%TD.AperFunction*%
X101092000Y-100584000D02*
X95377000Y-100584000D01*
X95377000Y-99615908D01*
X101092000Y-99615908D01*
X101092000Y-100584000D01*
%TA.AperFunction,Profile*%
G36*
X101092000Y-100584000D02*
G01*
X95377000Y-100584000D01*
X95377000Y-99615908D01*
X101092000Y-99615908D01*
X101092000Y-100584000D01*
G37*
%TD.AperFunction*%
X164163092Y-130175000D02*
X163449000Y-130175000D01*
X163449000Y-107569000D01*
X164163092Y-107569000D01*
X164163092Y-130175000D01*
%TA.AperFunction,Profile*%
G36*
X164163092Y-130175000D02*
G01*
X163449000Y-130175000D01*
X163449000Y-107569000D01*
X164163092Y-107569000D01*
X164163092Y-130175000D01*
G37*
%TD.AperFunction*%
X180086000Y-129286000D02*
X179371908Y-129286000D01*
X179371908Y-107315000D01*
X180086000Y-107315000D01*
X180086000Y-129286000D01*
%TA.AperFunction,Profile*%
G36*
X180086000Y-129286000D02*
G01*
X179371908Y-129286000D01*
X179371908Y-107315000D01*
X180086000Y-107315000D01*
X180086000Y-129286000D01*
G37*
%TD.AperFunction*%
X146812000Y-100584000D02*
X104521000Y-100584000D01*
X104521000Y-99615908D01*
X146812000Y-99615908D01*
X146812000Y-100584000D01*
%TA.AperFunction,Profile*%
G36*
X146812000Y-100584000D02*
G01*
X104521000Y-100584000D01*
X104521000Y-99615908D01*
X146812000Y-99615908D01*
X146812000Y-100584000D01*
G37*
%TD.AperFunction*%
X180086000Y-131826000D02*
X163449000Y-131826000D01*
X163449000Y-130857908D01*
X180086000Y-130857908D01*
X180086000Y-131826000D01*
%TA.AperFunction,Profile*%
G36*
X180086000Y-131826000D02*
G01*
X163449000Y-131826000D01*
X163449000Y-130857908D01*
X180086000Y-130857908D01*
X180086000Y-131826000D01*
G37*
%TD.AperFunction*%
X180340000Y-106172000D02*
X163449000Y-106172000D01*
X163449000Y-105330908D01*
X180340000Y-105330908D01*
X180340000Y-106172000D01*
%TA.AperFunction,Profile*%
G36*
X180340000Y-106172000D02*
G01*
X163449000Y-106172000D01*
X163449000Y-105330908D01*
X180340000Y-105330908D01*
X180340000Y-106172000D01*
G37*
%TD.AperFunction*%
D11*
X152323800Y-84328000D02*
X153291892Y-84328000D01*
X153285000Y-41790000D01*
X190448000Y-41783000D01*
X190448000Y-66611500D01*
X190448000Y-90424000D01*
X190246000Y-90827508D01*
X177165000Y-90827508D01*
X156591000Y-90827508D01*
X156591000Y-91541600D01*
X164338000Y-91541600D01*
X164338000Y-96393000D01*
X180467000Y-96393000D01*
X180467000Y-91541600D01*
X190246000Y-91541600D01*
X190500000Y-91694000D01*
X190448000Y-141656000D01*
X179197000Y-141655800D01*
X179204000Y-136104000D01*
X164204000Y-136104000D01*
X164211000Y-141732000D01*
X93623000Y-141656000D01*
X93599000Y-62103000D01*
X142519400Y-62103000D01*
X142519400Y-61087000D01*
X93624400Y-61087000D01*
X93623000Y-41783000D01*
X122694000Y-41783000D01*
X152325000Y-41780000D01*
X152323800Y-84328000D01*
D10*
X101092000Y-81994092D02*
X95631000Y-81994092D01*
X95631000Y-81026000D01*
X101092000Y-81026000D01*
X101092000Y-81994092D01*
%TA.AperFunction,Profile*%
G36*
X101092000Y-81994092D02*
G01*
X95631000Y-81994092D01*
X95631000Y-81026000D01*
X101092000Y-81026000D01*
X101092000Y-81994092D01*
G37*
%TD.AperFunction*%
X102248000Y-122428000D02*
X95517000Y-122428000D01*
X95517000Y-121459908D01*
X102248000Y-121459908D01*
X102248000Y-122428000D01*
%TA.AperFunction,Profile*%
G36*
X102248000Y-122428000D02*
G01*
X95517000Y-122428000D01*
X95517000Y-121459908D01*
X102248000Y-121459908D01*
X102248000Y-122428000D01*
G37*
%TD.AperFunction*%
M02*
