%TF.GenerationSoftware,KiCad,Pcbnew,7.0.7*%
%TF.CreationDate,2023-11-05T18:49:36-05:00*%
%TF.ProjectId,MaisonEtape1,4d616973-6f6e-4457-9461-7065312e6b69,rev?*%
%TF.SameCoordinates,Original*%
%TF.FileFunction,Plated,1,4,PTH,Drill*%
%TF.FilePolarity,Positive*%
%FSLAX46Y46*%
G04 Gerber Fmt 4.6, Leading zero omitted, Abs format (unit mm)*
G04 Created by KiCad (PCBNEW 7.0.7) date 2023-11-05 18:49:36*
%MOMM*%
%LPD*%
G01*
G04 APERTURE LIST*
%TA.AperFunction,ViaDrill*%
%ADD10C,0.400000*%
%TD*%
%TA.AperFunction,ComponentDrill*%
%ADD11C,0.500000*%
%TD*%
%TA.AperFunction,CastellatedDrill*%
%ADD12C,0.762000*%
%TD*%
%TA.AperFunction,ComponentDrill*%
%ADD13C,0.800000*%
%TD*%
%TA.AperFunction,ComponentDrill*%
%ADD14C,1.000000*%
%TD*%
%TA.AperFunction,ComponentDrill*%
%ADD15C,1.020000*%
%TD*%
%TA.AperFunction,ComponentDrill*%
%ADD16C,1.100000*%
%TD*%
%TA.AperFunction,ComponentDrill*%
%ADD17C,3.200000*%
%TD*%
G04 APERTURE END LIST*
D10*
X94818200Y-117627400D03*
X94894400Y-120269000D03*
X94919800Y-107188000D03*
X95326200Y-94615000D03*
X95427800Y-97967800D03*
X97739200Y-94513400D03*
X98018600Y-119024400D03*
X98425000Y-43180000D03*
X99695000Y-44450000D03*
X100914200Y-120396000D03*
X100965000Y-43180000D03*
X101549200Y-68554600D03*
X102158800Y-78105000D03*
X102235000Y-44450000D03*
X102235000Y-46990000D03*
X102235000Y-49530000D03*
X102412800Y-118795800D03*
X102743000Y-107188000D03*
X103047800Y-136575800D03*
X103505000Y-43180000D03*
X103505000Y-45720000D03*
X103505000Y-48260000D03*
X104140000Y-120345200D03*
X104775000Y-44450000D03*
X104775000Y-46990000D03*
X104775000Y-49530000D03*
X105029000Y-107188000D03*
X106045000Y-43180000D03*
X106857800Y-96228800D03*
X107315000Y-42545000D03*
X107315000Y-43815000D03*
X107367401Y-137501500D03*
X107823000Y-107495000D03*
X107873800Y-93319600D03*
X107957300Y-53459700D03*
X108331000Y-116078000D03*
X108585000Y-43180000D03*
X108585000Y-45720000D03*
X109855000Y-42545000D03*
X109855000Y-44450000D03*
X109855000Y-117094000D03*
X110109000Y-114516500D03*
X110109000Y-133350000D03*
X110261400Y-93370400D03*
X110617000Y-134874000D03*
X110654500Y-106645500D03*
X110662810Y-96359015D03*
X110894000Y-52383300D03*
X111125000Y-43180000D03*
X111125000Y-45720000D03*
X111226600Y-128168400D03*
X111357853Y-111230853D03*
X111536638Y-72235262D03*
X111696500Y-56603900D03*
X111789000Y-53749900D03*
X111810800Y-86283800D03*
X111863600Y-47141700D03*
X111887000Y-130556000D03*
X111887000Y-135636000D03*
X111892500Y-107769765D03*
X111988600Y-89738200D03*
X112014000Y-68326000D03*
X112141000Y-103378000D03*
X112141000Y-133858000D03*
X112154100Y-127407700D03*
X112178500Y-106717568D03*
X112220663Y-131746337D03*
X112395000Y-42545000D03*
X112395000Y-44450000D03*
X112471200Y-86690200D03*
X112629500Y-109572361D03*
X112632000Y-112598000D03*
X113437983Y-85623508D03*
X113512600Y-115976400D03*
X113588000Y-47157600D03*
X113659600Y-54619500D03*
X113665000Y-43180000D03*
X113919000Y-127254000D03*
X114360500Y-125636500D03*
X114533500Y-114295200D03*
X114754000Y-48034600D03*
X114935000Y-42545000D03*
X114960400Y-64832806D03*
X114967671Y-70739304D03*
X115187766Y-128163332D03*
X115190000Y-133832700D03*
X115203500Y-73550811D03*
X115301800Y-51308000D03*
X115339000Y-45053000D03*
X115366800Y-69418200D03*
X115454502Y-92329300D03*
X115519200Y-87884000D03*
X115671600Y-58194900D03*
X115701000Y-53715400D03*
X115922907Y-108892039D03*
X116019832Y-129862832D03*
X116026723Y-67536021D03*
X116139500Y-56476300D03*
X116205000Y-43180000D03*
X116305000Y-84646900D03*
X116305000Y-112641500D03*
X116374300Y-64676166D03*
X116409062Y-87428861D03*
X116523698Y-93014800D03*
X116596363Y-57492624D03*
X116634063Y-69344737D03*
X116699000Y-48060000D03*
X116713000Y-115570000D03*
X116795500Y-133833000D03*
X116869332Y-129032000D03*
X116931668Y-51343327D03*
X117088918Y-130803118D03*
X117386900Y-133007300D03*
X117475000Y-42545000D03*
X117500400Y-96228800D03*
X117576600Y-67640200D03*
X117577000Y-57685900D03*
X117881400Y-87274400D03*
X117904837Y-92835037D03*
X117906353Y-129017653D03*
X117949000Y-48056500D03*
X117983000Y-116332000D03*
X118440200Y-71678800D03*
X118440200Y-89357200D03*
X118491000Y-110200500D03*
X118491000Y-138176000D03*
X118674612Y-87882529D03*
X118704000Y-57347600D03*
X118705000Y-96228800D03*
X118705000Y-108814500D03*
X118705000Y-115636600D03*
X119187025Y-131892360D03*
X119507000Y-49784000D03*
X119621431Y-84250910D03*
X119761000Y-83261200D03*
X119761000Y-138430000D03*
X119786400Y-87807800D03*
X119818000Y-43999300D03*
X119844776Y-91389200D03*
X119990500Y-133860500D03*
X120015000Y-137414000D03*
X120015593Y-63646279D03*
X120243600Y-69977000D03*
X120492502Y-107791538D03*
X120624600Y-71704200D03*
X120808000Y-44210900D03*
X120903498Y-67589400D03*
X120909691Y-132073356D03*
X121031000Y-106949502D03*
X121031000Y-112650498D03*
X121155498Y-91401900D03*
X121979502Y-95379300D03*
X122042600Y-106086000D03*
X122326400Y-46126400D03*
X122630000Y-127288000D03*
X123031300Y-104246200D03*
X123260773Y-76868402D03*
X123637728Y-130077600D03*
X123748800Y-67240500D03*
X123755300Y-106105600D03*
X123825000Y-43180000D03*
X123825000Y-126492000D03*
X123834000Y-46012900D03*
X124051000Y-110403336D03*
X124104400Y-89128600D03*
X124180600Y-92151200D03*
X124181500Y-70759471D03*
X124333000Y-108966000D03*
X124360814Y-72102156D03*
X124383800Y-87186900D03*
X124402500Y-73551656D03*
X124587000Y-116653500D03*
X124605833Y-76429100D03*
X124616049Y-130280196D03*
X125095000Y-42545000D03*
X125095000Y-137414000D03*
X125196600Y-89204800D03*
X125603000Y-133858000D03*
X126365000Y-43180000D03*
X126796800Y-120269000D03*
X127127000Y-76317500D03*
X127429100Y-129370900D03*
X127444500Y-85087200D03*
X127635000Y-42545000D03*
X127889000Y-46482000D03*
X128574800Y-93599000D03*
X128727200Y-76428600D03*
X128905000Y-43180000D03*
X129836432Y-128947432D03*
X130048000Y-67868800D03*
X130175000Y-42545000D03*
X130429000Y-45720000D03*
X130886200Y-87274400D03*
X130991263Y-93373863D03*
X131140200Y-120091200D03*
X131445000Y-43180000D03*
X131445000Y-66880500D03*
X132715000Y-42545000D03*
X132805112Y-73140512D03*
X132969000Y-129286000D03*
X133477000Y-135382000D03*
X133553200Y-65252600D03*
X133985000Y-43180000D03*
X134543800Y-119964200D03*
X135255000Y-42545000D03*
X136144000Y-73863200D03*
X136525000Y-43180000D03*
X136779000Y-54572500D03*
X137668000Y-118338600D03*
X137795000Y-42545000D03*
X139065000Y-43180000D03*
X139649200Y-119761000D03*
X140335000Y-42545000D03*
X141605000Y-43180000D03*
X141605000Y-58420000D03*
X141833600Y-80060800D03*
X142875000Y-42545000D03*
X142875000Y-59690000D03*
X143179800Y-118110000D03*
X143560800Y-94919800D03*
X143611600Y-78638400D03*
X144145000Y-43180000D03*
X144145000Y-58420000D03*
X144576800Y-82981800D03*
X144881600Y-86385400D03*
X145084800Y-79883000D03*
X145186400Y-76657200D03*
X145288000Y-98450400D03*
X145389600Y-95300800D03*
X145415000Y-42545000D03*
X145415000Y-43815000D03*
X145415000Y-59690000D03*
X146050000Y-84328000D03*
X146100800Y-102539800D03*
X146151600Y-105867200D03*
X146227800Y-119583200D03*
X146380200Y-75234800D03*
X146456400Y-115062000D03*
X146634200Y-78028800D03*
X146685000Y-43180000D03*
X146685000Y-55880000D03*
X146685000Y-58420000D03*
X147726400Y-82905600D03*
X147853400Y-79857600D03*
X147955000Y-42545000D03*
X147955000Y-43815000D03*
X147955000Y-57150000D03*
X147955000Y-59690000D03*
X147955000Y-86131400D03*
X147955000Y-96926400D03*
X148107400Y-76479400D03*
X148259800Y-117602000D03*
X148513800Y-104521000D03*
X149225000Y-43180000D03*
X149225000Y-55880000D03*
X149225000Y-58420000D03*
X149580600Y-75184000D03*
X149656800Y-78003400D03*
X149656800Y-84302600D03*
X150495000Y-42545000D03*
X150495000Y-43815000D03*
X150495000Y-45085000D03*
X150495000Y-46355000D03*
X150495000Y-47625000D03*
X150495000Y-54610000D03*
X150495000Y-57150000D03*
X150495000Y-59690000D03*
X150545800Y-105638600D03*
X150545800Y-119583200D03*
X150672800Y-102717600D03*
X150901400Y-95173800D03*
X150901400Y-98348800D03*
X150977600Y-76555600D03*
X151053800Y-79654400D03*
X151180800Y-115062000D03*
X151206200Y-86334600D03*
X151307800Y-82880200D03*
X151765000Y-43180000D03*
X151765000Y-44450000D03*
X151765000Y-45720000D03*
X151765000Y-46990000D03*
X151765000Y-48260000D03*
X151765000Y-53340000D03*
X151765000Y-54610000D03*
X151765000Y-55880000D03*
X151765000Y-58420000D03*
X159639000Y-74168000D03*
X160278000Y-78294700D03*
X161843000Y-63440400D03*
X162600000Y-73475800D03*
X163116800Y-69990700D03*
X164973000Y-61468000D03*
X165035000Y-68647500D03*
X165092000Y-73417100D03*
X165103000Y-71802600D03*
X165138900Y-78294700D03*
X166648000Y-63431400D03*
X166751000Y-68580000D03*
X168067000Y-74260000D03*
X171174700Y-72225800D03*
X172135800Y-87960200D03*
X172186600Y-89738200D03*
X173990000Y-88823800D03*
X174980600Y-103886000D03*
X175818800Y-89712800D03*
X175869600Y-87630000D03*
X177546000Y-88823800D03*
X178384200Y-100660200D03*
X179578000Y-89585800D03*
X179628800Y-87934800D03*
X181152800Y-98171000D03*
X181533800Y-103886000D03*
X181813200Y-88747600D03*
D11*
%TO.C,MH5*%
X95453800Y-71547100D03*
%TO.C,MH1*%
X95657000Y-49416000D03*
%TO.C,MH40*%
X95851900Y-131237100D03*
%TO.C,MH7*%
X95978900Y-90030000D03*
%TO.C,MH21*%
X95978900Y-110422100D03*
%TO.C,MH5*%
X96156744Y-69850044D03*
X96156744Y-73244156D03*
%TO.C,MH1*%
X96359944Y-47718944D03*
X96359944Y-51113056D03*
%TO.C,MH40*%
X96554844Y-129540044D03*
X96554844Y-132934156D03*
%TO.C,MH7*%
X96681844Y-88332944D03*
X96681844Y-91727056D03*
%TO.C,MH21*%
X96681844Y-108725044D03*
X96681844Y-112119156D03*
%TO.C,MH5*%
X97853800Y-69147100D03*
X97853800Y-73947100D03*
%TO.C,MH1*%
X98057000Y-47016000D03*
X98057000Y-51816000D03*
%TO.C,MH40*%
X98251900Y-128837100D03*
X98251900Y-133637100D03*
%TO.C,MH7*%
X98378900Y-87630000D03*
X98378900Y-92430000D03*
%TO.C,MH21*%
X98378900Y-108022100D03*
X98378900Y-112822100D03*
%TO.C,MH5*%
X99550856Y-69850044D03*
X99550856Y-73244156D03*
%TO.C,MH1*%
X99754056Y-47718944D03*
X99754056Y-51113056D03*
%TO.C,MH40*%
X99948956Y-129540044D03*
X99948956Y-132934156D03*
%TO.C,MH7*%
X100075956Y-88332944D03*
X100075956Y-91727056D03*
%TO.C,MH21*%
X100075956Y-108725044D03*
X100075956Y-112119156D03*
%TO.C,MH5*%
X100253800Y-71547100D03*
%TO.C,MH1*%
X100457000Y-49416000D03*
%TO.C,MH40*%
X100651900Y-131237100D03*
%TO.C,MH7*%
X100778900Y-90030000D03*
%TO.C,MH21*%
X100778900Y-110422100D03*
%TO.C,MH11*%
X145174000Y-90999900D03*
%TO.C,MH6*%
X145809000Y-71247000D03*
%TO.C,MH30*%
X145809000Y-110122000D03*
%TO.C,MH11*%
X145876944Y-89302844D03*
X145876944Y-92696956D03*
%TO.C,MH2*%
X146063000Y-50686000D03*
%TO.C,MH50*%
X146063000Y-131686000D03*
%TO.C,MH6*%
X146511944Y-69549944D03*
X146511944Y-72944056D03*
%TO.C,MH30*%
X146511944Y-108424944D03*
X146511944Y-111819056D03*
%TO.C,MH2*%
X146765944Y-48988944D03*
X146765944Y-52383056D03*
%TO.C,MH50*%
X146765944Y-129988944D03*
X146765944Y-133383056D03*
%TO.C,MH11*%
X147574000Y-88599900D03*
X147574000Y-93399900D03*
%TO.C,MH6*%
X148209000Y-68847000D03*
X148209000Y-73647000D03*
%TO.C,MH30*%
X148209000Y-107722000D03*
X148209000Y-112522000D03*
%TO.C,MH2*%
X148463000Y-48286000D03*
X148463000Y-53086000D03*
%TO.C,MH50*%
X148463000Y-129286000D03*
X148463000Y-134086000D03*
%TO.C,MH11*%
X149271056Y-89302844D03*
X149271056Y-92696956D03*
%TO.C,MH6*%
X149906056Y-69549944D03*
X149906056Y-72944056D03*
%TO.C,MH30*%
X149906056Y-108424944D03*
X149906056Y-111819056D03*
%TO.C,MH11*%
X149974000Y-90999900D03*
%TO.C,MH2*%
X150160056Y-48988944D03*
X150160056Y-52383056D03*
%TO.C,MH50*%
X150160056Y-129988944D03*
X150160056Y-133383056D03*
%TO.C,MH6*%
X150609000Y-71247000D03*
%TO.C,MH30*%
X150609000Y-110122000D03*
%TO.C,MH2*%
X150863000Y-50686000D03*
%TO.C,MH50*%
X150863000Y-131686000D03*
%TO.C,Mh3*%
X155033900Y-45131100D03*
%TO.C,MH12*%
X155287900Y-86533100D03*
%TO.C,Mh3*%
X155736844Y-43434044D03*
X155736844Y-46828156D03*
%TO.C,MH12*%
X155990844Y-84836044D03*
X155990844Y-88230156D03*
%TO.C,Mh3*%
X157433900Y-42731100D03*
X157433900Y-47531100D03*
%TO.C,MH12*%
X157687900Y-84133100D03*
X157687900Y-88933100D03*
%TO.C,Mh3*%
X159130956Y-43434044D03*
X159130956Y-46828156D03*
%TO.C,MH12*%
X159384956Y-84836044D03*
X159384956Y-88230156D03*
%TO.C,Mh3*%
X159833900Y-45131100D03*
%TO.C,MH12*%
X160087900Y-86533100D03*
%TO.C,MH15*%
X184163000Y-86461600D03*
%TO.C,MH4*%
X184213800Y-45072000D03*
%TO.C,MH15*%
X184865944Y-84764544D03*
X184865944Y-88158656D03*
%TO.C,MH4*%
X184916744Y-43374944D03*
X184916744Y-46769056D03*
%TO.C,MH15*%
X186563000Y-84061600D03*
X186563000Y-88861600D03*
%TO.C,MH4*%
X186613800Y-42672000D03*
X186613800Y-47472000D03*
%TO.C,MH15*%
X188260056Y-84764544D03*
X188260056Y-88158656D03*
%TO.C,MH4*%
X188310856Y-43374944D03*
X188310856Y-46769056D03*
%TO.C,MH15*%
X188963000Y-86461600D03*
%TO.C,MH4*%
X189013800Y-45072000D03*
D12*
%TO.C,U4_XT_L1*%
X98171000Y-140462000D03*
X100711000Y-140462000D03*
X103251000Y-140462000D03*
X105791000Y-140462000D03*
%TO.C,U3_XT_L1*%
X106045000Y-101600000D03*
%TO.C,U3_XT_R1*%
X106299000Y-120650000D03*
%TO.C,U1_XT1*%
X106781600Y-80289400D03*
%TO.C,U2_XT1*%
X107061000Y-98806000D03*
%TO.C,U4_XT_L1*%
X108331000Y-140462000D03*
%TO.C,U3_XT_L1*%
X108585000Y-101600000D03*
%TO.C,U3_XT_R1*%
X108839000Y-120650000D03*
%TO.C,U1_XT1*%
X109321600Y-80289400D03*
%TO.C,U2_XT1*%
X109601000Y-98806000D03*
%TO.C,U4_XT_L1*%
X110871000Y-140462000D03*
%TO.C,U3_XT_L1*%
X111125000Y-101600000D03*
%TO.C,U3_XT_R1*%
X111379000Y-120650000D03*
%TO.C,U1_XT1*%
X111861600Y-80289400D03*
%TO.C,U2_XT1*%
X112141000Y-98806000D03*
%TO.C,U4_XT_L1*%
X113411000Y-140462000D03*
%TO.C,U3_XT_L1*%
X113665000Y-101600000D03*
%TO.C,U3_XT_R1*%
X113919000Y-120650000D03*
%TO.C,U1_XT1*%
X114401600Y-80289400D03*
%TO.C,U2_XT1*%
X114681000Y-98806000D03*
%TO.C,U4_XT_R1*%
X115189000Y-123190000D03*
%TO.C,U4_XT_L1*%
X115951000Y-140462000D03*
%TO.C,U3_XT_L1*%
X116205000Y-101600000D03*
%TO.C,U3_XT_R1*%
X116459000Y-120650000D03*
%TO.C,U1_XT1*%
X116941600Y-80289400D03*
%TO.C,U2_XT1*%
X117221000Y-98806000D03*
%TO.C,U4_XT_R1*%
X117729000Y-123190000D03*
%TO.C,U3_XT_L1*%
X118745000Y-101600000D03*
%TO.C,U3_XT_R1*%
X118999000Y-120650000D03*
%TO.C,U1_XT1*%
X119481600Y-80289400D03*
%TO.C,LT_XT1*%
X119507000Y-60198000D03*
%TO.C,U2_XT1*%
X119761000Y-98806000D03*
%TO.C,U4_XT_R1*%
X120269000Y-123190000D03*
%TO.C,U3_XT_L1*%
X121285000Y-101600000D03*
%TO.C,U3_XT_R1*%
X121539000Y-120650000D03*
%TO.C,U1_XT1*%
X122021600Y-80289400D03*
%TO.C,LT_XT1*%
X122047000Y-60198000D03*
%TO.C,U2_XT1*%
X122301000Y-98806000D03*
%TO.C,U4_XT_R1*%
X122809000Y-123190000D03*
%TO.C,U3_XT_L1*%
X123825000Y-101600000D03*
%TO.C,U3_XT_R1*%
X124079000Y-120650000D03*
%TO.C,U1_XT1*%
X124561600Y-80289400D03*
%TO.C,LT_XT1*%
X124587000Y-60198000D03*
%TO.C,U2_XT1*%
X124841000Y-98806000D03*
%TO.C,U4_XT_R1*%
X125349000Y-123190000D03*
%TO.C,U1_XT1*%
X127101600Y-80289400D03*
%TO.C,LT_XT1*%
X127127000Y-60198000D03*
%TO.C,U2_XT1*%
X127381000Y-98806000D03*
%TO.C,U4_XT_R1*%
X127889000Y-123190000D03*
%TO.C,U1_XT1*%
X129641600Y-80289400D03*
%TO.C,LT_XT1*%
X129667000Y-60198000D03*
%TO.C,U2_XT1*%
X129921000Y-98806000D03*
%TO.C,U4_XT_R1*%
X130429000Y-123190000D03*
%TO.C,U1_XT1*%
X132181600Y-80289400D03*
%TO.C,LT_XT1*%
X132207000Y-60198000D03*
%TO.C,U2_XT1*%
X132461000Y-98806000D03*
%TO.C,U4_XT_R1*%
X132969000Y-123190000D03*
%TO.C,U1_XT1*%
X134721600Y-80289400D03*
%TO.C,LT_XT1*%
X134747000Y-60198000D03*
%TO.C,U2_XT1*%
X135001000Y-98806000D03*
%TO.C,U1_XT1*%
X137261600Y-80289400D03*
%TO.C,LT_XT1*%
X137287000Y-60198000D03*
%TO.C,U2_XT1*%
X137541000Y-98806000D03*
%TO.C,LT_XT1*%
X139827000Y-60198000D03*
%TO.C,U2_XT1*%
X140081000Y-98806000D03*
X142621000Y-98806000D03*
%TO.C,U5_XT1*%
X154305000Y-49276000D03*
X154305000Y-51816000D03*
X154305000Y-54356000D03*
X154305000Y-56896000D03*
X154305000Y-59436000D03*
X154305000Y-61976000D03*
X154305000Y-64516000D03*
X154305000Y-67056000D03*
X154305000Y-69596000D03*
X154305000Y-72136000D03*
X154305000Y-74676000D03*
X154305000Y-77216000D03*
X154305000Y-79756000D03*
X154305000Y-82296000D03*
D13*
%TO.C,Jmaster1*%
X98425000Y-55372000D03*
X98425000Y-57912000D03*
X100965000Y-55372000D03*
X100965000Y-57912000D03*
%TO.C,J1*%
X103454200Y-72796400D03*
X103454200Y-75336400D03*
%TO.C,Jmaster1*%
X103505000Y-55372000D03*
X103505000Y-57912000D03*
%TO.C,SW1*%
X104114600Y-69697600D03*
%TO.C,J2*%
X104140000Y-88739800D03*
X104140000Y-91279800D03*
%TO.C,J3*%
X104775000Y-109360000D03*
X104775000Y-111900000D03*
%TO.C,SW2*%
X104927400Y-84734400D03*
%TO.C,J1*%
X105994200Y-72796400D03*
X105994200Y-75336400D03*
%TO.C,SW1*%
X106654600Y-69697600D03*
%TO.C,J2*%
X106680000Y-88739800D03*
X106680000Y-91279800D03*
%TO.C,J3*%
X107315000Y-109360000D03*
X107315000Y-111900000D03*
%TO.C,SW2*%
X107467400Y-84734400D03*
%TO.C,J1*%
X108534200Y-72796400D03*
X108534200Y-75336400D03*
%TO.C,SW1*%
X109194600Y-69697600D03*
%TO.C,J2*%
X109220000Y-88739800D03*
X109220000Y-91279800D03*
%TO.C,J3*%
X109855000Y-109360000D03*
X109855000Y-111900000D03*
%TO.C,SW2*%
X110007400Y-84734400D03*
%TO.C,SW_U4*%
X127013000Y-132833800D03*
%TO.C,SW_U3*%
X127889000Y-110833200D03*
%TO.C,SW_U4*%
X129553000Y-132833800D03*
%TO.C,SW_U3*%
X130429000Y-110833200D03*
%TO.C,SW_U4*%
X132093000Y-132833800D03*
%TO.C,SW_U3*%
X132969000Y-110833200D03*
%TO.C,J4*%
X139319000Y-136144000D03*
X139319000Y-138684000D03*
X141859000Y-136144000D03*
X141859000Y-138684000D03*
X144399000Y-136144000D03*
X144399000Y-138684000D03*
%TO.C,SW_U5*%
X162605000Y-80460000D03*
%TO.C,J5*%
X163957000Y-84420000D03*
X163957000Y-86960000D03*
%TO.C,SW_U5*%
X165145000Y-80460000D03*
%TO.C,J5*%
X166497000Y-84420000D03*
X166497000Y-86960000D03*
%TO.C,SW_U5*%
X167685000Y-80460000D03*
%TO.C,J5*%
X169037000Y-84420000D03*
X169037000Y-86960000D03*
%TO.C,U8*%
X170427000Y-124333000D03*
X170427000Y-126873000D03*
X170427000Y-129413000D03*
X170427000Y-131953000D03*
%TO.C,U6*%
X173558200Y-45262800D03*
X173558200Y-47802800D03*
X173558200Y-50342800D03*
X173558200Y-52882800D03*
X173558200Y-55422800D03*
X173558200Y-57962800D03*
X173558200Y-60502800D03*
X173558200Y-63042800D03*
%TO.C,U7*%
X173558200Y-68122800D03*
X173558200Y-70662800D03*
X173558200Y-73202800D03*
X173558200Y-75742800D03*
X173558200Y-78282800D03*
X173558200Y-80822800D03*
X173558200Y-83362800D03*
X173558200Y-85902800D03*
%TO.C,U8*%
X178047000Y-124333000D03*
X178047000Y-126873000D03*
X178047000Y-129413000D03*
X178047000Y-131953000D03*
%TO.C,U6*%
X181178200Y-45262800D03*
X181178200Y-47802800D03*
X181178200Y-50342800D03*
X181178200Y-52882800D03*
X181178200Y-55422800D03*
X181178200Y-57962800D03*
X181178200Y-60502800D03*
X181178200Y-63042800D03*
%TO.C,U7*%
X181178200Y-68122800D03*
X181178200Y-70662800D03*
X181178200Y-73202800D03*
X181178200Y-75742800D03*
X181178200Y-78282800D03*
X181178200Y-80822800D03*
X181178200Y-83362800D03*
X181178200Y-85902800D03*
D14*
%TO.C,J14*%
X125027100Y-48895000D03*
%TO.C,J13*%
X125027100Y-53340000D03*
%TO.C,Window1*%
X125603000Y-67691000D03*
%TO.C,Window2*%
X125857000Y-74168000D03*
%TO.C,J11*%
X125997000Y-127296600D03*
%TO.C,Door1*%
X126345000Y-86486600D03*
%TO.C,J12*%
X126822200Y-105067400D03*
%TO.C,J14*%
X127567100Y-48895000D03*
%TO.C,J13*%
X127567100Y-53340000D03*
%TO.C,Window1*%
X128143000Y-67691000D03*
%TO.C,Window2*%
X128397000Y-74168000D03*
%TO.C,J11*%
X128537000Y-127296600D03*
%TO.C,Door1*%
X128885000Y-86486600D03*
%TO.C,J12*%
X129362200Y-105067400D03*
%TO.C,J14*%
X130107100Y-48895000D03*
%TO.C,J13*%
X130107100Y-53340000D03*
%TO.C,J14*%
X132647100Y-48895000D03*
%TO.C,J13*%
X132647100Y-53340000D03*
%TO.C,J_U2B1*%
X133324600Y-85496400D03*
X133324600Y-88036400D03*
X133324600Y-90576400D03*
X133324600Y-93116400D03*
%TO.C,J_U1B1*%
X134696200Y-67370800D03*
X134696200Y-69910800D03*
X134696200Y-72450800D03*
X134696200Y-74990800D03*
%TO.C,J14*%
X135187100Y-48895000D03*
%TO.C,J13*%
X135187100Y-53340000D03*
%TO.C,U3_PW1*%
X135685000Y-104783000D03*
X135685000Y-107323000D03*
%TO.C,U4_PW1*%
X136017000Y-124699000D03*
X136017000Y-127239000D03*
%TO.C,J14*%
X137727100Y-48895000D03*
%TO.C,J13*%
X137727100Y-53340000D03*
%TO.C,J_SPI_3*%
X139319000Y-104788000D03*
X139319000Y-107328000D03*
X139319000Y-109868000D03*
X139319000Y-112408000D03*
%TO.C,J_SPI_4*%
X139827000Y-124714000D03*
X139827000Y-127254000D03*
X139827000Y-129794000D03*
X139827000Y-132334000D03*
%TO.C,J14*%
X140267100Y-48895000D03*
%TO.C,J13*%
X140267100Y-53340000D03*
%TO.C,J_U2A1*%
X140750600Y-85410400D03*
X140750600Y-87950400D03*
X140750600Y-90490400D03*
X140750600Y-93030400D03*
%TO.C,J_U1A1*%
X140967600Y-67351600D03*
X140967600Y-69891600D03*
X140967600Y-72431600D03*
X140967600Y-74971600D03*
%TO.C,J14*%
X142807100Y-48895000D03*
%TO.C,J13*%
X142807100Y-53340000D03*
%TO.C,J7*%
X155829000Y-94234000D03*
X155829000Y-96774000D03*
X155829000Y-99314000D03*
X155829000Y-101854000D03*
X155829000Y-104394000D03*
X155829000Y-106934000D03*
X155829000Y-109474000D03*
X155829000Y-112014000D03*
X155829000Y-114554000D03*
X155829000Y-117094000D03*
X155829000Y-119634000D03*
X155829000Y-122174000D03*
X155829000Y-124714000D03*
X155829000Y-127254000D03*
X155829000Y-129794000D03*
X155829000Y-132334000D03*
X155829000Y-134874000D03*
X155829000Y-137414000D03*
X155829000Y-139954000D03*
%TO.C,BZ1*%
X161183000Y-57810400D03*
%TO.C,J_SPI_5*%
X162687000Y-44399200D03*
%TO.C,U5_PW1*%
X163195000Y-48006000D03*
%TO.C,J_SPI_5*%
X165227000Y-44399200D03*
%TO.C,U5_PW1*%
X165735000Y-48006000D03*
%TO.C,J_U6*%
X166363000Y-126619000D03*
X166363000Y-129159000D03*
X166363000Y-131699000D03*
X166363000Y-134239000D03*
%TO.C,J_SPI_5*%
X167767000Y-44399200D03*
%TO.C,BZ1*%
X168783000Y-57810400D03*
%TO.C,J_SPI_5*%
X170307000Y-44399200D03*
%TO.C,J6*%
X187833000Y-94234000D03*
X187833000Y-96774000D03*
X187833000Y-99314000D03*
X187833000Y-101854000D03*
X187833000Y-104394000D03*
X187833000Y-106934000D03*
X187833000Y-109474000D03*
X187833000Y-112014000D03*
X187833000Y-114554000D03*
X187833000Y-117094000D03*
X187833000Y-119634000D03*
X187833000Y-122174000D03*
X187833000Y-124714000D03*
X187833000Y-127254000D03*
X187833000Y-129794000D03*
X187833000Y-132334000D03*
X187833000Y-134874000D03*
X187833000Y-137414000D03*
X187833000Y-139954000D03*
%TO.C,J10*%
X188185000Y-50546000D03*
X188185000Y-53086000D03*
X188185000Y-55626000D03*
X188185000Y-58166000D03*
X188185000Y-60706000D03*
X188185000Y-63246000D03*
X188185000Y-65786000D03*
X188185000Y-68326000D03*
X188185000Y-70866000D03*
X188185000Y-73406000D03*
X188185000Y-75946000D03*
X188185000Y-78486000D03*
X188185000Y-81026000D03*
D15*
%TO.C,ESP32*%
X159131000Y-94234000D03*
X159131000Y-96774000D03*
X159131000Y-99314000D03*
X159131000Y-101854000D03*
X159131000Y-104394000D03*
X159131000Y-106934000D03*
X159131000Y-109474000D03*
X159131000Y-112014000D03*
X159131000Y-114554000D03*
X159131000Y-117094000D03*
X159131000Y-119634000D03*
X159131000Y-122174000D03*
X159131000Y-124714000D03*
X159131000Y-127254000D03*
X159131000Y-129794000D03*
X159131000Y-132334000D03*
X159131000Y-134874000D03*
X159131000Y-137414000D03*
X159131000Y-139954000D03*
X184531000Y-94234000D03*
X184531000Y-96774000D03*
X184531000Y-99314000D03*
X184531000Y-101854000D03*
X184531000Y-104394000D03*
X184531000Y-106934000D03*
X184531000Y-109474000D03*
X184531000Y-112014000D03*
X184531000Y-114554000D03*
X184531000Y-117094000D03*
X184531000Y-119634000D03*
X184531000Y-122174000D03*
X184531000Y-124714000D03*
X184531000Y-127254000D03*
X184531000Y-129794000D03*
X184531000Y-132334000D03*
X184531000Y-134874000D03*
X184531000Y-137414000D03*
X184531000Y-139954000D03*
D16*
%TO.C,Q1*%
X127013000Y-137944400D03*
%TO.C,Q2*%
X127889000Y-115913200D03*
%TO.C,Q1*%
X129553000Y-137944400D03*
%TO.C,Q2*%
X130429000Y-115913200D03*
%TO.C,Q1*%
X132093000Y-137944400D03*
%TO.C,Q2*%
X132969000Y-115913200D03*
D17*
%TO.C,MH5*%
X97853800Y-71547100D03*
%TO.C,MH1*%
X98057000Y-49416000D03*
%TO.C,MH40*%
X98251900Y-131237100D03*
%TO.C,MH7*%
X98378900Y-90030000D03*
%TO.C,MH21*%
X98378900Y-110422100D03*
%TO.C,MH11*%
X147574000Y-90999900D03*
%TO.C,MH6*%
X148209000Y-71247000D03*
%TO.C,MH30*%
X148209000Y-110122000D03*
%TO.C,MH2*%
X148463000Y-50686000D03*
%TO.C,MH50*%
X148463000Y-131686000D03*
%TO.C,Mh3*%
X157433900Y-45131100D03*
%TO.C,MH12*%
X157687900Y-86533100D03*
%TO.C,*%
X165836600Y-105968800D03*
%TO.C,MH235*%
X168268000Y-119507000D03*
%TO.C,MH434*%
X175380000Y-137160000D03*
%TO.C,*%
X177520600Y-105816400D03*
%TO.C,MH15*%
X186563000Y-86461600D03*
%TO.C,MH4*%
X186613800Y-45072000D03*
M02*
