%TF.GenerationSoftware,KiCad,Pcbnew,7.0.7*%
%TF.CreationDate,2023-11-05T18:49:40-05:00*%
%TF.ProjectId,MaisonEtape1,4d616973-6f6e-4457-9461-7065312e6b69,rev?*%
%TF.SameCoordinates,Original*%
%TF.FileFunction,Drillmap*%
%TF.FilePolarity,Positive*%
%FSLAX45Y45*%
G04 Gerber Fmt 4.5, Leading zero omitted, Abs format (unit mm)*
G04 Created by KiCad (PCBNEW 7.0.7) date 2023-11-05 18:49:40*
%MOMM*%
%LPD*%
G01*
G04 APERTURE LIST*
%ADD10C,0.200000*%
%ADD11C,0.040000*%
%ADD12C,0.050000*%
%ADD13C,0.076200*%
%ADD14C,0.080000*%
%ADD15C,0.100000*%
%ADD16C,0.102000*%
%ADD17C,0.110000*%
%ADD18C,0.320000*%
G04 APERTURE END LIST*
D10*
X15232380Y-8432800D02*
X15329189Y-8432800D01*
X15328500Y-4179000D01*
X19044800Y-4178300D01*
X19044800Y-6661150D01*
X19044800Y-9042400D01*
X19024600Y-9082751D01*
X17716500Y-9082751D01*
X15735300Y-9082751D01*
X15735300Y-9154160D01*
X16357600Y-9154160D01*
X16357600Y-9639300D01*
X18046700Y-9639300D01*
X18046700Y-9154160D01*
X19024600Y-9154160D01*
X19050000Y-9169400D01*
X19044800Y-14165600D01*
X18110200Y-14165580D01*
X18110200Y-13610400D01*
X18112740Y-11419840D01*
X17983200Y-11417300D01*
X17650460Y-11417300D01*
X17650460Y-11521440D01*
X17995900Y-11521440D01*
X17995900Y-14161537D01*
X16415100Y-14166260D01*
X16415505Y-12048330D01*
X16416020Y-11521440D01*
X16700500Y-11521440D01*
X16700500Y-11419840D01*
X16309340Y-11419840D01*
X16308840Y-13602320D01*
X16309340Y-14163040D01*
X15328900Y-14163040D01*
X15328900Y-9474200D01*
X15232091Y-9474200D01*
X15232380Y-14163446D01*
X9362300Y-14165600D01*
X9362500Y-12252000D01*
X9415500Y-12243000D01*
X14377700Y-12242800D01*
X14377700Y-12145991D01*
X9405500Y-12141000D01*
X9360412Y-12128476D01*
X9358500Y-10066000D01*
X9537700Y-10058400D01*
X14427200Y-10058400D01*
X14427200Y-9961591D01*
X9537700Y-9961591D01*
X9360331Y-9955999D01*
X9359500Y-8180000D01*
X14643100Y-8179409D01*
X14643100Y-8102600D01*
X9361500Y-8102000D01*
X9359900Y-6210300D01*
X14251940Y-6210300D01*
X14251940Y-6108700D01*
X9362440Y-6108700D01*
X9362300Y-4178300D01*
X12269400Y-4178300D01*
X15232500Y-4178000D01*
X15232380Y-8432800D01*
D11*
X9461820Y-11742740D02*
X9501820Y-11782740D01*
X9501820Y-11742740D02*
X9461820Y-11782740D01*
X9469440Y-12006900D02*
X9509440Y-12046900D01*
X9509440Y-12006900D02*
X9469440Y-12046900D01*
X9471980Y-10698800D02*
X9511980Y-10738800D01*
X9511980Y-10698800D02*
X9471980Y-10738800D01*
X9512620Y-9441500D02*
X9552620Y-9481500D01*
X9552620Y-9441500D02*
X9512620Y-9481500D01*
X9522780Y-9776780D02*
X9562780Y-9816780D01*
X9562780Y-9776780D02*
X9522780Y-9816780D01*
X9753920Y-9431340D02*
X9793920Y-9471340D01*
X9793920Y-9431340D02*
X9753920Y-9471340D01*
X9781860Y-11882440D02*
X9821860Y-11922440D01*
X9821860Y-11882440D02*
X9781860Y-11922440D01*
X9822500Y-4298000D02*
X9862500Y-4338000D01*
X9862500Y-4298000D02*
X9822500Y-4338000D01*
X9949500Y-4425000D02*
X9989500Y-4465000D01*
X9989500Y-4425000D02*
X9949500Y-4465000D01*
X10071420Y-12019600D02*
X10111420Y-12059600D01*
X10111420Y-12019600D02*
X10071420Y-12059600D01*
X10076500Y-4298000D02*
X10116500Y-4338000D01*
X10116500Y-4298000D02*
X10076500Y-4338000D01*
X10134920Y-6835460D02*
X10174920Y-6875460D01*
X10174920Y-6835460D02*
X10134920Y-6875460D01*
X10195880Y-7790500D02*
X10235880Y-7830500D01*
X10235880Y-7790500D02*
X10195880Y-7830500D01*
X10203500Y-4425000D02*
X10243500Y-4465000D01*
X10243500Y-4425000D02*
X10203500Y-4465000D01*
X10203500Y-4679000D02*
X10243500Y-4719000D01*
X10243500Y-4679000D02*
X10203500Y-4719000D01*
X10203500Y-4933000D02*
X10243500Y-4973000D01*
X10243500Y-4933000D02*
X10203500Y-4973000D01*
X10221280Y-11859580D02*
X10261280Y-11899580D01*
X10261280Y-11859580D02*
X10221280Y-11899580D01*
X10254300Y-10698800D02*
X10294300Y-10738800D01*
X10294300Y-10698800D02*
X10254300Y-10738800D01*
X10284780Y-13637580D02*
X10324780Y-13677580D01*
X10324780Y-13637580D02*
X10284780Y-13677580D01*
X10330500Y-4298000D02*
X10370500Y-4338000D01*
X10370500Y-4298000D02*
X10330500Y-4338000D01*
X10330500Y-4552000D02*
X10370500Y-4592000D01*
X10370500Y-4552000D02*
X10330500Y-4592000D01*
X10330500Y-4806000D02*
X10370500Y-4846000D01*
X10370500Y-4806000D02*
X10330500Y-4846000D01*
X10394000Y-12014520D02*
X10434000Y-12054520D01*
X10434000Y-12014520D02*
X10394000Y-12054520D01*
X10457500Y-4425000D02*
X10497500Y-4465000D01*
X10497500Y-4425000D02*
X10457500Y-4465000D01*
X10457500Y-4679000D02*
X10497500Y-4719000D01*
X10497500Y-4679000D02*
X10457500Y-4719000D01*
X10457500Y-4933000D02*
X10497500Y-4973000D01*
X10497500Y-4933000D02*
X10457500Y-4973000D01*
X10482900Y-10698800D02*
X10522900Y-10738800D01*
X10522900Y-10698800D02*
X10482900Y-10738800D01*
X10584500Y-4298000D02*
X10624500Y-4338000D01*
X10624500Y-4298000D02*
X10584500Y-4338000D01*
X10665780Y-9602880D02*
X10705780Y-9642880D01*
X10705780Y-9602880D02*
X10665780Y-9642880D01*
X10711500Y-4234500D02*
X10751500Y-4274500D01*
X10751500Y-4234500D02*
X10711500Y-4274500D01*
X10711500Y-4361500D02*
X10751500Y-4401500D01*
X10751500Y-4361500D02*
X10711500Y-4401500D01*
X10716740Y-13730150D02*
X10756740Y-13770150D01*
X10756740Y-13730150D02*
X10716740Y-13770150D01*
X10762300Y-10729500D02*
X10802300Y-10769500D01*
X10802300Y-10729500D02*
X10762300Y-10769500D01*
X10767380Y-9311960D02*
X10807380Y-9351960D01*
X10807380Y-9311960D02*
X10767380Y-9351960D01*
X10775730Y-5325970D02*
X10815730Y-5365970D01*
X10815730Y-5325970D02*
X10775730Y-5365970D01*
X10813100Y-11587800D02*
X10853100Y-11627800D01*
X10853100Y-11587800D02*
X10813100Y-11627800D01*
X10838500Y-4298000D02*
X10878500Y-4338000D01*
X10878500Y-4298000D02*
X10838500Y-4338000D01*
X10838500Y-4552000D02*
X10878500Y-4592000D01*
X10878500Y-4552000D02*
X10838500Y-4592000D01*
X10965500Y-4234500D02*
X11005500Y-4274500D01*
X11005500Y-4234500D02*
X10965500Y-4274500D01*
X10965500Y-4425000D02*
X11005500Y-4465000D01*
X11005500Y-4425000D02*
X10965500Y-4465000D01*
X10965500Y-11689400D02*
X11005500Y-11729400D01*
X11005500Y-11689400D02*
X10965500Y-11729400D01*
X10990900Y-11431650D02*
X11030900Y-11471650D01*
X11030900Y-11431650D02*
X10990900Y-11471650D01*
X10990900Y-13315000D02*
X11030900Y-13355000D01*
X11030900Y-13315000D02*
X10990900Y-13355000D01*
X11006140Y-9317040D02*
X11046140Y-9357040D01*
X11046140Y-9317040D02*
X11006140Y-9357040D01*
X11041700Y-13467400D02*
X11081700Y-13507400D01*
X11081700Y-13467400D02*
X11041700Y-13507400D01*
X11045450Y-10644550D02*
X11085450Y-10684550D01*
X11085450Y-10644550D02*
X11045450Y-10684550D01*
X11046281Y-9615902D02*
X11086281Y-9655902D01*
X11086281Y-9615902D02*
X11046281Y-9655902D01*
X11069400Y-5218330D02*
X11109400Y-5258330D01*
X11109400Y-5218330D02*
X11069400Y-5258330D01*
X11092500Y-4298000D02*
X11132500Y-4338000D01*
X11132500Y-4298000D02*
X11092500Y-4338000D01*
X11092500Y-4552000D02*
X11132500Y-4592000D01*
X11132500Y-4552000D02*
X11092500Y-4592000D01*
X11102660Y-12796840D02*
X11142660Y-12836840D01*
X11142660Y-12796840D02*
X11102660Y-12836840D01*
X11115785Y-11103085D02*
X11155785Y-11143085D01*
X11155785Y-11103085D02*
X11115785Y-11143085D01*
X11133664Y-7203526D02*
X11173664Y-7243526D01*
X11173664Y-7203526D02*
X11133664Y-7243526D01*
X11149650Y-5640390D02*
X11189650Y-5680390D01*
X11189650Y-5640390D02*
X11149650Y-5680390D01*
X11158900Y-5354990D02*
X11198900Y-5394990D01*
X11198900Y-5354990D02*
X11158900Y-5394990D01*
X11161080Y-8608380D02*
X11201080Y-8648380D01*
X11201080Y-8608380D02*
X11161080Y-8648380D01*
X11166360Y-4694170D02*
X11206360Y-4734170D01*
X11206360Y-4694170D02*
X11166360Y-4734170D01*
X11168700Y-13035600D02*
X11208700Y-13075600D01*
X11208700Y-13035600D02*
X11168700Y-13075600D01*
X11168700Y-13543600D02*
X11208700Y-13583600D01*
X11208700Y-13543600D02*
X11168700Y-13583600D01*
X11169250Y-10756977D02*
X11209250Y-10796977D01*
X11209250Y-10756977D02*
X11169250Y-10796977D01*
X11178860Y-8953820D02*
X11218860Y-8993820D01*
X11218860Y-8953820D02*
X11178860Y-8993820D01*
X11181400Y-6812600D02*
X11221400Y-6852600D01*
X11221400Y-6812600D02*
X11181400Y-6852600D01*
X11194100Y-10317800D02*
X11234100Y-10357800D01*
X11234100Y-10317800D02*
X11194100Y-10357800D01*
X11194100Y-13365800D02*
X11234100Y-13405800D01*
X11234100Y-13365800D02*
X11194100Y-13405800D01*
X11195410Y-12720770D02*
X11235410Y-12760770D01*
X11235410Y-12720770D02*
X11195410Y-12760770D01*
X11197850Y-10651757D02*
X11237850Y-10691757D01*
X11237850Y-10651757D02*
X11197850Y-10691757D01*
X11202066Y-13154634D02*
X11242066Y-13194634D01*
X11242066Y-13154634D02*
X11202066Y-13194634D01*
X11219500Y-4234500D02*
X11259500Y-4274500D01*
X11259500Y-4234500D02*
X11219500Y-4274500D01*
X11219500Y-4425000D02*
X11259500Y-4465000D01*
X11259500Y-4425000D02*
X11219500Y-4465000D01*
X11227120Y-8649020D02*
X11267120Y-8689020D01*
X11267120Y-8649020D02*
X11227120Y-8689020D01*
X11242950Y-10937236D02*
X11282950Y-10977236D01*
X11282950Y-10937236D02*
X11242950Y-10977236D01*
X11243200Y-11239800D02*
X11283200Y-11279800D01*
X11283200Y-11239800D02*
X11243200Y-11279800D01*
X11323798Y-8542351D02*
X11363798Y-8582351D01*
X11363798Y-8542351D02*
X11323798Y-8582351D01*
X11331260Y-11577640D02*
X11371260Y-11617640D01*
X11371260Y-11577640D02*
X11331260Y-11617640D01*
X11338800Y-4695760D02*
X11378800Y-4735760D01*
X11378800Y-4695760D02*
X11338800Y-4735760D01*
X11345960Y-5441950D02*
X11385960Y-5481950D01*
X11385960Y-5441950D02*
X11345960Y-5481950D01*
X11346500Y-4298000D02*
X11386500Y-4338000D01*
X11386500Y-4298000D02*
X11346500Y-4338000D01*
X11371900Y-12705400D02*
X11411900Y-12745400D01*
X11411900Y-12705400D02*
X11371900Y-12745400D01*
X11416050Y-12543650D02*
X11456050Y-12583650D01*
X11456050Y-12543650D02*
X11416050Y-12583650D01*
X11433350Y-11409520D02*
X11473350Y-11449520D01*
X11473350Y-11409520D02*
X11433350Y-11449520D01*
X11455400Y-4783460D02*
X11495400Y-4823460D01*
X11495400Y-4783460D02*
X11455400Y-4823460D01*
X11473500Y-4234500D02*
X11513500Y-4274500D01*
X11513500Y-4234500D02*
X11473500Y-4274500D01*
X11476040Y-6463281D02*
X11516040Y-6503281D01*
X11516040Y-6463281D02*
X11476040Y-6503281D01*
X11476767Y-7053930D02*
X11516767Y-7093930D01*
X11516767Y-7053930D02*
X11476767Y-7093930D01*
X11498777Y-12796333D02*
X11538777Y-12836333D01*
X11538777Y-12796333D02*
X11498777Y-12836333D01*
X11499000Y-13363270D02*
X11539000Y-13403270D01*
X11539000Y-13363270D02*
X11499000Y-13403270D01*
X11500350Y-7335081D02*
X11540350Y-7375081D01*
X11540350Y-7335081D02*
X11500350Y-7375081D01*
X11510180Y-5110800D02*
X11550180Y-5150800D01*
X11550180Y-5110800D02*
X11510180Y-5150800D01*
X11513900Y-4485300D02*
X11553900Y-4525300D01*
X11553900Y-4485300D02*
X11513900Y-4525300D01*
X11516680Y-6921820D02*
X11556680Y-6961820D01*
X11556680Y-6921820D02*
X11516680Y-6961820D01*
X11525450Y-9212930D02*
X11565450Y-9252930D01*
X11565450Y-9212930D02*
X11525450Y-9252930D01*
X11531920Y-8768400D02*
X11571920Y-8808400D01*
X11571920Y-8768400D02*
X11531920Y-8808400D01*
X11547160Y-5799490D02*
X11587160Y-5839490D01*
X11587160Y-5799490D02*
X11547160Y-5839490D01*
X11550100Y-5351540D02*
X11590100Y-5391540D01*
X11590100Y-5351540D02*
X11550100Y-5391540D01*
X11572291Y-10869204D02*
X11612291Y-10909204D01*
X11612291Y-10869204D02*
X11572291Y-10909204D01*
X11581983Y-12966283D02*
X11621983Y-13006283D01*
X11621983Y-12966283D02*
X11581983Y-13006283D01*
X11582672Y-6733602D02*
X11622672Y-6773602D01*
X11622672Y-6733602D02*
X11582672Y-6773602D01*
X11593950Y-5627630D02*
X11633950Y-5667630D01*
X11633950Y-5627630D02*
X11593950Y-5667630D01*
X11600500Y-4298000D02*
X11640500Y-4338000D01*
X11640500Y-4298000D02*
X11600500Y-4338000D01*
X11610500Y-8444690D02*
X11650500Y-8484690D01*
X11650500Y-8444690D02*
X11610500Y-8484690D01*
X11610500Y-11244150D02*
X11650500Y-11284150D01*
X11650500Y-11244150D02*
X11610500Y-11284150D01*
X11617430Y-6447617D02*
X11657430Y-6487617D01*
X11657430Y-6447617D02*
X11617430Y-6487617D01*
X11620906Y-8722886D02*
X11660906Y-8762886D01*
X11660906Y-8722886D02*
X11620906Y-8762886D01*
X11632370Y-9281480D02*
X11672370Y-9321480D01*
X11672370Y-9281480D02*
X11632370Y-9321480D01*
X11639636Y-5729262D02*
X11679636Y-5769262D01*
X11679636Y-5729262D02*
X11639636Y-5769262D01*
X11643406Y-6914474D02*
X11683406Y-6954474D01*
X11683406Y-6914474D02*
X11643406Y-6954474D01*
X11649900Y-4786000D02*
X11689900Y-4826000D01*
X11689900Y-4786000D02*
X11649900Y-4826000D01*
X11651300Y-11537000D02*
X11691300Y-11577000D01*
X11691300Y-11537000D02*
X11651300Y-11577000D01*
X11659550Y-13363300D02*
X11699550Y-13403300D01*
X11699550Y-13363300D02*
X11659550Y-13403300D01*
X11666933Y-12883200D02*
X11706933Y-12923200D01*
X11706933Y-12883200D02*
X11666933Y-12923200D01*
X11673167Y-5114333D02*
X11713167Y-5154333D01*
X11713167Y-5114333D02*
X11673167Y-5154333D01*
X11688892Y-13060312D02*
X11728892Y-13100312D01*
X11728892Y-13060312D02*
X11688892Y-13100312D01*
X11718690Y-13280730D02*
X11758690Y-13320730D01*
X11758690Y-13280730D02*
X11718690Y-13320730D01*
X11727500Y-4234500D02*
X11767500Y-4274500D01*
X11767500Y-4234500D02*
X11727500Y-4274500D01*
X11730040Y-9602880D02*
X11770040Y-9642880D01*
X11770040Y-9602880D02*
X11730040Y-9642880D01*
X11737660Y-6744020D02*
X11777660Y-6784020D01*
X11777660Y-6744020D02*
X11737660Y-6784020D01*
X11737700Y-5748590D02*
X11777700Y-5788590D01*
X11777700Y-5748590D02*
X11737700Y-5788590D01*
X11768140Y-8707440D02*
X11808140Y-8747440D01*
X11808140Y-8707440D02*
X11768140Y-8747440D01*
X11770484Y-9263504D02*
X11810484Y-9303504D01*
X11810484Y-9263504D02*
X11770484Y-9303504D01*
X11770635Y-12881765D02*
X11810635Y-12921765D01*
X11810635Y-12881765D02*
X11770635Y-12921765D01*
X11774900Y-4785650D02*
X11814900Y-4825650D01*
X11814900Y-4785650D02*
X11774900Y-4825650D01*
X11778300Y-11613200D02*
X11818300Y-11653200D01*
X11818300Y-11613200D02*
X11778300Y-11653200D01*
X11824020Y-7147880D02*
X11864020Y-7187880D01*
X11864020Y-7147880D02*
X11824020Y-7187880D01*
X11824020Y-8915720D02*
X11864020Y-8955720D01*
X11864020Y-8915720D02*
X11824020Y-8955720D01*
X11829100Y-11000050D02*
X11869100Y-11040050D01*
X11869100Y-11000050D02*
X11829100Y-11040050D01*
X11829100Y-13797600D02*
X11869100Y-13837600D01*
X11869100Y-13797600D02*
X11829100Y-13837600D01*
X11847461Y-8768253D02*
X11887461Y-8808253D01*
X11887461Y-8768253D02*
X11847461Y-8808253D01*
X11850400Y-5714760D02*
X11890400Y-5754760D01*
X11890400Y-5714760D02*
X11850400Y-5754760D01*
X11850500Y-9602880D02*
X11890500Y-9642880D01*
X11890500Y-9602880D02*
X11850500Y-9642880D01*
X11850500Y-10861450D02*
X11890500Y-10901450D01*
X11890500Y-10861450D02*
X11850500Y-10901450D01*
X11850500Y-11543660D02*
X11890500Y-11583660D01*
X11890500Y-11543660D02*
X11850500Y-11583660D01*
X11898702Y-13169236D02*
X11938702Y-13209236D01*
X11938702Y-13169236D02*
X11898702Y-13209236D01*
X11930700Y-4958400D02*
X11970700Y-4998400D01*
X11970700Y-4958400D02*
X11930700Y-4998400D01*
X11942143Y-8405091D02*
X11982143Y-8445091D01*
X11982143Y-8405091D02*
X11942143Y-8445091D01*
X11956100Y-8306120D02*
X11996100Y-8346120D01*
X11996100Y-8306120D02*
X11956100Y-8346120D01*
X11956100Y-13823000D02*
X11996100Y-13863000D01*
X11996100Y-13823000D02*
X11956100Y-13863000D01*
X11958640Y-8760780D02*
X11998640Y-8800780D01*
X11998640Y-8760780D02*
X11958640Y-8800780D01*
X11961800Y-4379930D02*
X12001800Y-4419930D01*
X12001800Y-4379930D02*
X11961800Y-4419930D01*
X11964478Y-9118920D02*
X12004478Y-9158920D01*
X12004478Y-9118920D02*
X11964478Y-9158920D01*
X11979050Y-13366050D02*
X12019050Y-13406050D01*
X12019050Y-13366050D02*
X11979050Y-13406050D01*
X11981500Y-13721400D02*
X12021500Y-13761400D01*
X12021500Y-13721400D02*
X11981500Y-13761400D01*
X11981559Y-6344628D02*
X12021559Y-6384628D01*
X12021559Y-6344628D02*
X11981559Y-6384628D01*
X12004360Y-6977700D02*
X12044360Y-7017700D01*
X12044360Y-6977700D02*
X12004360Y-7017700D01*
X12029250Y-10759154D02*
X12069250Y-10799154D01*
X12069250Y-10759154D02*
X12029250Y-10799154D01*
X12042460Y-7150420D02*
X12082460Y-7190420D01*
X12082460Y-7150420D02*
X12042460Y-7190420D01*
X12060800Y-4401090D02*
X12100800Y-4441090D01*
X12100800Y-4401090D02*
X12060800Y-4441090D01*
X12070350Y-6738940D02*
X12110350Y-6778940D01*
X12110350Y-6738940D02*
X12070350Y-6778940D01*
X12070969Y-13187336D02*
X12110969Y-13227336D01*
X12110969Y-13187336D02*
X12070969Y-13227336D01*
X12083100Y-10674950D02*
X12123100Y-10714950D01*
X12123100Y-10674950D02*
X12083100Y-10714950D01*
X12083100Y-11245050D02*
X12123100Y-11285050D01*
X12123100Y-11245050D02*
X12083100Y-11285050D01*
X12095550Y-9120190D02*
X12135550Y-9160190D01*
X12135550Y-9120190D02*
X12095550Y-9160190D01*
X12177950Y-9517930D02*
X12217950Y-9557930D01*
X12217950Y-9517930D02*
X12177950Y-9557930D01*
X12184260Y-10588600D02*
X12224260Y-10628600D01*
X12224260Y-10588600D02*
X12184260Y-10628600D01*
X12212640Y-4592640D02*
X12252640Y-4632640D01*
X12252640Y-4592640D02*
X12212640Y-4632640D01*
X12243000Y-12708800D02*
X12283000Y-12748800D01*
X12283000Y-12708800D02*
X12243000Y-12748800D01*
X12283130Y-10404620D02*
X12323130Y-10444620D01*
X12323130Y-10404620D02*
X12283130Y-10444620D01*
X12306077Y-7666840D02*
X12346077Y-7706840D01*
X12346077Y-7666840D02*
X12306077Y-7706840D01*
X12343773Y-12987760D02*
X12383773Y-13027760D01*
X12383773Y-12987760D02*
X12343773Y-13027760D01*
X12354880Y-6704050D02*
X12394880Y-6744050D01*
X12394880Y-6704050D02*
X12354880Y-6744050D01*
X12355530Y-10590560D02*
X12395530Y-10630560D01*
X12395530Y-10590560D02*
X12355530Y-10630560D01*
X12362500Y-4298000D02*
X12402500Y-4338000D01*
X12402500Y-4298000D02*
X12362500Y-4338000D01*
X12362500Y-12629200D02*
X12402500Y-12669200D01*
X12402500Y-12629200D02*
X12362500Y-12669200D01*
X12363400Y-4581290D02*
X12403400Y-4621290D01*
X12403400Y-4581290D02*
X12363400Y-4621290D01*
X12385100Y-11020334D02*
X12425100Y-11060334D01*
X12425100Y-11020334D02*
X12385100Y-11060334D01*
X12390440Y-8892860D02*
X12430440Y-8932860D01*
X12430440Y-8892860D02*
X12390440Y-8932860D01*
X12398060Y-9195120D02*
X12438060Y-9235120D01*
X12438060Y-9195120D02*
X12398060Y-9235120D01*
X12398150Y-7055947D02*
X12438150Y-7095947D01*
X12438150Y-7055947D02*
X12398150Y-7095947D01*
X12413300Y-10876600D02*
X12453300Y-10916600D01*
X12453300Y-10876600D02*
X12413300Y-10916600D01*
X12416081Y-7190216D02*
X12456081Y-7230216D01*
X12456081Y-7190216D02*
X12416081Y-7230216D01*
X12418380Y-8698690D02*
X12458380Y-8738690D01*
X12458380Y-8698690D02*
X12418380Y-8738690D01*
X12420250Y-7335166D02*
X12460250Y-7375166D01*
X12460250Y-7335166D02*
X12420250Y-7375166D01*
X12438700Y-11645350D02*
X12478700Y-11685350D01*
X12478700Y-11645350D02*
X12438700Y-11685350D01*
X12440583Y-7622910D02*
X12480583Y-7662910D01*
X12480583Y-7622910D02*
X12440583Y-7662910D01*
X12441605Y-13008020D02*
X12481605Y-13048020D01*
X12481605Y-13008020D02*
X12441605Y-13048020D01*
X12489500Y-4234500D02*
X12529500Y-4274500D01*
X12529500Y-4234500D02*
X12489500Y-4274500D01*
X12489500Y-13721400D02*
X12529500Y-13761400D01*
X12529500Y-13721400D02*
X12489500Y-13761400D01*
X12499660Y-8900480D02*
X12539660Y-8940480D01*
X12539660Y-8900480D02*
X12499660Y-8940480D01*
X12540300Y-13365800D02*
X12580300Y-13405800D01*
X12580300Y-13365800D02*
X12540300Y-13405800D01*
X12616500Y-4298000D02*
X12656500Y-4338000D01*
X12656500Y-4298000D02*
X12616500Y-4338000D01*
X12659680Y-12006900D02*
X12699680Y-12046900D01*
X12699680Y-12006900D02*
X12659680Y-12046900D01*
X12692700Y-7611750D02*
X12732700Y-7651750D01*
X12732700Y-7611750D02*
X12692700Y-7651750D01*
X12722910Y-12917090D02*
X12762910Y-12957090D01*
X12762910Y-12917090D02*
X12722910Y-12957090D01*
X12724450Y-8488720D02*
X12764450Y-8528720D01*
X12764450Y-8488720D02*
X12724450Y-8528720D01*
X12743500Y-4234500D02*
X12783500Y-4274500D01*
X12783500Y-4234500D02*
X12743500Y-4274500D01*
X12768900Y-4628200D02*
X12808900Y-4668200D01*
X12808900Y-4628200D02*
X12768900Y-4668200D01*
X12837480Y-9339900D02*
X12877480Y-9379900D01*
X12877480Y-9339900D02*
X12837480Y-9379900D01*
X12852720Y-7622860D02*
X12892720Y-7662860D01*
X12892720Y-7622860D02*
X12852720Y-7662860D01*
X12870500Y-4298000D02*
X12910500Y-4338000D01*
X12910500Y-4298000D02*
X12870500Y-4338000D01*
X12963643Y-12874743D02*
X13003643Y-12914743D01*
X13003643Y-12874743D02*
X12963643Y-12914743D01*
X12984800Y-6766880D02*
X13024800Y-6806880D01*
X13024800Y-6766880D02*
X12984800Y-6806880D01*
X12997500Y-4234500D02*
X13037500Y-4274500D01*
X13037500Y-4234500D02*
X12997500Y-4274500D01*
X13022900Y-4552000D02*
X13062900Y-4592000D01*
X13062900Y-4552000D02*
X13022900Y-4592000D01*
X13068620Y-8707440D02*
X13108620Y-8747440D01*
X13108620Y-8707440D02*
X13068620Y-8747440D01*
X13079126Y-9317386D02*
X13119126Y-9357386D01*
X13119126Y-9317386D02*
X13079126Y-9357386D01*
X13094020Y-11989120D02*
X13134020Y-12029120D01*
X13134020Y-11989120D02*
X13094020Y-12029120D01*
X13124500Y-4298000D02*
X13164500Y-4338000D01*
X13164500Y-4298000D02*
X13124500Y-4338000D01*
X13124500Y-6668050D02*
X13164500Y-6708050D01*
X13164500Y-6668050D02*
X13124500Y-6708050D01*
X13251500Y-4234500D02*
X13291500Y-4274500D01*
X13291500Y-4234500D02*
X13251500Y-4274500D01*
X13260511Y-7294051D02*
X13300511Y-7334051D01*
X13300511Y-7294051D02*
X13260511Y-7334051D01*
X13276900Y-12908600D02*
X13316900Y-12948600D01*
X13316900Y-12908600D02*
X13276900Y-12948600D01*
X13327700Y-13518200D02*
X13367700Y-13558200D01*
X13367700Y-13518200D02*
X13327700Y-13558200D01*
X13335320Y-6505260D02*
X13375320Y-6545260D01*
X13375320Y-6505260D02*
X13335320Y-6545260D01*
X13378500Y-4298000D02*
X13418500Y-4338000D01*
X13418500Y-4298000D02*
X13378500Y-4338000D01*
X13434380Y-11976420D02*
X13474380Y-12016420D01*
X13474380Y-11976420D02*
X13434380Y-12016420D01*
X13505500Y-4234500D02*
X13545500Y-4274500D01*
X13545500Y-4234500D02*
X13505500Y-4274500D01*
X13594400Y-7366320D02*
X13634400Y-7406320D01*
X13634400Y-7366320D02*
X13594400Y-7406320D01*
X13632500Y-4298000D02*
X13672500Y-4338000D01*
X13672500Y-4298000D02*
X13632500Y-4338000D01*
X13657900Y-5437250D02*
X13697900Y-5477250D01*
X13697900Y-5437250D02*
X13657900Y-5477250D01*
X13746800Y-11813860D02*
X13786800Y-11853860D01*
X13786800Y-11813860D02*
X13746800Y-11853860D01*
X13759500Y-4234500D02*
X13799500Y-4274500D01*
X13799500Y-4234500D02*
X13759500Y-4274500D01*
X13886500Y-4298000D02*
X13926500Y-4338000D01*
X13926500Y-4298000D02*
X13886500Y-4338000D01*
X13944920Y-11956100D02*
X13984920Y-11996100D01*
X13984920Y-11956100D02*
X13944920Y-11996100D01*
X14013500Y-4234500D02*
X14053500Y-4274500D01*
X14053500Y-4234500D02*
X14013500Y-4274500D01*
X14140500Y-4298000D02*
X14180500Y-4338000D01*
X14180500Y-4298000D02*
X14140500Y-4338000D01*
X14140500Y-5822000D02*
X14180500Y-5862000D01*
X14180500Y-5822000D02*
X14140500Y-5862000D01*
X14163360Y-7986080D02*
X14203360Y-8026080D01*
X14203360Y-7986080D02*
X14163360Y-8026080D01*
X14267500Y-4234500D02*
X14307500Y-4274500D01*
X14307500Y-4234500D02*
X14267500Y-4274500D01*
X14267500Y-5949000D02*
X14307500Y-5989000D01*
X14307500Y-5949000D02*
X14267500Y-5989000D01*
X14297980Y-11791000D02*
X14337980Y-11831000D01*
X14337980Y-11791000D02*
X14297980Y-11831000D01*
X14336080Y-9471980D02*
X14376080Y-9511980D01*
X14376080Y-9471980D02*
X14336080Y-9511980D01*
X14341160Y-7843840D02*
X14381160Y-7883840D01*
X14381160Y-7843840D02*
X14341160Y-7883840D01*
X14394500Y-4298000D02*
X14434500Y-4338000D01*
X14434500Y-4298000D02*
X14394500Y-4338000D01*
X14394500Y-5822000D02*
X14434500Y-5862000D01*
X14434500Y-5822000D02*
X14394500Y-5862000D01*
X14437680Y-8278180D02*
X14477680Y-8318180D01*
X14477680Y-8278180D02*
X14437680Y-8318180D01*
X14468160Y-8618540D02*
X14508160Y-8658540D01*
X14508160Y-8618540D02*
X14468160Y-8658540D01*
X14488480Y-7968300D02*
X14528480Y-8008300D01*
X14528480Y-7968300D02*
X14488480Y-8008300D01*
X14498640Y-7645720D02*
X14538640Y-7685720D01*
X14538640Y-7645720D02*
X14498640Y-7685720D01*
X14508800Y-9825040D02*
X14548800Y-9865040D01*
X14548800Y-9825040D02*
X14508800Y-9865040D01*
X14518960Y-9510080D02*
X14558960Y-9550080D01*
X14558960Y-9510080D02*
X14518960Y-9550080D01*
X14521500Y-4234500D02*
X14561500Y-4274500D01*
X14561500Y-4234500D02*
X14521500Y-4274500D01*
X14521500Y-4361500D02*
X14561500Y-4401500D01*
X14561500Y-4361500D02*
X14521500Y-4401500D01*
X14521500Y-5949000D02*
X14561500Y-5989000D01*
X14561500Y-5949000D02*
X14521500Y-5989000D01*
X14585000Y-8412800D02*
X14625000Y-8452800D01*
X14625000Y-8412800D02*
X14585000Y-8452800D01*
X14590080Y-10233980D02*
X14630080Y-10273980D01*
X14630080Y-10233980D02*
X14590080Y-10273980D01*
X14595160Y-10566720D02*
X14635160Y-10606720D01*
X14635160Y-10566720D02*
X14595160Y-10606720D01*
X14602780Y-11938320D02*
X14642780Y-11978320D01*
X14642780Y-11938320D02*
X14602780Y-11978320D01*
X14618020Y-7503480D02*
X14658020Y-7543480D01*
X14658020Y-7503480D02*
X14618020Y-7543480D01*
X14625640Y-11486200D02*
X14665640Y-11526200D01*
X14665640Y-11486200D02*
X14625640Y-11526200D01*
X14643420Y-7782880D02*
X14683420Y-7822880D01*
X14683420Y-7782880D02*
X14643420Y-7822880D01*
X14648500Y-4298000D02*
X14688500Y-4338000D01*
X14688500Y-4298000D02*
X14648500Y-4338000D01*
X14648500Y-5568000D02*
X14688500Y-5608000D01*
X14688500Y-5568000D02*
X14648500Y-5608000D01*
X14648500Y-5822000D02*
X14688500Y-5862000D01*
X14688500Y-5822000D02*
X14648500Y-5862000D01*
X14752640Y-8270560D02*
X14792640Y-8310560D01*
X14792640Y-8270560D02*
X14752640Y-8310560D01*
X14765340Y-7965760D02*
X14805340Y-8005760D01*
X14805340Y-7965760D02*
X14765340Y-8005760D01*
X14775500Y-4234500D02*
X14815500Y-4274500D01*
X14815500Y-4234500D02*
X14775500Y-4274500D01*
X14775500Y-4361500D02*
X14815500Y-4401500D01*
X14815500Y-4361500D02*
X14775500Y-4401500D01*
X14775500Y-5695000D02*
X14815500Y-5735000D01*
X14815500Y-5695000D02*
X14775500Y-5735000D01*
X14775500Y-5949000D02*
X14815500Y-5989000D01*
X14815500Y-5949000D02*
X14775500Y-5989000D01*
X14775500Y-8593140D02*
X14815500Y-8633140D01*
X14815500Y-8593140D02*
X14775500Y-8633140D01*
X14775500Y-9672640D02*
X14815500Y-9712640D01*
X14815500Y-9672640D02*
X14775500Y-9712640D01*
X14790740Y-7627940D02*
X14830740Y-7667940D01*
X14830740Y-7627940D02*
X14790740Y-7667940D01*
X14805980Y-11740200D02*
X14845980Y-11780200D01*
X14845980Y-11740200D02*
X14805980Y-11780200D01*
X14831380Y-10432100D02*
X14871380Y-10472100D01*
X14871380Y-10432100D02*
X14831380Y-10472100D01*
X14902500Y-4298000D02*
X14942500Y-4338000D01*
X14942500Y-4298000D02*
X14902500Y-4338000D01*
X14902500Y-5568000D02*
X14942500Y-5608000D01*
X14942500Y-5568000D02*
X14902500Y-5608000D01*
X14902500Y-5822000D02*
X14942500Y-5862000D01*
X14942500Y-5822000D02*
X14902500Y-5862000D01*
X14938060Y-7498400D02*
X14978060Y-7538400D01*
X14978060Y-7498400D02*
X14938060Y-7538400D01*
X14945680Y-7780340D02*
X14985680Y-7820340D01*
X14985680Y-7780340D02*
X14945680Y-7820340D01*
X14945680Y-8410260D02*
X14985680Y-8450260D01*
X14985680Y-8410260D02*
X14945680Y-8450260D01*
X15029500Y-4234500D02*
X15069500Y-4274500D01*
X15069500Y-4234500D02*
X15029500Y-4274500D01*
X15029500Y-4361500D02*
X15069500Y-4401500D01*
X15069500Y-4361500D02*
X15029500Y-4401500D01*
X15029500Y-4488500D02*
X15069500Y-4528500D01*
X15069500Y-4488500D02*
X15029500Y-4528500D01*
X15029500Y-4615500D02*
X15069500Y-4655500D01*
X15069500Y-4615500D02*
X15029500Y-4655500D01*
X15029500Y-4742500D02*
X15069500Y-4782500D01*
X15069500Y-4742500D02*
X15029500Y-4782500D01*
X15029500Y-5441000D02*
X15069500Y-5481000D01*
X15069500Y-5441000D02*
X15029500Y-5481000D01*
X15029500Y-5695000D02*
X15069500Y-5735000D01*
X15069500Y-5695000D02*
X15029500Y-5735000D01*
X15029500Y-5949000D02*
X15069500Y-5989000D01*
X15069500Y-5949000D02*
X15029500Y-5989000D01*
X15034580Y-10543860D02*
X15074580Y-10583860D01*
X15074580Y-10543860D02*
X15034580Y-10583860D01*
X15034580Y-11938320D02*
X15074580Y-11978320D01*
X15074580Y-11938320D02*
X15034580Y-11978320D01*
X15047280Y-10251760D02*
X15087280Y-10291760D01*
X15087280Y-10251760D02*
X15047280Y-10291760D01*
X15070140Y-9497380D02*
X15110140Y-9537380D01*
X15110140Y-9497380D02*
X15070140Y-9537380D01*
X15070140Y-9814880D02*
X15110140Y-9854880D01*
X15110140Y-9814880D02*
X15070140Y-9854880D01*
X15077760Y-7635560D02*
X15117760Y-7675560D01*
X15117760Y-7635560D02*
X15077760Y-7675560D01*
X15085380Y-7945440D02*
X15125380Y-7985440D01*
X15125380Y-7945440D02*
X15085380Y-7985440D01*
X15098080Y-11486200D02*
X15138080Y-11526200D01*
X15138080Y-11486200D02*
X15098080Y-11526200D01*
X15100620Y-8613460D02*
X15140620Y-8653460D01*
X15140620Y-8613460D02*
X15100620Y-8653460D01*
X15110780Y-8268020D02*
X15150780Y-8308020D01*
X15150780Y-8268020D02*
X15110780Y-8308020D01*
X15156500Y-4298000D02*
X15196500Y-4338000D01*
X15196500Y-4298000D02*
X15156500Y-4338000D01*
X15156500Y-4425000D02*
X15196500Y-4465000D01*
X15196500Y-4425000D02*
X15156500Y-4465000D01*
X15156500Y-4552000D02*
X15196500Y-4592000D01*
X15196500Y-4552000D02*
X15156500Y-4592000D01*
X15156500Y-4679000D02*
X15196500Y-4719000D01*
X15196500Y-4679000D02*
X15156500Y-4719000D01*
X15156500Y-4806000D02*
X15196500Y-4846000D01*
X15196500Y-4806000D02*
X15156500Y-4846000D01*
X15156500Y-5314000D02*
X15196500Y-5354000D01*
X15196500Y-5314000D02*
X15156500Y-5354000D01*
X15156500Y-5441000D02*
X15196500Y-5481000D01*
X15196500Y-5441000D02*
X15156500Y-5481000D01*
X15156500Y-5568000D02*
X15196500Y-5608000D01*
X15196500Y-5568000D02*
X15156500Y-5608000D01*
X15156500Y-5822000D02*
X15196500Y-5862000D01*
X15196500Y-5822000D02*
X15156500Y-5862000D01*
X15943900Y-7396800D02*
X15983900Y-7436800D01*
X15983900Y-7396800D02*
X15943900Y-7436800D01*
X16007800Y-7809470D02*
X16047800Y-7849470D01*
X16047800Y-7809470D02*
X16007800Y-7849470D01*
X16164300Y-6324040D02*
X16204300Y-6364040D01*
X16204300Y-6324040D02*
X16164300Y-6364040D01*
X16240000Y-7327580D02*
X16280000Y-7367580D01*
X16280000Y-7327580D02*
X16240000Y-7367580D01*
X16291680Y-6979070D02*
X16331680Y-7019070D01*
X16331680Y-6979070D02*
X16291680Y-7019070D01*
X16477300Y-6126800D02*
X16517300Y-6166800D01*
X16517300Y-6126800D02*
X16477300Y-6166800D01*
X16483500Y-6844750D02*
X16523500Y-6884750D01*
X16523500Y-6844750D02*
X16483500Y-6884750D01*
X16489200Y-7321710D02*
X16529200Y-7361710D01*
X16529200Y-7321710D02*
X16489200Y-7361710D01*
X16490300Y-7160260D02*
X16530300Y-7200260D01*
X16530300Y-7160260D02*
X16490300Y-7200260D01*
X16493890Y-7809470D02*
X16533890Y-7849470D01*
X16533890Y-7809470D02*
X16493890Y-7849470D01*
X16644800Y-6323140D02*
X16684800Y-6363140D01*
X16684800Y-6323140D02*
X16644800Y-6363140D01*
X16655100Y-6838000D02*
X16695100Y-6878000D01*
X16695100Y-6838000D02*
X16655100Y-6878000D01*
X16786700Y-7406000D02*
X16826700Y-7446000D01*
X16826700Y-7406000D02*
X16786700Y-7446000D01*
X17097470Y-7202580D02*
X17137470Y-7242580D01*
X17137470Y-7202580D02*
X17097470Y-7242580D01*
X17193580Y-8776020D02*
X17233580Y-8816020D01*
X17233580Y-8776020D02*
X17193580Y-8816020D01*
X17198660Y-8953820D02*
X17238660Y-8993820D01*
X17238660Y-8953820D02*
X17198660Y-8993820D01*
X17379000Y-8862380D02*
X17419000Y-8902380D01*
X17419000Y-8862380D02*
X17379000Y-8902380D01*
X17478060Y-10368600D02*
X17518060Y-10408600D01*
X17518060Y-10368600D02*
X17478060Y-10408600D01*
X17561880Y-8951280D02*
X17601880Y-8991280D01*
X17601880Y-8951280D02*
X17561880Y-8991280D01*
X17566960Y-8743000D02*
X17606960Y-8783000D01*
X17606960Y-8743000D02*
X17566960Y-8783000D01*
X17734600Y-8862380D02*
X17774600Y-8902380D01*
X17774600Y-8862380D02*
X17734600Y-8902380D01*
X17818420Y-10046020D02*
X17858420Y-10086020D01*
X17858420Y-10046020D02*
X17818420Y-10086020D01*
X17937800Y-8938580D02*
X17977800Y-8978580D01*
X17977800Y-8938580D02*
X17937800Y-8978580D01*
X17942880Y-8773480D02*
X17982880Y-8813480D01*
X17982880Y-8773480D02*
X17942880Y-8813480D01*
X18095280Y-9797100D02*
X18135280Y-9837100D01*
X18135280Y-9797100D02*
X18095280Y-9837100D01*
X18133380Y-10368600D02*
X18173380Y-10408600D01*
X18173380Y-10368600D02*
X18133380Y-10408600D01*
X18161320Y-8854760D02*
X18201320Y-8894760D01*
X18201320Y-8854760D02*
X18161320Y-8894760D01*
D12*
X9570380Y-7154710D02*
G75*
G03*
X9570380Y-7154710I-25000J0D01*
G01*
X9590700Y-4941600D02*
G75*
G03*
X9590700Y-4941600I-25000J0D01*
G01*
X9610190Y-13123710D02*
G75*
G03*
X9610190Y-13123710I-25000J0D01*
G01*
X9622890Y-9003000D02*
G75*
G03*
X9622890Y-9003000I-25000J0D01*
G01*
X9622890Y-11042210D02*
G75*
G03*
X9622890Y-11042210I-25000J0D01*
G01*
X9640674Y-6985004D02*
G75*
G03*
X9640674Y-6985004I-25000J0D01*
G01*
X9640674Y-7324416D02*
G75*
G03*
X9640674Y-7324416I-25000J0D01*
G01*
X9660994Y-4771894D02*
G75*
G03*
X9660994Y-4771894I-25000J0D01*
G01*
X9660994Y-5111306D02*
G75*
G03*
X9660994Y-5111306I-25000J0D01*
G01*
X9680484Y-12954004D02*
G75*
G03*
X9680484Y-12954004I-25000J0D01*
G01*
X9680484Y-13293416D02*
G75*
G03*
X9680484Y-13293416I-25000J0D01*
G01*
X9693184Y-8833294D02*
G75*
G03*
X9693184Y-8833294I-25000J0D01*
G01*
X9693184Y-9172706D02*
G75*
G03*
X9693184Y-9172706I-25000J0D01*
G01*
X9693184Y-10872504D02*
G75*
G03*
X9693184Y-10872504I-25000J0D01*
G01*
X9693184Y-11211916D02*
G75*
G03*
X9693184Y-11211916I-25000J0D01*
G01*
X9810380Y-6914710D02*
G75*
G03*
X9810380Y-6914710I-25000J0D01*
G01*
X9810380Y-7394710D02*
G75*
G03*
X9810380Y-7394710I-25000J0D01*
G01*
X9830700Y-4701600D02*
G75*
G03*
X9830700Y-4701600I-25000J0D01*
G01*
X9830700Y-5181600D02*
G75*
G03*
X9830700Y-5181600I-25000J0D01*
G01*
X9850190Y-12883710D02*
G75*
G03*
X9850190Y-12883710I-25000J0D01*
G01*
X9850190Y-13363710D02*
G75*
G03*
X9850190Y-13363710I-25000J0D01*
G01*
X9862890Y-8763000D02*
G75*
G03*
X9862890Y-8763000I-25000J0D01*
G01*
X9862890Y-9243000D02*
G75*
G03*
X9862890Y-9243000I-25000J0D01*
G01*
X9862890Y-10802210D02*
G75*
G03*
X9862890Y-10802210I-25000J0D01*
G01*
X9862890Y-11282210D02*
G75*
G03*
X9862890Y-11282210I-25000J0D01*
G01*
X9980086Y-6985004D02*
G75*
G03*
X9980086Y-6985004I-25000J0D01*
G01*
X9980086Y-7324416D02*
G75*
G03*
X9980086Y-7324416I-25000J0D01*
G01*
X10000406Y-4771894D02*
G75*
G03*
X10000406Y-4771894I-25000J0D01*
G01*
X10000406Y-5111306D02*
G75*
G03*
X10000406Y-5111306I-25000J0D01*
G01*
X10019896Y-12954004D02*
G75*
G03*
X10019896Y-12954004I-25000J0D01*
G01*
X10019896Y-13293416D02*
G75*
G03*
X10019896Y-13293416I-25000J0D01*
G01*
X10032596Y-8833294D02*
G75*
G03*
X10032596Y-8833294I-25000J0D01*
G01*
X10032596Y-9172706D02*
G75*
G03*
X10032596Y-9172706I-25000J0D01*
G01*
X10032596Y-10872504D02*
G75*
G03*
X10032596Y-10872504I-25000J0D01*
G01*
X10032596Y-11211916D02*
G75*
G03*
X10032596Y-11211916I-25000J0D01*
G01*
X10050380Y-7154710D02*
G75*
G03*
X10050380Y-7154710I-25000J0D01*
G01*
X10070700Y-4941600D02*
G75*
G03*
X10070700Y-4941600I-25000J0D01*
G01*
X10090190Y-13123710D02*
G75*
G03*
X10090190Y-13123710I-25000J0D01*
G01*
X10102890Y-9003000D02*
G75*
G03*
X10102890Y-9003000I-25000J0D01*
G01*
X10102890Y-11042210D02*
G75*
G03*
X10102890Y-11042210I-25000J0D01*
G01*
X14542400Y-9099990D02*
G75*
G03*
X14542400Y-9099990I-25000J0D01*
G01*
X14605900Y-7124700D02*
G75*
G03*
X14605900Y-7124700I-25000J0D01*
G01*
X14605900Y-11012200D02*
G75*
G03*
X14605900Y-11012200I-25000J0D01*
G01*
X14612694Y-8930284D02*
G75*
G03*
X14612694Y-8930284I-25000J0D01*
G01*
X14612694Y-9269696D02*
G75*
G03*
X14612694Y-9269696I-25000J0D01*
G01*
X14631300Y-5068600D02*
G75*
G03*
X14631300Y-5068600I-25000J0D01*
G01*
X14631300Y-13168600D02*
G75*
G03*
X14631300Y-13168600I-25000J0D01*
G01*
X14676194Y-6954994D02*
G75*
G03*
X14676194Y-6954994I-25000J0D01*
G01*
X14676194Y-7294406D02*
G75*
G03*
X14676194Y-7294406I-25000J0D01*
G01*
X14676194Y-10842494D02*
G75*
G03*
X14676194Y-10842494I-25000J0D01*
G01*
X14676194Y-11181906D02*
G75*
G03*
X14676194Y-11181906I-25000J0D01*
G01*
X14701594Y-4898894D02*
G75*
G03*
X14701594Y-4898894I-25000J0D01*
G01*
X14701594Y-5238306D02*
G75*
G03*
X14701594Y-5238306I-25000J0D01*
G01*
X14701594Y-12998894D02*
G75*
G03*
X14701594Y-12998894I-25000J0D01*
G01*
X14701594Y-13338306D02*
G75*
G03*
X14701594Y-13338306I-25000J0D01*
G01*
X14782400Y-8859990D02*
G75*
G03*
X14782400Y-8859990I-25000J0D01*
G01*
X14782400Y-9339990D02*
G75*
G03*
X14782400Y-9339990I-25000J0D01*
G01*
X14845900Y-6884700D02*
G75*
G03*
X14845900Y-6884700I-25000J0D01*
G01*
X14845900Y-7364700D02*
G75*
G03*
X14845900Y-7364700I-25000J0D01*
G01*
X14845900Y-10772200D02*
G75*
G03*
X14845900Y-10772200I-25000J0D01*
G01*
X14845900Y-11252200D02*
G75*
G03*
X14845900Y-11252200I-25000J0D01*
G01*
X14871300Y-4828600D02*
G75*
G03*
X14871300Y-4828600I-25000J0D01*
G01*
X14871300Y-5308600D02*
G75*
G03*
X14871300Y-5308600I-25000J0D01*
G01*
X14871300Y-12928600D02*
G75*
G03*
X14871300Y-12928600I-25000J0D01*
G01*
X14871300Y-13408600D02*
G75*
G03*
X14871300Y-13408600I-25000J0D01*
G01*
X14952106Y-8930284D02*
G75*
G03*
X14952106Y-8930284I-25000J0D01*
G01*
X14952106Y-9269696D02*
G75*
G03*
X14952106Y-9269696I-25000J0D01*
G01*
X15015606Y-6954994D02*
G75*
G03*
X15015606Y-6954994I-25000J0D01*
G01*
X15015606Y-7294406D02*
G75*
G03*
X15015606Y-7294406I-25000J0D01*
G01*
X15015606Y-10842494D02*
G75*
G03*
X15015606Y-10842494I-25000J0D01*
G01*
X15015606Y-11181906D02*
G75*
G03*
X15015606Y-11181906I-25000J0D01*
G01*
X15022400Y-9099990D02*
G75*
G03*
X15022400Y-9099990I-25000J0D01*
G01*
X15041006Y-4898894D02*
G75*
G03*
X15041006Y-4898894I-25000J0D01*
G01*
X15041006Y-5238306D02*
G75*
G03*
X15041006Y-5238306I-25000J0D01*
G01*
X15041006Y-12998894D02*
G75*
G03*
X15041006Y-12998894I-25000J0D01*
G01*
X15041006Y-13338306D02*
G75*
G03*
X15041006Y-13338306I-25000J0D01*
G01*
X15085900Y-7124700D02*
G75*
G03*
X15085900Y-7124700I-25000J0D01*
G01*
X15085900Y-11012200D02*
G75*
G03*
X15085900Y-11012200I-25000J0D01*
G01*
X15111300Y-5068600D02*
G75*
G03*
X15111300Y-5068600I-25000J0D01*
G01*
X15111300Y-13168600D02*
G75*
G03*
X15111300Y-13168600I-25000J0D01*
G01*
X15528390Y-4513110D02*
G75*
G03*
X15528390Y-4513110I-25000J0D01*
G01*
X15553790Y-8653310D02*
G75*
G03*
X15553790Y-8653310I-25000J0D01*
G01*
X15598684Y-4343404D02*
G75*
G03*
X15598684Y-4343404I-25000J0D01*
G01*
X15598684Y-4682816D02*
G75*
G03*
X15598684Y-4682816I-25000J0D01*
G01*
X15624084Y-8483604D02*
G75*
G03*
X15624084Y-8483604I-25000J0D01*
G01*
X15624084Y-8823016D02*
G75*
G03*
X15624084Y-8823016I-25000J0D01*
G01*
X15768390Y-4273110D02*
G75*
G03*
X15768390Y-4273110I-25000J0D01*
G01*
X15768390Y-4753110D02*
G75*
G03*
X15768390Y-4753110I-25000J0D01*
G01*
X15793790Y-8413310D02*
G75*
G03*
X15793790Y-8413310I-25000J0D01*
G01*
X15793790Y-8893310D02*
G75*
G03*
X15793790Y-8893310I-25000J0D01*
G01*
X15938096Y-4343404D02*
G75*
G03*
X15938096Y-4343404I-25000J0D01*
G01*
X15938096Y-4682816D02*
G75*
G03*
X15938096Y-4682816I-25000J0D01*
G01*
X15963496Y-8483604D02*
G75*
G03*
X15963496Y-8483604I-25000J0D01*
G01*
X15963496Y-8823016D02*
G75*
G03*
X15963496Y-8823016I-25000J0D01*
G01*
X16008390Y-4513110D02*
G75*
G03*
X16008390Y-4513110I-25000J0D01*
G01*
X16033790Y-8653310D02*
G75*
G03*
X16033790Y-8653310I-25000J0D01*
G01*
X18441300Y-8646160D02*
G75*
G03*
X18441300Y-8646160I-25000J0D01*
G01*
X18446380Y-4507200D02*
G75*
G03*
X18446380Y-4507200I-25000J0D01*
G01*
X18511594Y-8476454D02*
G75*
G03*
X18511594Y-8476454I-25000J0D01*
G01*
X18511594Y-8815866D02*
G75*
G03*
X18511594Y-8815866I-25000J0D01*
G01*
X18516674Y-4337494D02*
G75*
G03*
X18516674Y-4337494I-25000J0D01*
G01*
X18516674Y-4676906D02*
G75*
G03*
X18516674Y-4676906I-25000J0D01*
G01*
X18681300Y-8406160D02*
G75*
G03*
X18681300Y-8406160I-25000J0D01*
G01*
X18681300Y-8886160D02*
G75*
G03*
X18681300Y-8886160I-25000J0D01*
G01*
X18686380Y-4267200D02*
G75*
G03*
X18686380Y-4267200I-25000J0D01*
G01*
X18686380Y-4747200D02*
G75*
G03*
X18686380Y-4747200I-25000J0D01*
G01*
X18851006Y-8476454D02*
G75*
G03*
X18851006Y-8476454I-25000J0D01*
G01*
X18851006Y-8815866D02*
G75*
G03*
X18851006Y-8815866I-25000J0D01*
G01*
X18856086Y-4337494D02*
G75*
G03*
X18856086Y-4337494I-25000J0D01*
G01*
X18856086Y-4676906D02*
G75*
G03*
X18856086Y-4676906I-25000J0D01*
G01*
X18921300Y-8646160D02*
G75*
G03*
X18921300Y-8646160I-25000J0D01*
G01*
X18926380Y-4507200D02*
G75*
G03*
X18926380Y-4507200I-25000J0D01*
G01*
D13*
X9817100Y-14008100D02*
X9817100Y-14084300D01*
X9779000Y-14046200D02*
X9855200Y-14046200D01*
X10071100Y-14008100D02*
X10071100Y-14084300D01*
X10033000Y-14046200D02*
X10109200Y-14046200D01*
X10325100Y-14008100D02*
X10325100Y-14084300D01*
X10287000Y-14046200D02*
X10363200Y-14046200D01*
X10579100Y-14008100D02*
X10579100Y-14084300D01*
X10541000Y-14046200D02*
X10617200Y-14046200D01*
X10604500Y-10121900D02*
X10604500Y-10198100D01*
X10566400Y-10160000D02*
X10642600Y-10160000D01*
X10629900Y-12026900D02*
X10629900Y-12103100D01*
X10591800Y-12065000D02*
X10668000Y-12065000D01*
X10678160Y-7990840D02*
X10678160Y-8067040D01*
X10640060Y-8028940D02*
X10716260Y-8028940D01*
X10706100Y-9842500D02*
X10706100Y-9918700D01*
X10668000Y-9880600D02*
X10744200Y-9880600D01*
X10833100Y-14008100D02*
X10833100Y-14084300D01*
X10795000Y-14046200D02*
X10871200Y-14046200D01*
X10858500Y-10121900D02*
X10858500Y-10198100D01*
X10820400Y-10160000D02*
X10896600Y-10160000D01*
X10883900Y-12026900D02*
X10883900Y-12103100D01*
X10845800Y-12065000D02*
X10922000Y-12065000D01*
X10932160Y-7990840D02*
X10932160Y-8067040D01*
X10894060Y-8028940D02*
X10970260Y-8028940D01*
X10960100Y-9842500D02*
X10960100Y-9918700D01*
X10922000Y-9880600D02*
X10998200Y-9880600D01*
X11087100Y-14008100D02*
X11087100Y-14084300D01*
X11049000Y-14046200D02*
X11125200Y-14046200D01*
X11112500Y-10121900D02*
X11112500Y-10198100D01*
X11074400Y-10160000D02*
X11150600Y-10160000D01*
X11137900Y-12026900D02*
X11137900Y-12103100D01*
X11099800Y-12065000D02*
X11176000Y-12065000D01*
X11186160Y-7990840D02*
X11186160Y-8067040D01*
X11148060Y-8028940D02*
X11224260Y-8028940D01*
X11214100Y-9842500D02*
X11214100Y-9918700D01*
X11176000Y-9880600D02*
X11252200Y-9880600D01*
X11341100Y-14008100D02*
X11341100Y-14084300D01*
X11303000Y-14046200D02*
X11379200Y-14046200D01*
X11366500Y-10121900D02*
X11366500Y-10198100D01*
X11328400Y-10160000D02*
X11404600Y-10160000D01*
X11391900Y-12026900D02*
X11391900Y-12103100D01*
X11353800Y-12065000D02*
X11430000Y-12065000D01*
X11440160Y-7990840D02*
X11440160Y-8067040D01*
X11402060Y-8028940D02*
X11478260Y-8028940D01*
X11468100Y-9842500D02*
X11468100Y-9918700D01*
X11430000Y-9880600D02*
X11506200Y-9880600D01*
X11518900Y-12280900D02*
X11518900Y-12357100D01*
X11480800Y-12319000D02*
X11557000Y-12319000D01*
X11595100Y-14008100D02*
X11595100Y-14084300D01*
X11557000Y-14046200D02*
X11633200Y-14046200D01*
X11620500Y-10121900D02*
X11620500Y-10198100D01*
X11582400Y-10160000D02*
X11658600Y-10160000D01*
X11645900Y-12026900D02*
X11645900Y-12103100D01*
X11607800Y-12065000D02*
X11684000Y-12065000D01*
X11694160Y-7990840D02*
X11694160Y-8067040D01*
X11656060Y-8028940D02*
X11732260Y-8028940D01*
X11722100Y-9842500D02*
X11722100Y-9918700D01*
X11684000Y-9880600D02*
X11760200Y-9880600D01*
X11772900Y-12280900D02*
X11772900Y-12357100D01*
X11734800Y-12319000D02*
X11811000Y-12319000D01*
X11874500Y-10121900D02*
X11874500Y-10198100D01*
X11836400Y-10160000D02*
X11912600Y-10160000D01*
X11899900Y-12026900D02*
X11899900Y-12103100D01*
X11861800Y-12065000D02*
X11938000Y-12065000D01*
X11948160Y-7990840D02*
X11948160Y-8067040D01*
X11910060Y-8028940D02*
X11986260Y-8028940D01*
X11950700Y-5981700D02*
X11950700Y-6057900D01*
X11912600Y-6019800D02*
X11988800Y-6019800D01*
X11976100Y-9842500D02*
X11976100Y-9918700D01*
X11938000Y-9880600D02*
X12014200Y-9880600D01*
X12026900Y-12280900D02*
X12026900Y-12357100D01*
X11988800Y-12319000D02*
X12065000Y-12319000D01*
X12128500Y-10121900D02*
X12128500Y-10198100D01*
X12090400Y-10160000D02*
X12166600Y-10160000D01*
X12153900Y-12026900D02*
X12153900Y-12103100D01*
X12115800Y-12065000D02*
X12192000Y-12065000D01*
X12202160Y-7990840D02*
X12202160Y-8067040D01*
X12164060Y-8028940D02*
X12240260Y-8028940D01*
X12204700Y-5981700D02*
X12204700Y-6057900D01*
X12166600Y-6019800D02*
X12242800Y-6019800D01*
X12230100Y-9842500D02*
X12230100Y-9918700D01*
X12192000Y-9880600D02*
X12268200Y-9880600D01*
X12280900Y-12280900D02*
X12280900Y-12357100D01*
X12242800Y-12319000D02*
X12319000Y-12319000D01*
X12382500Y-10121900D02*
X12382500Y-10198100D01*
X12344400Y-10160000D02*
X12420600Y-10160000D01*
X12407900Y-12026900D02*
X12407900Y-12103100D01*
X12369800Y-12065000D02*
X12446000Y-12065000D01*
X12456160Y-7990840D02*
X12456160Y-8067040D01*
X12418060Y-8028940D02*
X12494260Y-8028940D01*
X12458700Y-5981700D02*
X12458700Y-6057900D01*
X12420600Y-6019800D02*
X12496800Y-6019800D01*
X12484100Y-9842500D02*
X12484100Y-9918700D01*
X12446000Y-9880600D02*
X12522200Y-9880600D01*
X12534900Y-12280900D02*
X12534900Y-12357100D01*
X12496800Y-12319000D02*
X12573000Y-12319000D01*
X12710160Y-7990840D02*
X12710160Y-8067040D01*
X12672060Y-8028940D02*
X12748260Y-8028940D01*
X12712700Y-5981700D02*
X12712700Y-6057900D01*
X12674600Y-6019800D02*
X12750800Y-6019800D01*
X12738100Y-9842500D02*
X12738100Y-9918700D01*
X12700000Y-9880600D02*
X12776200Y-9880600D01*
X12788900Y-12280900D02*
X12788900Y-12357100D01*
X12750800Y-12319000D02*
X12827000Y-12319000D01*
X12964160Y-7990840D02*
X12964160Y-8067040D01*
X12926060Y-8028940D02*
X13002260Y-8028940D01*
X12966700Y-5981700D02*
X12966700Y-6057900D01*
X12928600Y-6019800D02*
X13004800Y-6019800D01*
X12992100Y-9842500D02*
X12992100Y-9918700D01*
X12954000Y-9880600D02*
X13030200Y-9880600D01*
X13042900Y-12280900D02*
X13042900Y-12357100D01*
X13004800Y-12319000D02*
X13081000Y-12319000D01*
X13218160Y-7990840D02*
X13218160Y-8067040D01*
X13180060Y-8028940D02*
X13256260Y-8028940D01*
X13220700Y-5981700D02*
X13220700Y-6057900D01*
X13182600Y-6019800D02*
X13258800Y-6019800D01*
X13246100Y-9842500D02*
X13246100Y-9918700D01*
X13208000Y-9880600D02*
X13284200Y-9880600D01*
X13296900Y-12280900D02*
X13296900Y-12357100D01*
X13258800Y-12319000D02*
X13335000Y-12319000D01*
X13472160Y-7990840D02*
X13472160Y-8067040D01*
X13434060Y-8028940D02*
X13510260Y-8028940D01*
X13474700Y-5981700D02*
X13474700Y-6057900D01*
X13436600Y-6019800D02*
X13512800Y-6019800D01*
X13500100Y-9842500D02*
X13500100Y-9918700D01*
X13462000Y-9880600D02*
X13538200Y-9880600D01*
X13726160Y-7990840D02*
X13726160Y-8067040D01*
X13688060Y-8028940D02*
X13764260Y-8028940D01*
X13728700Y-5981700D02*
X13728700Y-6057900D01*
X13690600Y-6019800D02*
X13766800Y-6019800D01*
X13754100Y-9842500D02*
X13754100Y-9918700D01*
X13716000Y-9880600D02*
X13792200Y-9880600D01*
X13982700Y-5981700D02*
X13982700Y-6057900D01*
X13944600Y-6019800D02*
X14020800Y-6019800D01*
X14008100Y-9842500D02*
X14008100Y-9918700D01*
X13970000Y-9880600D02*
X14046200Y-9880600D01*
X14262100Y-9842500D02*
X14262100Y-9918700D01*
X14224000Y-9880600D02*
X14300200Y-9880600D01*
X15430500Y-4889500D02*
X15430500Y-4965700D01*
X15392400Y-4927600D02*
X15468600Y-4927600D01*
X15430500Y-5143500D02*
X15430500Y-5219700D01*
X15392400Y-5181600D02*
X15468600Y-5181600D01*
X15430500Y-5397500D02*
X15430500Y-5473700D01*
X15392400Y-5435600D02*
X15468600Y-5435600D01*
X15430500Y-5651500D02*
X15430500Y-5727700D01*
X15392400Y-5689600D02*
X15468600Y-5689600D01*
X15430500Y-5905500D02*
X15430500Y-5981700D01*
X15392400Y-5943600D02*
X15468600Y-5943600D01*
X15430500Y-6159500D02*
X15430500Y-6235700D01*
X15392400Y-6197600D02*
X15468600Y-6197600D01*
X15430500Y-6413500D02*
X15430500Y-6489700D01*
X15392400Y-6451600D02*
X15468600Y-6451600D01*
X15430500Y-6667500D02*
X15430500Y-6743700D01*
X15392400Y-6705600D02*
X15468600Y-6705600D01*
X15430500Y-6921500D02*
X15430500Y-6997700D01*
X15392400Y-6959600D02*
X15468600Y-6959600D01*
X15430500Y-7175500D02*
X15430500Y-7251700D01*
X15392400Y-7213600D02*
X15468600Y-7213600D01*
X15430500Y-7429500D02*
X15430500Y-7505700D01*
X15392400Y-7467600D02*
X15468600Y-7467600D01*
X15430500Y-7683500D02*
X15430500Y-7759700D01*
X15392400Y-7721600D02*
X15468600Y-7721600D01*
X15430500Y-7937500D02*
X15430500Y-8013700D01*
X15392400Y-7975600D02*
X15468600Y-7975600D01*
X15430500Y-8191500D02*
X15430500Y-8267700D01*
X15392400Y-8229600D02*
X15468600Y-8229600D01*
D14*
X9870785Y-5565485D02*
X9870785Y-5508916D01*
X9814216Y-5508916D01*
X9814216Y-5565485D01*
X9870785Y-5565485D01*
X9870785Y-5819484D02*
X9870785Y-5762915D01*
X9814216Y-5762915D01*
X9814216Y-5819484D01*
X9870785Y-5819484D01*
X10124785Y-5565485D02*
X10124785Y-5508916D01*
X10068216Y-5508916D01*
X10068216Y-5565485D01*
X10124785Y-5565485D01*
X10124785Y-5819484D02*
X10124785Y-5762915D01*
X10068216Y-5762915D01*
X10068216Y-5819484D01*
X10124785Y-5819484D01*
X10373705Y-7307924D02*
X10373705Y-7251355D01*
X10317136Y-7251355D01*
X10317136Y-7307924D01*
X10373705Y-7307924D01*
X10373705Y-7561924D02*
X10373705Y-7505355D01*
X10317136Y-7505355D01*
X10317136Y-7561924D01*
X10373705Y-7561924D01*
X10378785Y-5565485D02*
X10378785Y-5508916D01*
X10322216Y-5508916D01*
X10322216Y-5565485D01*
X10378785Y-5565485D01*
X10378785Y-5819484D02*
X10378785Y-5762915D01*
X10322216Y-5762915D01*
X10322216Y-5819484D01*
X10378785Y-5819484D01*
X10439745Y-6998044D02*
X10439745Y-6941475D01*
X10383176Y-6941475D01*
X10383176Y-6998044D01*
X10439745Y-6998044D01*
X10442285Y-8902265D02*
X10442285Y-8845696D01*
X10385716Y-8845696D01*
X10385716Y-8902265D01*
X10442285Y-8902265D01*
X10442285Y-9156265D02*
X10442285Y-9099696D01*
X10385716Y-9099696D01*
X10385716Y-9156265D01*
X10442285Y-9156265D01*
X10505785Y-10964285D02*
X10505785Y-10907716D01*
X10449216Y-10907716D01*
X10449216Y-10964285D01*
X10505785Y-10964285D01*
X10505785Y-11218284D02*
X10505785Y-11161716D01*
X10449216Y-11161716D01*
X10449216Y-11218284D01*
X10505785Y-11218284D01*
X10521025Y-8501725D02*
X10521025Y-8445156D01*
X10464456Y-8445156D01*
X10464456Y-8501725D01*
X10521025Y-8501725D01*
X10627705Y-7307924D02*
X10627705Y-7251355D01*
X10571136Y-7251355D01*
X10571136Y-7307924D01*
X10627705Y-7307924D01*
X10627705Y-7561924D02*
X10627705Y-7505355D01*
X10571136Y-7505355D01*
X10571136Y-7561924D01*
X10627705Y-7561924D01*
X10693745Y-6998044D02*
X10693745Y-6941475D01*
X10637176Y-6941475D01*
X10637176Y-6998044D01*
X10693745Y-6998044D01*
X10696285Y-8902265D02*
X10696285Y-8845696D01*
X10639716Y-8845696D01*
X10639716Y-8902265D01*
X10696285Y-8902265D01*
X10696285Y-9156265D02*
X10696285Y-9099696D01*
X10639716Y-9099696D01*
X10639716Y-9156265D01*
X10696285Y-9156265D01*
X10759785Y-10964285D02*
X10759785Y-10907716D01*
X10703216Y-10907716D01*
X10703216Y-10964285D01*
X10759785Y-10964285D01*
X10759785Y-11218284D02*
X10759785Y-11161716D01*
X10703216Y-11161716D01*
X10703216Y-11218284D01*
X10759785Y-11218284D01*
X10775025Y-8501725D02*
X10775025Y-8445156D01*
X10718456Y-8445156D01*
X10718456Y-8501725D01*
X10775025Y-8501725D01*
X10881705Y-7307924D02*
X10881705Y-7251355D01*
X10825136Y-7251355D01*
X10825136Y-7307924D01*
X10881705Y-7307924D01*
X10881705Y-7561924D02*
X10881705Y-7505355D01*
X10825136Y-7505355D01*
X10825136Y-7561924D01*
X10881705Y-7561924D01*
X10947745Y-6998044D02*
X10947745Y-6941475D01*
X10891176Y-6941475D01*
X10891176Y-6998044D01*
X10947745Y-6998044D01*
X10950285Y-8902265D02*
X10950285Y-8845696D01*
X10893716Y-8845696D01*
X10893716Y-8902265D01*
X10950285Y-8902265D01*
X10950285Y-9156265D02*
X10950285Y-9099696D01*
X10893716Y-9099696D01*
X10893716Y-9156265D01*
X10950285Y-9156265D01*
X11013785Y-10964285D02*
X11013785Y-10907716D01*
X10957216Y-10907716D01*
X10957216Y-10964285D01*
X11013785Y-10964285D01*
X11013785Y-11218284D02*
X11013785Y-11161716D01*
X10957216Y-11161716D01*
X10957216Y-11218284D01*
X11013785Y-11218284D01*
X11029025Y-8501725D02*
X11029025Y-8445156D01*
X10972456Y-8445156D01*
X10972456Y-8501725D01*
X11029025Y-8501725D01*
X12729584Y-13311664D02*
X12729584Y-13255095D01*
X12673015Y-13255095D01*
X12673015Y-13311664D01*
X12729584Y-13311664D01*
X12817184Y-11111605D02*
X12817184Y-11055036D01*
X12760615Y-11055036D01*
X12760615Y-11111605D01*
X12817184Y-11111605D01*
X12983584Y-13311664D02*
X12983584Y-13255095D01*
X12927015Y-13255095D01*
X12927015Y-13311664D01*
X12983584Y-13311664D01*
X13071184Y-11111605D02*
X13071184Y-11055036D01*
X13014615Y-11055036D01*
X13014615Y-11111605D01*
X13071184Y-11111605D01*
X13237584Y-13311664D02*
X13237584Y-13255095D01*
X13181015Y-13255095D01*
X13181015Y-13311664D01*
X13237584Y-13311664D01*
X13325184Y-11111605D02*
X13325184Y-11055036D01*
X13268615Y-11055036D01*
X13268615Y-11111605D01*
X13325184Y-11111605D01*
X13960184Y-13642684D02*
X13960184Y-13586115D01*
X13903615Y-13586115D01*
X13903615Y-13642684D01*
X13960184Y-13642684D01*
X13960184Y-13896684D02*
X13960184Y-13840115D01*
X13903615Y-13840115D01*
X13903615Y-13896684D01*
X13960184Y-13896684D01*
X14214184Y-13642684D02*
X14214184Y-13586115D01*
X14157615Y-13586115D01*
X14157615Y-13642684D01*
X14214184Y-13642684D01*
X14214184Y-13896684D02*
X14214184Y-13840115D01*
X14157615Y-13840115D01*
X14157615Y-13896684D01*
X14214184Y-13896684D01*
X14468184Y-13642684D02*
X14468184Y-13586115D01*
X14411615Y-13586115D01*
X14411615Y-13642684D01*
X14468184Y-13642684D01*
X14468184Y-13896684D02*
X14468184Y-13840115D01*
X14411615Y-13840115D01*
X14411615Y-13896684D01*
X14468184Y-13896684D01*
X16288784Y-8074284D02*
X16288784Y-8017715D01*
X16232215Y-8017715D01*
X16232215Y-8074284D01*
X16288784Y-8074284D01*
X16423984Y-8470285D02*
X16423984Y-8413716D01*
X16367415Y-8413716D01*
X16367415Y-8470285D01*
X16423984Y-8470285D01*
X16423984Y-8724285D02*
X16423984Y-8667716D01*
X16367415Y-8667716D01*
X16367415Y-8724285D01*
X16423984Y-8724285D01*
X16542784Y-8074284D02*
X16542784Y-8017715D01*
X16486215Y-8017715D01*
X16486215Y-8074284D01*
X16542784Y-8074284D01*
X16677984Y-8470285D02*
X16677984Y-8413716D01*
X16621415Y-8413716D01*
X16621415Y-8470285D01*
X16677984Y-8470285D01*
X16677984Y-8724285D02*
X16677984Y-8667716D01*
X16621415Y-8667716D01*
X16621415Y-8724285D01*
X16677984Y-8724285D01*
X16796785Y-8074284D02*
X16796785Y-8017715D01*
X16740215Y-8017715D01*
X16740215Y-8074284D01*
X16796785Y-8074284D01*
X16931985Y-8470285D02*
X16931985Y-8413716D01*
X16875416Y-8413716D01*
X16875416Y-8470285D01*
X16931985Y-8470285D01*
X16931985Y-8724285D02*
X16931985Y-8667716D01*
X16875416Y-8667716D01*
X16875416Y-8724285D01*
X16931985Y-8724285D01*
X17070985Y-12461584D02*
X17070985Y-12405015D01*
X17014416Y-12405015D01*
X17014416Y-12461584D01*
X17070985Y-12461584D01*
X17070985Y-12715584D02*
X17070985Y-12659015D01*
X17014416Y-12659015D01*
X17014416Y-12715584D01*
X17070985Y-12715584D01*
X17070985Y-12969584D02*
X17070985Y-12913015D01*
X17014416Y-12913015D01*
X17014416Y-12969584D01*
X17070985Y-12969584D01*
X17070985Y-13223584D02*
X17070985Y-13167015D01*
X17014416Y-13167015D01*
X17014416Y-13223584D01*
X17070985Y-13223584D01*
X17384105Y-4554565D02*
X17384105Y-4497996D01*
X17327536Y-4497996D01*
X17327536Y-4554565D01*
X17384105Y-4554565D01*
X17384105Y-4808565D02*
X17384105Y-4751996D01*
X17327536Y-4751996D01*
X17327536Y-4808565D01*
X17384105Y-4808565D01*
X17384105Y-5062565D02*
X17384105Y-5005996D01*
X17327536Y-5005996D01*
X17327536Y-5062565D01*
X17384105Y-5062565D01*
X17384105Y-5316565D02*
X17384105Y-5259996D01*
X17327536Y-5259996D01*
X17327536Y-5316565D01*
X17384105Y-5316565D01*
X17384105Y-5570565D02*
X17384105Y-5513996D01*
X17327536Y-5513996D01*
X17327536Y-5570565D01*
X17384105Y-5570565D01*
X17384105Y-5824564D02*
X17384105Y-5767995D01*
X17327536Y-5767995D01*
X17327536Y-5824564D01*
X17384105Y-5824564D01*
X17384105Y-6078564D02*
X17384105Y-6021995D01*
X17327536Y-6021995D01*
X17327536Y-6078564D01*
X17384105Y-6078564D01*
X17384105Y-6332564D02*
X17384105Y-6275995D01*
X17327536Y-6275995D01*
X17327536Y-6332564D01*
X17384105Y-6332564D01*
X17384105Y-6840564D02*
X17384105Y-6783995D01*
X17327536Y-6783995D01*
X17327536Y-6840564D01*
X17384105Y-6840564D01*
X17384105Y-7094564D02*
X17384105Y-7037995D01*
X17327536Y-7037995D01*
X17327536Y-7094564D01*
X17384105Y-7094564D01*
X17384105Y-7348564D02*
X17384105Y-7291995D01*
X17327536Y-7291995D01*
X17327536Y-7348564D01*
X17384105Y-7348564D01*
X17384105Y-7602564D02*
X17384105Y-7545995D01*
X17327536Y-7545995D01*
X17327536Y-7602564D01*
X17384105Y-7602564D01*
X17384105Y-7856564D02*
X17384105Y-7799995D01*
X17327536Y-7799995D01*
X17327536Y-7856564D01*
X17384105Y-7856564D01*
X17384105Y-8110564D02*
X17384105Y-8053995D01*
X17327536Y-8053995D01*
X17327536Y-8110564D01*
X17384105Y-8110564D01*
X17384105Y-8364564D02*
X17384105Y-8307995D01*
X17327536Y-8307995D01*
X17327536Y-8364564D01*
X17384105Y-8364564D01*
X17384105Y-8618565D02*
X17384105Y-8561996D01*
X17327536Y-8561996D01*
X17327536Y-8618565D01*
X17384105Y-8618565D01*
X17832985Y-12461584D02*
X17832985Y-12405015D01*
X17776416Y-12405015D01*
X17776416Y-12461584D01*
X17832985Y-12461584D01*
X17832985Y-12715584D02*
X17832985Y-12659015D01*
X17776416Y-12659015D01*
X17776416Y-12715584D01*
X17832985Y-12715584D01*
X17832985Y-12969584D02*
X17832985Y-12913015D01*
X17776416Y-12913015D01*
X17776416Y-12969584D01*
X17832985Y-12969584D01*
X17832985Y-13223584D02*
X17832985Y-13167015D01*
X17776416Y-13167015D01*
X17776416Y-13223584D01*
X17832985Y-13223584D01*
X18146105Y-4554565D02*
X18146105Y-4497996D01*
X18089536Y-4497996D01*
X18089536Y-4554565D01*
X18146105Y-4554565D01*
X18146105Y-4808565D02*
X18146105Y-4751996D01*
X18089536Y-4751996D01*
X18089536Y-4808565D01*
X18146105Y-4808565D01*
X18146105Y-5062565D02*
X18146105Y-5005996D01*
X18089536Y-5005996D01*
X18089536Y-5062565D01*
X18146105Y-5062565D01*
X18146105Y-5316565D02*
X18146105Y-5259996D01*
X18089536Y-5259996D01*
X18089536Y-5316565D01*
X18146105Y-5316565D01*
X18146105Y-5570565D02*
X18146105Y-5513996D01*
X18089536Y-5513996D01*
X18089536Y-5570565D01*
X18146105Y-5570565D01*
X18146105Y-5824564D02*
X18146105Y-5767995D01*
X18089536Y-5767995D01*
X18089536Y-5824564D01*
X18146105Y-5824564D01*
X18146105Y-6078564D02*
X18146105Y-6021995D01*
X18089536Y-6021995D01*
X18089536Y-6078564D01*
X18146105Y-6078564D01*
X18146105Y-6332564D02*
X18146105Y-6275995D01*
X18089536Y-6275995D01*
X18089536Y-6332564D01*
X18146105Y-6332564D01*
X18146105Y-6840564D02*
X18146105Y-6783995D01*
X18089536Y-6783995D01*
X18089536Y-6840564D01*
X18146105Y-6840564D01*
X18146105Y-7094564D02*
X18146105Y-7037995D01*
X18089536Y-7037995D01*
X18089536Y-7094564D01*
X18146105Y-7094564D01*
X18146105Y-7348564D02*
X18146105Y-7291995D01*
X18089536Y-7291995D01*
X18089536Y-7348564D01*
X18146105Y-7348564D01*
X18146105Y-7602564D02*
X18146105Y-7545995D01*
X18089536Y-7545995D01*
X18089536Y-7602564D01*
X18146105Y-7602564D01*
X18146105Y-7856564D02*
X18146105Y-7799995D01*
X18089536Y-7799995D01*
X18089536Y-7856564D01*
X18146105Y-7856564D01*
X18146105Y-8110564D02*
X18146105Y-8053995D01*
X18089536Y-8053995D01*
X18089536Y-8110564D01*
X18146105Y-8110564D01*
X18146105Y-8364564D02*
X18146105Y-8307995D01*
X18089536Y-8307995D01*
X18089536Y-8364564D01*
X18146105Y-8364564D01*
X18146105Y-8618565D02*
X18146105Y-8561996D01*
X18089536Y-8561996D01*
X18089536Y-8618565D01*
X18146105Y-8618565D01*
D15*
X12502710Y-4939500D02*
X12552710Y-4889500D01*
X12502710Y-4839500D01*
X12452710Y-4889500D01*
X12502710Y-4939500D01*
X12502710Y-5384000D02*
X12552710Y-5334000D01*
X12502710Y-5284000D01*
X12452710Y-5334000D01*
X12502710Y-5384000D01*
X12560300Y-6819100D02*
X12610300Y-6769100D01*
X12560300Y-6719100D01*
X12510300Y-6769100D01*
X12560300Y-6819100D01*
X12585700Y-7466800D02*
X12635700Y-7416800D01*
X12585700Y-7366800D01*
X12535700Y-7416800D01*
X12585700Y-7466800D01*
X12599700Y-12779660D02*
X12649700Y-12729660D01*
X12599700Y-12679660D01*
X12549700Y-12729660D01*
X12599700Y-12779660D01*
X12634500Y-8698660D02*
X12684500Y-8648660D01*
X12634500Y-8598660D01*
X12584500Y-8648660D01*
X12634500Y-8698660D01*
X12682220Y-10556740D02*
X12732220Y-10506740D01*
X12682220Y-10456740D01*
X12632220Y-10506740D01*
X12682220Y-10556740D01*
X12756710Y-4939500D02*
X12806710Y-4889500D01*
X12756710Y-4839500D01*
X12706710Y-4889500D01*
X12756710Y-4939500D01*
X12756710Y-5384000D02*
X12806710Y-5334000D01*
X12756710Y-5284000D01*
X12706710Y-5334000D01*
X12756710Y-5384000D01*
X12814300Y-6819100D02*
X12864300Y-6769100D01*
X12814300Y-6719100D01*
X12764300Y-6769100D01*
X12814300Y-6819100D01*
X12839700Y-7466800D02*
X12889700Y-7416800D01*
X12839700Y-7366800D01*
X12789700Y-7416800D01*
X12839700Y-7466800D01*
X12853700Y-12779660D02*
X12903700Y-12729660D01*
X12853700Y-12679660D01*
X12803700Y-12729660D01*
X12853700Y-12779660D01*
X12888500Y-8698660D02*
X12938500Y-8648660D01*
X12888500Y-8598660D01*
X12838500Y-8648660D01*
X12888500Y-8698660D01*
X12936220Y-10556740D02*
X12986220Y-10506740D01*
X12936220Y-10456740D01*
X12886220Y-10506740D01*
X12936220Y-10556740D01*
X13010710Y-4939500D02*
X13060710Y-4889500D01*
X13010710Y-4839500D01*
X12960710Y-4889500D01*
X13010710Y-4939500D01*
X13010710Y-5384000D02*
X13060710Y-5334000D01*
X13010710Y-5284000D01*
X12960710Y-5334000D01*
X13010710Y-5384000D01*
X13264710Y-4939500D02*
X13314710Y-4889500D01*
X13264710Y-4839500D01*
X13214710Y-4889500D01*
X13264710Y-4939500D01*
X13264710Y-5384000D02*
X13314710Y-5334000D01*
X13264710Y-5284000D01*
X13214710Y-5334000D01*
X13264710Y-5384000D01*
X13332460Y-8599640D02*
X13382460Y-8549640D01*
X13332460Y-8499640D01*
X13282460Y-8549640D01*
X13332460Y-8599640D01*
X13332460Y-8853640D02*
X13382460Y-8803640D01*
X13332460Y-8753640D01*
X13282460Y-8803640D01*
X13332460Y-8853640D01*
X13332460Y-9107640D02*
X13382460Y-9057640D01*
X13332460Y-9007640D01*
X13282460Y-9057640D01*
X13332460Y-9107640D01*
X13332460Y-9361640D02*
X13382460Y-9311640D01*
X13332460Y-9261640D01*
X13282460Y-9311640D01*
X13332460Y-9361640D01*
X13469620Y-6787080D02*
X13519620Y-6737080D01*
X13469620Y-6687080D01*
X13419620Y-6737080D01*
X13469620Y-6787080D01*
X13469620Y-7041080D02*
X13519620Y-6991080D01*
X13469620Y-6941080D01*
X13419620Y-6991080D01*
X13469620Y-7041080D01*
X13469620Y-7295080D02*
X13519620Y-7245080D01*
X13469620Y-7195080D01*
X13419620Y-7245080D01*
X13469620Y-7295080D01*
X13469620Y-7549080D02*
X13519620Y-7499080D01*
X13469620Y-7449080D01*
X13419620Y-7499080D01*
X13469620Y-7549080D01*
X13518710Y-4939500D02*
X13568710Y-4889500D01*
X13518710Y-4839500D01*
X13468710Y-4889500D01*
X13518710Y-4939500D01*
X13518710Y-5384000D02*
X13568710Y-5334000D01*
X13518710Y-5284000D01*
X13468710Y-5334000D01*
X13518710Y-5384000D01*
X13568500Y-10528300D02*
X13618500Y-10478300D01*
X13568500Y-10428300D01*
X13518500Y-10478300D01*
X13568500Y-10528300D01*
X13568500Y-10782300D02*
X13618500Y-10732300D01*
X13568500Y-10682300D01*
X13518500Y-10732300D01*
X13568500Y-10782300D01*
X13601700Y-12519900D02*
X13651700Y-12469900D01*
X13601700Y-12419900D01*
X13551700Y-12469900D01*
X13601700Y-12519900D01*
X13601700Y-12773900D02*
X13651700Y-12723900D01*
X13601700Y-12673900D01*
X13551700Y-12723900D01*
X13601700Y-12773900D01*
X13772710Y-4939500D02*
X13822710Y-4889500D01*
X13772710Y-4839500D01*
X13722710Y-4889500D01*
X13772710Y-4939500D01*
X13772710Y-5384000D02*
X13822710Y-5334000D01*
X13772710Y-5284000D01*
X13722710Y-5334000D01*
X13772710Y-5384000D01*
X13931900Y-10528800D02*
X13981900Y-10478800D01*
X13931900Y-10428800D01*
X13881900Y-10478800D01*
X13931900Y-10528800D01*
X13931900Y-10782800D02*
X13981900Y-10732800D01*
X13931900Y-10682800D01*
X13881900Y-10732800D01*
X13931900Y-10782800D01*
X13931900Y-11036800D02*
X13981900Y-10986800D01*
X13931900Y-10936800D01*
X13881900Y-10986800D01*
X13931900Y-11036800D01*
X13931900Y-11290800D02*
X13981900Y-11240800D01*
X13931900Y-11190800D01*
X13881900Y-11240800D01*
X13931900Y-11290800D01*
X13982700Y-12521400D02*
X14032700Y-12471400D01*
X13982700Y-12421400D01*
X13932700Y-12471400D01*
X13982700Y-12521400D01*
X13982700Y-12775400D02*
X14032700Y-12725400D01*
X13982700Y-12675400D01*
X13932700Y-12725400D01*
X13982700Y-12775400D01*
X13982700Y-13029400D02*
X14032700Y-12979400D01*
X13982700Y-12929400D01*
X13932700Y-12979400D01*
X13982700Y-13029400D01*
X13982700Y-13283400D02*
X14032700Y-13233400D01*
X13982700Y-13183400D01*
X13932700Y-13233400D01*
X13982700Y-13283400D01*
X14026710Y-4939500D02*
X14076710Y-4889500D01*
X14026710Y-4839500D01*
X13976710Y-4889500D01*
X14026710Y-4939500D01*
X14026710Y-5384000D02*
X14076710Y-5334000D01*
X14026710Y-5284000D01*
X13976710Y-5334000D01*
X14026710Y-5384000D01*
X14075060Y-8591040D02*
X14125060Y-8541040D01*
X14075060Y-8491040D01*
X14025060Y-8541040D01*
X14075060Y-8591040D01*
X14075060Y-8845040D02*
X14125060Y-8795040D01*
X14075060Y-8745040D01*
X14025060Y-8795040D01*
X14075060Y-8845040D01*
X14075060Y-9099040D02*
X14125060Y-9049040D01*
X14075060Y-8999040D01*
X14025060Y-9049040D01*
X14075060Y-9099040D01*
X14075060Y-9353040D02*
X14125060Y-9303040D01*
X14075060Y-9253040D01*
X14025060Y-9303040D01*
X14075060Y-9353040D01*
X14096760Y-6785160D02*
X14146760Y-6735160D01*
X14096760Y-6685160D01*
X14046760Y-6735160D01*
X14096760Y-6785160D01*
X14096760Y-7039160D02*
X14146760Y-6989160D01*
X14096760Y-6939160D01*
X14046760Y-6989160D01*
X14096760Y-7039160D01*
X14096760Y-7293160D02*
X14146760Y-7243160D01*
X14096760Y-7193160D01*
X14046760Y-7243160D01*
X14096760Y-7293160D01*
X14096760Y-7547160D02*
X14146760Y-7497160D01*
X14096760Y-7447160D01*
X14046760Y-7497160D01*
X14096760Y-7547160D01*
X14280710Y-4939500D02*
X14330710Y-4889500D01*
X14280710Y-4839500D01*
X14230710Y-4889500D01*
X14280710Y-4939500D01*
X14280710Y-5384000D02*
X14330710Y-5334000D01*
X14280710Y-5284000D01*
X14230710Y-5334000D01*
X14280710Y-5384000D01*
X15582900Y-9473400D02*
X15632900Y-9423400D01*
X15582900Y-9373400D01*
X15532900Y-9423400D01*
X15582900Y-9473400D01*
X15582900Y-9727400D02*
X15632900Y-9677400D01*
X15582900Y-9627400D01*
X15532900Y-9677400D01*
X15582900Y-9727400D01*
X15582900Y-9981400D02*
X15632900Y-9931400D01*
X15582900Y-9881400D01*
X15532900Y-9931400D01*
X15582900Y-9981400D01*
X15582900Y-10235400D02*
X15632900Y-10185400D01*
X15582900Y-10135400D01*
X15532900Y-10185400D01*
X15582900Y-10235400D01*
X15582900Y-10489400D02*
X15632900Y-10439400D01*
X15582900Y-10389400D01*
X15532900Y-10439400D01*
X15582900Y-10489400D01*
X15582900Y-10743400D02*
X15632900Y-10693400D01*
X15582900Y-10643400D01*
X15532900Y-10693400D01*
X15582900Y-10743400D01*
X15582900Y-10997400D02*
X15632900Y-10947400D01*
X15582900Y-10897400D01*
X15532900Y-10947400D01*
X15582900Y-10997400D01*
X15582900Y-11251400D02*
X15632900Y-11201400D01*
X15582900Y-11151400D01*
X15532900Y-11201400D01*
X15582900Y-11251400D01*
X15582900Y-11505400D02*
X15632900Y-11455400D01*
X15582900Y-11405400D01*
X15532900Y-11455400D01*
X15582900Y-11505400D01*
X15582900Y-11759400D02*
X15632900Y-11709400D01*
X15582900Y-11659400D01*
X15532900Y-11709400D01*
X15582900Y-11759400D01*
X15582900Y-12013400D02*
X15632900Y-11963400D01*
X15582900Y-11913400D01*
X15532900Y-11963400D01*
X15582900Y-12013400D01*
X15582900Y-12267400D02*
X15632900Y-12217400D01*
X15582900Y-12167400D01*
X15532900Y-12217400D01*
X15582900Y-12267400D01*
X15582900Y-12521400D02*
X15632900Y-12471400D01*
X15582900Y-12421400D01*
X15532900Y-12471400D01*
X15582900Y-12521400D01*
X15582900Y-12775400D02*
X15632900Y-12725400D01*
X15582900Y-12675400D01*
X15532900Y-12725400D01*
X15582900Y-12775400D01*
X15582900Y-13029400D02*
X15632900Y-12979400D01*
X15582900Y-12929400D01*
X15532900Y-12979400D01*
X15582900Y-13029400D01*
X15582900Y-13283400D02*
X15632900Y-13233400D01*
X15582900Y-13183400D01*
X15532900Y-13233400D01*
X15582900Y-13283400D01*
X15582900Y-13537400D02*
X15632900Y-13487400D01*
X15582900Y-13437400D01*
X15532900Y-13487400D01*
X15582900Y-13537400D01*
X15582900Y-13791400D02*
X15632900Y-13741400D01*
X15582900Y-13691400D01*
X15532900Y-13741400D01*
X15582900Y-13791400D01*
X15582900Y-14045400D02*
X15632900Y-13995400D01*
X15582900Y-13945400D01*
X15532900Y-13995400D01*
X15582900Y-14045400D01*
X16118300Y-5831040D02*
X16168300Y-5781040D01*
X16118300Y-5731040D01*
X16068300Y-5781040D01*
X16118300Y-5831040D01*
X16268700Y-4489920D02*
X16318700Y-4439920D01*
X16268700Y-4389920D01*
X16218700Y-4439920D01*
X16268700Y-4489920D01*
X16319500Y-4850600D02*
X16369500Y-4800600D01*
X16319500Y-4750600D01*
X16269500Y-4800600D01*
X16319500Y-4850600D01*
X16522700Y-4489920D02*
X16572700Y-4439920D01*
X16522700Y-4389920D01*
X16472700Y-4439920D01*
X16522700Y-4489920D01*
X16573500Y-4850600D02*
X16623500Y-4800600D01*
X16573500Y-4750600D01*
X16523500Y-4800600D01*
X16573500Y-4850600D01*
X16636300Y-12711900D02*
X16686300Y-12661900D01*
X16636300Y-12611900D01*
X16586300Y-12661900D01*
X16636300Y-12711900D01*
X16636300Y-12965900D02*
X16686300Y-12915900D01*
X16636300Y-12865900D01*
X16586300Y-12915900D01*
X16636300Y-12965900D01*
X16636300Y-13219900D02*
X16686300Y-13169900D01*
X16636300Y-13119900D01*
X16586300Y-13169900D01*
X16636300Y-13219900D01*
X16636300Y-13473900D02*
X16686300Y-13423900D01*
X16636300Y-13373900D01*
X16586300Y-13423900D01*
X16636300Y-13473900D01*
X16776700Y-4489920D02*
X16826700Y-4439920D01*
X16776700Y-4389920D01*
X16726700Y-4439920D01*
X16776700Y-4489920D01*
X16878300Y-5831040D02*
X16928300Y-5781040D01*
X16878300Y-5731040D01*
X16828300Y-5781040D01*
X16878300Y-5831040D01*
X17030700Y-4489920D02*
X17080700Y-4439920D01*
X17030700Y-4389920D01*
X16980700Y-4439920D01*
X17030700Y-4489920D01*
X18783300Y-9473400D02*
X18833300Y-9423400D01*
X18783300Y-9373400D01*
X18733300Y-9423400D01*
X18783300Y-9473400D01*
X18783300Y-9727400D02*
X18833300Y-9677400D01*
X18783300Y-9627400D01*
X18733300Y-9677400D01*
X18783300Y-9727400D01*
X18783300Y-9981400D02*
X18833300Y-9931400D01*
X18783300Y-9881400D01*
X18733300Y-9931400D01*
X18783300Y-9981400D01*
X18783300Y-10235400D02*
X18833300Y-10185400D01*
X18783300Y-10135400D01*
X18733300Y-10185400D01*
X18783300Y-10235400D01*
X18783300Y-10489400D02*
X18833300Y-10439400D01*
X18783300Y-10389400D01*
X18733300Y-10439400D01*
X18783300Y-10489400D01*
X18783300Y-10743400D02*
X18833300Y-10693400D01*
X18783300Y-10643400D01*
X18733300Y-10693400D01*
X18783300Y-10743400D01*
X18783300Y-10997400D02*
X18833300Y-10947400D01*
X18783300Y-10897400D01*
X18733300Y-10947400D01*
X18783300Y-10997400D01*
X18783300Y-11251400D02*
X18833300Y-11201400D01*
X18783300Y-11151400D01*
X18733300Y-11201400D01*
X18783300Y-11251400D01*
X18783300Y-11505400D02*
X18833300Y-11455400D01*
X18783300Y-11405400D01*
X18733300Y-11455400D01*
X18783300Y-11505400D01*
X18783300Y-11759400D02*
X18833300Y-11709400D01*
X18783300Y-11659400D01*
X18733300Y-11709400D01*
X18783300Y-11759400D01*
X18783300Y-12013400D02*
X18833300Y-11963400D01*
X18783300Y-11913400D01*
X18733300Y-11963400D01*
X18783300Y-12013400D01*
X18783300Y-12267400D02*
X18833300Y-12217400D01*
X18783300Y-12167400D01*
X18733300Y-12217400D01*
X18783300Y-12267400D01*
X18783300Y-12521400D02*
X18833300Y-12471400D01*
X18783300Y-12421400D01*
X18733300Y-12471400D01*
X18783300Y-12521400D01*
X18783300Y-12775400D02*
X18833300Y-12725400D01*
X18783300Y-12675400D01*
X18733300Y-12725400D01*
X18783300Y-12775400D01*
X18783300Y-13029400D02*
X18833300Y-12979400D01*
X18783300Y-12929400D01*
X18733300Y-12979400D01*
X18783300Y-13029400D01*
X18783300Y-13283400D02*
X18833300Y-13233400D01*
X18783300Y-13183400D01*
X18733300Y-13233400D01*
X18783300Y-13283400D01*
X18783300Y-13537400D02*
X18833300Y-13487400D01*
X18783300Y-13437400D01*
X18733300Y-13487400D01*
X18783300Y-13537400D01*
X18783300Y-13791400D02*
X18833300Y-13741400D01*
X18783300Y-13691400D01*
X18733300Y-13741400D01*
X18783300Y-13791400D01*
X18783300Y-14045400D02*
X18833300Y-13995400D01*
X18783300Y-13945400D01*
X18733300Y-13995400D01*
X18783300Y-14045400D01*
X18818500Y-5104600D02*
X18868500Y-5054600D01*
X18818500Y-5004600D01*
X18768500Y-5054600D01*
X18818500Y-5104600D01*
X18818500Y-5358600D02*
X18868500Y-5308600D01*
X18818500Y-5258600D01*
X18768500Y-5308600D01*
X18818500Y-5358600D01*
X18818500Y-5612600D02*
X18868500Y-5562600D01*
X18818500Y-5512600D01*
X18768500Y-5562600D01*
X18818500Y-5612600D01*
X18818500Y-5866600D02*
X18868500Y-5816600D01*
X18818500Y-5766600D01*
X18768500Y-5816600D01*
X18818500Y-5866600D01*
X18818500Y-6120600D02*
X18868500Y-6070600D01*
X18818500Y-6020600D01*
X18768500Y-6070600D01*
X18818500Y-6120600D01*
X18818500Y-6374600D02*
X18868500Y-6324600D01*
X18818500Y-6274600D01*
X18768500Y-6324600D01*
X18818500Y-6374600D01*
X18818500Y-6628600D02*
X18868500Y-6578600D01*
X18818500Y-6528600D01*
X18768500Y-6578600D01*
X18818500Y-6628600D01*
X18818500Y-6882600D02*
X18868500Y-6832600D01*
X18818500Y-6782600D01*
X18768500Y-6832600D01*
X18818500Y-6882600D01*
X18818500Y-7136600D02*
X18868500Y-7086600D01*
X18818500Y-7036600D01*
X18768500Y-7086600D01*
X18818500Y-7136600D01*
X18818500Y-7390600D02*
X18868500Y-7340600D01*
X18818500Y-7290600D01*
X18768500Y-7340600D01*
X18818500Y-7390600D01*
X18818500Y-7644600D02*
X18868500Y-7594600D01*
X18818500Y-7544600D01*
X18768500Y-7594600D01*
X18818500Y-7644600D01*
X18818500Y-7898600D02*
X18868500Y-7848600D01*
X18818500Y-7798600D01*
X18768500Y-7848600D01*
X18818500Y-7898600D01*
X18818500Y-8152600D02*
X18868500Y-8102600D01*
X18818500Y-8052600D01*
X18768500Y-8102600D01*
X18818500Y-8152600D01*
D16*
X15862100Y-9372400D02*
X15964100Y-9474400D01*
X15964100Y-9372400D02*
X15862100Y-9474400D01*
X15964100Y-9423400D02*
G75*
G03*
X15964100Y-9423400I-51000J0D01*
G01*
X15862100Y-9626400D02*
X15964100Y-9728400D01*
X15964100Y-9626400D02*
X15862100Y-9728400D01*
X15964100Y-9677400D02*
G75*
G03*
X15964100Y-9677400I-51000J0D01*
G01*
X15862100Y-9880400D02*
X15964100Y-9982400D01*
X15964100Y-9880400D02*
X15862100Y-9982400D01*
X15964100Y-9931400D02*
G75*
G03*
X15964100Y-9931400I-51000J0D01*
G01*
X15862100Y-10134400D02*
X15964100Y-10236400D01*
X15964100Y-10134400D02*
X15862100Y-10236400D01*
X15964100Y-10185400D02*
G75*
G03*
X15964100Y-10185400I-51000J0D01*
G01*
X15862100Y-10388400D02*
X15964100Y-10490400D01*
X15964100Y-10388400D02*
X15862100Y-10490400D01*
X15964100Y-10439400D02*
G75*
G03*
X15964100Y-10439400I-51000J0D01*
G01*
X15862100Y-10642400D02*
X15964100Y-10744400D01*
X15964100Y-10642400D02*
X15862100Y-10744400D01*
X15964100Y-10693400D02*
G75*
G03*
X15964100Y-10693400I-51000J0D01*
G01*
X15862100Y-10896400D02*
X15964100Y-10998400D01*
X15964100Y-10896400D02*
X15862100Y-10998400D01*
X15964100Y-10947400D02*
G75*
G03*
X15964100Y-10947400I-51000J0D01*
G01*
X15862100Y-11150400D02*
X15964100Y-11252400D01*
X15964100Y-11150400D02*
X15862100Y-11252400D01*
X15964100Y-11201400D02*
G75*
G03*
X15964100Y-11201400I-51000J0D01*
G01*
X15862100Y-11404400D02*
X15964100Y-11506400D01*
X15964100Y-11404400D02*
X15862100Y-11506400D01*
X15964100Y-11455400D02*
G75*
G03*
X15964100Y-11455400I-51000J0D01*
G01*
X15862100Y-11658400D02*
X15964100Y-11760400D01*
X15964100Y-11658400D02*
X15862100Y-11760400D01*
X15964100Y-11709400D02*
G75*
G03*
X15964100Y-11709400I-51000J0D01*
G01*
X15862100Y-11912400D02*
X15964100Y-12014400D01*
X15964100Y-11912400D02*
X15862100Y-12014400D01*
X15964100Y-11963400D02*
G75*
G03*
X15964100Y-11963400I-51000J0D01*
G01*
X15862100Y-12166400D02*
X15964100Y-12268400D01*
X15964100Y-12166400D02*
X15862100Y-12268400D01*
X15964100Y-12217400D02*
G75*
G03*
X15964100Y-12217400I-51000J0D01*
G01*
X15862100Y-12420400D02*
X15964100Y-12522400D01*
X15964100Y-12420400D02*
X15862100Y-12522400D01*
X15964100Y-12471400D02*
G75*
G03*
X15964100Y-12471400I-51000J0D01*
G01*
X15862100Y-12674400D02*
X15964100Y-12776400D01*
X15964100Y-12674400D02*
X15862100Y-12776400D01*
X15964100Y-12725400D02*
G75*
G03*
X15964100Y-12725400I-51000J0D01*
G01*
X15862100Y-12928400D02*
X15964100Y-13030400D01*
X15964100Y-12928400D02*
X15862100Y-13030400D01*
X15964100Y-12979400D02*
G75*
G03*
X15964100Y-12979400I-51000J0D01*
G01*
X15862100Y-13182400D02*
X15964100Y-13284400D01*
X15964100Y-13182400D02*
X15862100Y-13284400D01*
X15964100Y-13233400D02*
G75*
G03*
X15964100Y-13233400I-51000J0D01*
G01*
X15862100Y-13436400D02*
X15964100Y-13538400D01*
X15964100Y-13436400D02*
X15862100Y-13538400D01*
X15964100Y-13487400D02*
G75*
G03*
X15964100Y-13487400I-51000J0D01*
G01*
X15862100Y-13690400D02*
X15964100Y-13792400D01*
X15964100Y-13690400D02*
X15862100Y-13792400D01*
X15964100Y-13741400D02*
G75*
G03*
X15964100Y-13741400I-51000J0D01*
G01*
X15862100Y-13944400D02*
X15964100Y-14046400D01*
X15964100Y-13944400D02*
X15862100Y-14046400D01*
X15964100Y-13995400D02*
G75*
G03*
X15964100Y-13995400I-51000J0D01*
G01*
X18402100Y-9372400D02*
X18504100Y-9474400D01*
X18504100Y-9372400D02*
X18402100Y-9474400D01*
X18504100Y-9423400D02*
G75*
G03*
X18504100Y-9423400I-51000J0D01*
G01*
X18402100Y-9626400D02*
X18504100Y-9728400D01*
X18504100Y-9626400D02*
X18402100Y-9728400D01*
X18504100Y-9677400D02*
G75*
G03*
X18504100Y-9677400I-51000J0D01*
G01*
X18402100Y-9880400D02*
X18504100Y-9982400D01*
X18504100Y-9880400D02*
X18402100Y-9982400D01*
X18504100Y-9931400D02*
G75*
G03*
X18504100Y-9931400I-51000J0D01*
G01*
X18402100Y-10134400D02*
X18504100Y-10236400D01*
X18504100Y-10134400D02*
X18402100Y-10236400D01*
X18504100Y-10185400D02*
G75*
G03*
X18504100Y-10185400I-51000J0D01*
G01*
X18402100Y-10388400D02*
X18504100Y-10490400D01*
X18504100Y-10388400D02*
X18402100Y-10490400D01*
X18504100Y-10439400D02*
G75*
G03*
X18504100Y-10439400I-51000J0D01*
G01*
X18402100Y-10642400D02*
X18504100Y-10744400D01*
X18504100Y-10642400D02*
X18402100Y-10744400D01*
X18504100Y-10693400D02*
G75*
G03*
X18504100Y-10693400I-51000J0D01*
G01*
X18402100Y-10896400D02*
X18504100Y-10998400D01*
X18504100Y-10896400D02*
X18402100Y-10998400D01*
X18504100Y-10947400D02*
G75*
G03*
X18504100Y-10947400I-51000J0D01*
G01*
X18402100Y-11150400D02*
X18504100Y-11252400D01*
X18504100Y-11150400D02*
X18402100Y-11252400D01*
X18504100Y-11201400D02*
G75*
G03*
X18504100Y-11201400I-51000J0D01*
G01*
X18402100Y-11404400D02*
X18504100Y-11506400D01*
X18504100Y-11404400D02*
X18402100Y-11506400D01*
X18504100Y-11455400D02*
G75*
G03*
X18504100Y-11455400I-51000J0D01*
G01*
X18402100Y-11658400D02*
X18504100Y-11760400D01*
X18504100Y-11658400D02*
X18402100Y-11760400D01*
X18504100Y-11709400D02*
G75*
G03*
X18504100Y-11709400I-51000J0D01*
G01*
X18402100Y-11912400D02*
X18504100Y-12014400D01*
X18504100Y-11912400D02*
X18402100Y-12014400D01*
X18504100Y-11963400D02*
G75*
G03*
X18504100Y-11963400I-51000J0D01*
G01*
X18402100Y-12166400D02*
X18504100Y-12268400D01*
X18504100Y-12166400D02*
X18402100Y-12268400D01*
X18504100Y-12217400D02*
G75*
G03*
X18504100Y-12217400I-51000J0D01*
G01*
X18402100Y-12420400D02*
X18504100Y-12522400D01*
X18504100Y-12420400D02*
X18402100Y-12522400D01*
X18504100Y-12471400D02*
G75*
G03*
X18504100Y-12471400I-51000J0D01*
G01*
X18402100Y-12674400D02*
X18504100Y-12776400D01*
X18504100Y-12674400D02*
X18402100Y-12776400D01*
X18504100Y-12725400D02*
G75*
G03*
X18504100Y-12725400I-51000J0D01*
G01*
X18402100Y-12928400D02*
X18504100Y-13030400D01*
X18504100Y-12928400D02*
X18402100Y-13030400D01*
X18504100Y-12979400D02*
G75*
G03*
X18504100Y-12979400I-51000J0D01*
G01*
X18402100Y-13182400D02*
X18504100Y-13284400D01*
X18504100Y-13182400D02*
X18402100Y-13284400D01*
X18504100Y-13233400D02*
G75*
G03*
X18504100Y-13233400I-51000J0D01*
G01*
X18402100Y-13436400D02*
X18504100Y-13538400D01*
X18504100Y-13436400D02*
X18402100Y-13538400D01*
X18504100Y-13487400D02*
G75*
G03*
X18504100Y-13487400I-51000J0D01*
G01*
X18402100Y-13690400D02*
X18504100Y-13792400D01*
X18504100Y-13690400D02*
X18402100Y-13792400D01*
X18504100Y-13741400D02*
G75*
G03*
X18504100Y-13741400I-51000J0D01*
G01*
X18402100Y-13944400D02*
X18504100Y-14046400D01*
X18504100Y-13944400D02*
X18402100Y-14046400D01*
X18504100Y-13995400D02*
G75*
G03*
X18504100Y-13995400I-51000J0D01*
G01*
D17*
X12646300Y-13739440D02*
X12756300Y-13849440D01*
X12756300Y-13739440D02*
X12646300Y-13849440D01*
X12701300Y-13739440D02*
X12701300Y-13849440D01*
X12646300Y-13794440D02*
X12756300Y-13794440D01*
X12733900Y-11536320D02*
X12843900Y-11646320D01*
X12843900Y-11536320D02*
X12733900Y-11646320D01*
X12788900Y-11536320D02*
X12788900Y-11646320D01*
X12733900Y-11591320D02*
X12843900Y-11591320D01*
X12900300Y-13739440D02*
X13010300Y-13849440D01*
X13010300Y-13739440D02*
X12900300Y-13849440D01*
X12955300Y-13739440D02*
X12955300Y-13849440D01*
X12900300Y-13794440D02*
X13010300Y-13794440D01*
X12987900Y-11536320D02*
X13097900Y-11646320D01*
X13097900Y-11536320D02*
X12987900Y-11646320D01*
X13042900Y-11536320D02*
X13042900Y-11646320D01*
X12987900Y-11591320D02*
X13097900Y-11591320D01*
X13154300Y-13739440D02*
X13264300Y-13849440D01*
X13264300Y-13739440D02*
X13154300Y-13849440D01*
X13209300Y-13739440D02*
X13209300Y-13849440D01*
X13154300Y-13794440D02*
X13264300Y-13794440D01*
X13241900Y-11536320D02*
X13351900Y-11646320D01*
X13351900Y-11536320D02*
X13241900Y-11646320D01*
X13296900Y-11536320D02*
X13296900Y-11646320D01*
X13241900Y-11591320D02*
X13351900Y-11591320D01*
D18*
X9625380Y-6994710D02*
X9945380Y-7314710D01*
X9945380Y-6994710D02*
X9625380Y-7314710D01*
X9898518Y-7267848D02*
X9898518Y-7041572D01*
X9672242Y-7041572D01*
X9672242Y-7267848D01*
X9898518Y-7267848D01*
X9645700Y-4781600D02*
X9965700Y-5101600D01*
X9965700Y-4781600D02*
X9645700Y-5101600D01*
X9918838Y-5054738D02*
X9918838Y-4828462D01*
X9692562Y-4828462D01*
X9692562Y-5054738D01*
X9918838Y-5054738D01*
X9665190Y-12963710D02*
X9985190Y-13283710D01*
X9985190Y-12963710D02*
X9665190Y-13283710D01*
X9938328Y-13236848D02*
X9938328Y-13010572D01*
X9712052Y-13010572D01*
X9712052Y-13236848D01*
X9938328Y-13236848D01*
X9677890Y-8843000D02*
X9997890Y-9163000D01*
X9997890Y-8843000D02*
X9677890Y-9163000D01*
X9951028Y-9116138D02*
X9951028Y-8889862D01*
X9724752Y-8889862D01*
X9724752Y-9116138D01*
X9951028Y-9116138D01*
X9677890Y-10882210D02*
X9997890Y-11202210D01*
X9997890Y-10882210D02*
X9677890Y-11202210D01*
X9951028Y-11155348D02*
X9951028Y-10929072D01*
X9724752Y-10929072D01*
X9724752Y-11155348D01*
X9951028Y-11155348D01*
X14597400Y-8939990D02*
X14917400Y-9259990D01*
X14917400Y-8939990D02*
X14597400Y-9259990D01*
X14870538Y-9213128D02*
X14870538Y-8986852D01*
X14644262Y-8986852D01*
X14644262Y-9213128D01*
X14870538Y-9213128D01*
X14660900Y-6964700D02*
X14980900Y-7284700D01*
X14980900Y-6964700D02*
X14660900Y-7284700D01*
X14934038Y-7237838D02*
X14934038Y-7011562D01*
X14707762Y-7011562D01*
X14707762Y-7237838D01*
X14934038Y-7237838D01*
X14660900Y-10852200D02*
X14980900Y-11172200D01*
X14980900Y-10852200D02*
X14660900Y-11172200D01*
X14934038Y-11125338D02*
X14934038Y-10899062D01*
X14707762Y-10899062D01*
X14707762Y-11125338D01*
X14934038Y-11125338D01*
X14686300Y-4908600D02*
X15006300Y-5228600D01*
X15006300Y-4908600D02*
X14686300Y-5228600D01*
X14959438Y-5181738D02*
X14959438Y-4955462D01*
X14733162Y-4955462D01*
X14733162Y-5181738D01*
X14959438Y-5181738D01*
X14686300Y-13008600D02*
X15006300Y-13328600D01*
X15006300Y-13008600D02*
X14686300Y-13328600D01*
X14959438Y-13281738D02*
X14959438Y-13055462D01*
X14733162Y-13055462D01*
X14733162Y-13281738D01*
X14959438Y-13281738D01*
X15583390Y-4353110D02*
X15903390Y-4673110D01*
X15903390Y-4353110D02*
X15583390Y-4673110D01*
X15856528Y-4626248D02*
X15856528Y-4399972D01*
X15630252Y-4399972D01*
X15630252Y-4626248D01*
X15856528Y-4626248D01*
X15608790Y-8493310D02*
X15928790Y-8813310D01*
X15928790Y-8493310D02*
X15608790Y-8813310D01*
X15881928Y-8766448D02*
X15881928Y-8540172D01*
X15655652Y-8540172D01*
X15655652Y-8766448D01*
X15881928Y-8766448D01*
X16423660Y-10436880D02*
X16743660Y-10756880D01*
X16743660Y-10436880D02*
X16423660Y-10756880D01*
X16696798Y-10710018D02*
X16696798Y-10483742D01*
X16470522Y-10483742D01*
X16470522Y-10710018D01*
X16696798Y-10710018D01*
X16666800Y-11790700D02*
X16986800Y-12110700D01*
X16986800Y-11790700D02*
X16666800Y-12110700D01*
X16939938Y-12063838D02*
X16939938Y-11837562D01*
X16713662Y-11837562D01*
X16713662Y-12063838D01*
X16939938Y-12063838D01*
X17378000Y-13556000D02*
X17698000Y-13876000D01*
X17698000Y-13556000D02*
X17378000Y-13876000D01*
X17651138Y-13829138D02*
X17651138Y-13602862D01*
X17424862Y-13602862D01*
X17424862Y-13829138D01*
X17651138Y-13829138D01*
X17592060Y-10421640D02*
X17912060Y-10741640D01*
X17912060Y-10421640D02*
X17592060Y-10741640D01*
X17865198Y-10694778D02*
X17865198Y-10468502D01*
X17638922Y-10468502D01*
X17638922Y-10694778D01*
X17865198Y-10694778D01*
X18496300Y-8486160D02*
X18816300Y-8806160D01*
X18816300Y-8486160D02*
X18496300Y-8806160D01*
X18769438Y-8759298D02*
X18769438Y-8533022D01*
X18543162Y-8533022D01*
X18543162Y-8759298D01*
X18769438Y-8759298D01*
X18501380Y-4347200D02*
X18821380Y-4667200D01*
X18821380Y-4347200D02*
X18501380Y-4667200D01*
X18774518Y-4620338D02*
X18774518Y-4394062D01*
X18548242Y-4394062D01*
X18548242Y-4620338D01*
X18774518Y-4620338D01*
D10*
X9609277Y-14487744D02*
X9609277Y-14287744D01*
X9609277Y-14287744D02*
X9656896Y-14287744D01*
X9656896Y-14287744D02*
X9685467Y-14297268D01*
X9685467Y-14297268D02*
X9704515Y-14316315D01*
X9704515Y-14316315D02*
X9714039Y-14335363D01*
X9714039Y-14335363D02*
X9723563Y-14373458D01*
X9723563Y-14373458D02*
X9723563Y-14402029D01*
X9723563Y-14402029D02*
X9714039Y-14440125D01*
X9714039Y-14440125D02*
X9704515Y-14459172D01*
X9704515Y-14459172D02*
X9685467Y-14478220D01*
X9685467Y-14478220D02*
X9656896Y-14487744D01*
X9656896Y-14487744D02*
X9609277Y-14487744D01*
X9809277Y-14487744D02*
X9809277Y-14354410D01*
X9809277Y-14392506D02*
X9818801Y-14373458D01*
X9818801Y-14373458D02*
X9828324Y-14363934D01*
X9828324Y-14363934D02*
X9847372Y-14354410D01*
X9847372Y-14354410D02*
X9866420Y-14354410D01*
X9933086Y-14487744D02*
X9933086Y-14354410D01*
X9933086Y-14287744D02*
X9923563Y-14297268D01*
X9923563Y-14297268D02*
X9933086Y-14306791D01*
X9933086Y-14306791D02*
X9942610Y-14297268D01*
X9942610Y-14297268D02*
X9933086Y-14287744D01*
X9933086Y-14287744D02*
X9933086Y-14306791D01*
X10056896Y-14487744D02*
X10037848Y-14478220D01*
X10037848Y-14478220D02*
X10028324Y-14459172D01*
X10028324Y-14459172D02*
X10028324Y-14287744D01*
X10161658Y-14487744D02*
X10142610Y-14478220D01*
X10142610Y-14478220D02*
X10133086Y-14459172D01*
X10133086Y-14459172D02*
X10133086Y-14287744D01*
X10390229Y-14487744D02*
X10390229Y-14287744D01*
X10390229Y-14287744D02*
X10456896Y-14430601D01*
X10456896Y-14430601D02*
X10523563Y-14287744D01*
X10523563Y-14287744D02*
X10523563Y-14487744D01*
X10704515Y-14487744D02*
X10704515Y-14382982D01*
X10704515Y-14382982D02*
X10694991Y-14363934D01*
X10694991Y-14363934D02*
X10675944Y-14354410D01*
X10675944Y-14354410D02*
X10637848Y-14354410D01*
X10637848Y-14354410D02*
X10618801Y-14363934D01*
X10704515Y-14478220D02*
X10685467Y-14487744D01*
X10685467Y-14487744D02*
X10637848Y-14487744D01*
X10637848Y-14487744D02*
X10618801Y-14478220D01*
X10618801Y-14478220D02*
X10609277Y-14459172D01*
X10609277Y-14459172D02*
X10609277Y-14440125D01*
X10609277Y-14440125D02*
X10618801Y-14421077D01*
X10618801Y-14421077D02*
X10637848Y-14411553D01*
X10637848Y-14411553D02*
X10685467Y-14411553D01*
X10685467Y-14411553D02*
X10704515Y-14402029D01*
X10799753Y-14354410D02*
X10799753Y-14554410D01*
X10799753Y-14363934D02*
X10818801Y-14354410D01*
X10818801Y-14354410D02*
X10856896Y-14354410D01*
X10856896Y-14354410D02*
X10875944Y-14363934D01*
X10875944Y-14363934D02*
X10885467Y-14373458D01*
X10885467Y-14373458D02*
X10894991Y-14392506D01*
X10894991Y-14392506D02*
X10894991Y-14449648D01*
X10894991Y-14449648D02*
X10885467Y-14468696D01*
X10885467Y-14468696D02*
X10875944Y-14478220D01*
X10875944Y-14478220D02*
X10856896Y-14487744D01*
X10856896Y-14487744D02*
X10818801Y-14487744D01*
X10818801Y-14487744D02*
X10799753Y-14478220D01*
X10980705Y-14468696D02*
X10990229Y-14478220D01*
X10990229Y-14478220D02*
X10980705Y-14487744D01*
X10980705Y-14487744D02*
X10971182Y-14478220D01*
X10971182Y-14478220D02*
X10980705Y-14468696D01*
X10980705Y-14468696D02*
X10980705Y-14487744D01*
X10980705Y-14363934D02*
X10990229Y-14373458D01*
X10990229Y-14373458D02*
X10980705Y-14382982D01*
X10980705Y-14382982D02*
X10971182Y-14373458D01*
X10971182Y-14373458D02*
X10980705Y-14363934D01*
X10980705Y-14363934D02*
X10980705Y-14382982D01*
D11*
X9308500Y-14796260D02*
X9348500Y-14836260D01*
X9348500Y-14796260D02*
X9308500Y-14836260D01*
D10*
X9647372Y-14707744D02*
X9666420Y-14707744D01*
X9666420Y-14707744D02*
X9685467Y-14717268D01*
X9685467Y-14717268D02*
X9694991Y-14726791D01*
X9694991Y-14726791D02*
X9704515Y-14745839D01*
X9704515Y-14745839D02*
X9714039Y-14783934D01*
X9714039Y-14783934D02*
X9714039Y-14831553D01*
X9714039Y-14831553D02*
X9704515Y-14869648D01*
X9704515Y-14869648D02*
X9694991Y-14888696D01*
X9694991Y-14888696D02*
X9685467Y-14898220D01*
X9685467Y-14898220D02*
X9666420Y-14907744D01*
X9666420Y-14907744D02*
X9647372Y-14907744D01*
X9647372Y-14907744D02*
X9628324Y-14898220D01*
X9628324Y-14898220D02*
X9618801Y-14888696D01*
X9618801Y-14888696D02*
X9609277Y-14869648D01*
X9609277Y-14869648D02*
X9599753Y-14831553D01*
X9599753Y-14831553D02*
X9599753Y-14783934D01*
X9599753Y-14783934D02*
X9609277Y-14745839D01*
X9609277Y-14745839D02*
X9618801Y-14726791D01*
X9618801Y-14726791D02*
X9628324Y-14717268D01*
X9628324Y-14717268D02*
X9647372Y-14707744D01*
X9799753Y-14888696D02*
X9809277Y-14898220D01*
X9809277Y-14898220D02*
X9799753Y-14907744D01*
X9799753Y-14907744D02*
X9790229Y-14898220D01*
X9790229Y-14898220D02*
X9799753Y-14888696D01*
X9799753Y-14888696D02*
X9799753Y-14907744D01*
X9980705Y-14774410D02*
X9980705Y-14907744D01*
X9933086Y-14698220D02*
X9885467Y-14841077D01*
X9885467Y-14841077D02*
X10009277Y-14841077D01*
X10123563Y-14707744D02*
X10142610Y-14707744D01*
X10142610Y-14707744D02*
X10161658Y-14717268D01*
X10161658Y-14717268D02*
X10171182Y-14726791D01*
X10171182Y-14726791D02*
X10180705Y-14745839D01*
X10180705Y-14745839D02*
X10190229Y-14783934D01*
X10190229Y-14783934D02*
X10190229Y-14831553D01*
X10190229Y-14831553D02*
X10180705Y-14869648D01*
X10180705Y-14869648D02*
X10171182Y-14888696D01*
X10171182Y-14888696D02*
X10161658Y-14898220D01*
X10161658Y-14898220D02*
X10142610Y-14907744D01*
X10142610Y-14907744D02*
X10123563Y-14907744D01*
X10123563Y-14907744D02*
X10104515Y-14898220D01*
X10104515Y-14898220D02*
X10094991Y-14888696D01*
X10094991Y-14888696D02*
X10085467Y-14869648D01*
X10085467Y-14869648D02*
X10075944Y-14831553D01*
X10075944Y-14831553D02*
X10075944Y-14783934D01*
X10075944Y-14783934D02*
X10085467Y-14745839D01*
X10085467Y-14745839D02*
X10094991Y-14726791D01*
X10094991Y-14726791D02*
X10104515Y-14717268D01*
X10104515Y-14717268D02*
X10123563Y-14707744D01*
X10314039Y-14707744D02*
X10333086Y-14707744D01*
X10333086Y-14707744D02*
X10352134Y-14717268D01*
X10352134Y-14717268D02*
X10361658Y-14726791D01*
X10361658Y-14726791D02*
X10371182Y-14745839D01*
X10371182Y-14745839D02*
X10380705Y-14783934D01*
X10380705Y-14783934D02*
X10380705Y-14831553D01*
X10380705Y-14831553D02*
X10371182Y-14869648D01*
X10371182Y-14869648D02*
X10361658Y-14888696D01*
X10361658Y-14888696D02*
X10352134Y-14898220D01*
X10352134Y-14898220D02*
X10333086Y-14907744D01*
X10333086Y-14907744D02*
X10314039Y-14907744D01*
X10314039Y-14907744D02*
X10294991Y-14898220D01*
X10294991Y-14898220D02*
X10285467Y-14888696D01*
X10285467Y-14888696D02*
X10275944Y-14869648D01*
X10275944Y-14869648D02*
X10266420Y-14831553D01*
X10266420Y-14831553D02*
X10266420Y-14783934D01*
X10266420Y-14783934D02*
X10275944Y-14745839D01*
X10275944Y-14745839D02*
X10285467Y-14726791D01*
X10285467Y-14726791D02*
X10294991Y-14717268D01*
X10294991Y-14717268D02*
X10314039Y-14707744D01*
X10466420Y-14907744D02*
X10466420Y-14774410D01*
X10466420Y-14793458D02*
X10475944Y-14783934D01*
X10475944Y-14783934D02*
X10494991Y-14774410D01*
X10494991Y-14774410D02*
X10523563Y-14774410D01*
X10523563Y-14774410D02*
X10542610Y-14783934D01*
X10542610Y-14783934D02*
X10552134Y-14802982D01*
X10552134Y-14802982D02*
X10552134Y-14907744D01*
X10552134Y-14802982D02*
X10561658Y-14783934D01*
X10561658Y-14783934D02*
X10580705Y-14774410D01*
X10580705Y-14774410D02*
X10609277Y-14774410D01*
X10609277Y-14774410D02*
X10628325Y-14783934D01*
X10628325Y-14783934D02*
X10637848Y-14802982D01*
X10637848Y-14802982D02*
X10637848Y-14907744D01*
X10733086Y-14907744D02*
X10733086Y-14774410D01*
X10733086Y-14793458D02*
X10742610Y-14783934D01*
X10742610Y-14783934D02*
X10761658Y-14774410D01*
X10761658Y-14774410D02*
X10790229Y-14774410D01*
X10790229Y-14774410D02*
X10809277Y-14783934D01*
X10809277Y-14783934D02*
X10818801Y-14802982D01*
X10818801Y-14802982D02*
X10818801Y-14907744D01*
X10818801Y-14802982D02*
X10828325Y-14783934D01*
X10828325Y-14783934D02*
X10847372Y-14774410D01*
X10847372Y-14774410D02*
X10875944Y-14774410D01*
X10875944Y-14774410D02*
X10894991Y-14783934D01*
X10894991Y-14783934D02*
X10904515Y-14802982D01*
X10904515Y-14802982D02*
X10904515Y-14907744D01*
X11294991Y-14698220D02*
X11123563Y-14955363D01*
X11552134Y-14707744D02*
X11571182Y-14707744D01*
X11571182Y-14707744D02*
X11590229Y-14717268D01*
X11590229Y-14717268D02*
X11599753Y-14726791D01*
X11599753Y-14726791D02*
X11609277Y-14745839D01*
X11609277Y-14745839D02*
X11618801Y-14783934D01*
X11618801Y-14783934D02*
X11618801Y-14831553D01*
X11618801Y-14831553D02*
X11609277Y-14869648D01*
X11609277Y-14869648D02*
X11599753Y-14888696D01*
X11599753Y-14888696D02*
X11590229Y-14898220D01*
X11590229Y-14898220D02*
X11571182Y-14907744D01*
X11571182Y-14907744D02*
X11552134Y-14907744D01*
X11552134Y-14907744D02*
X11533086Y-14898220D01*
X11533086Y-14898220D02*
X11523563Y-14888696D01*
X11523563Y-14888696D02*
X11514039Y-14869648D01*
X11514039Y-14869648D02*
X11504515Y-14831553D01*
X11504515Y-14831553D02*
X11504515Y-14783934D01*
X11504515Y-14783934D02*
X11514039Y-14745839D01*
X11514039Y-14745839D02*
X11523563Y-14726791D01*
X11523563Y-14726791D02*
X11533086Y-14717268D01*
X11533086Y-14717268D02*
X11552134Y-14707744D01*
X11704515Y-14888696D02*
X11714039Y-14898220D01*
X11714039Y-14898220D02*
X11704515Y-14907744D01*
X11704515Y-14907744D02*
X11694991Y-14898220D01*
X11694991Y-14898220D02*
X11704515Y-14888696D01*
X11704515Y-14888696D02*
X11704515Y-14907744D01*
X11837848Y-14707744D02*
X11856896Y-14707744D01*
X11856896Y-14707744D02*
X11875944Y-14717268D01*
X11875944Y-14717268D02*
X11885467Y-14726791D01*
X11885467Y-14726791D02*
X11894991Y-14745839D01*
X11894991Y-14745839D02*
X11904515Y-14783934D01*
X11904515Y-14783934D02*
X11904515Y-14831553D01*
X11904515Y-14831553D02*
X11894991Y-14869648D01*
X11894991Y-14869648D02*
X11885467Y-14888696D01*
X11885467Y-14888696D02*
X11875944Y-14898220D01*
X11875944Y-14898220D02*
X11856896Y-14907744D01*
X11856896Y-14907744D02*
X11837848Y-14907744D01*
X11837848Y-14907744D02*
X11818801Y-14898220D01*
X11818801Y-14898220D02*
X11809277Y-14888696D01*
X11809277Y-14888696D02*
X11799753Y-14869648D01*
X11799753Y-14869648D02*
X11790229Y-14831553D01*
X11790229Y-14831553D02*
X11790229Y-14783934D01*
X11790229Y-14783934D02*
X11799753Y-14745839D01*
X11799753Y-14745839D02*
X11809277Y-14726791D01*
X11809277Y-14726791D02*
X11818801Y-14717268D01*
X11818801Y-14717268D02*
X11837848Y-14707744D01*
X12094991Y-14907744D02*
X11980706Y-14907744D01*
X12037848Y-14907744D02*
X12037848Y-14707744D01*
X12037848Y-14707744D02*
X12018801Y-14736315D01*
X12018801Y-14736315D02*
X11999753Y-14755363D01*
X11999753Y-14755363D02*
X11980706Y-14764887D01*
X12275944Y-14707744D02*
X12180706Y-14707744D01*
X12180706Y-14707744D02*
X12171182Y-14802982D01*
X12171182Y-14802982D02*
X12180706Y-14793458D01*
X12180706Y-14793458D02*
X12199753Y-14783934D01*
X12199753Y-14783934D02*
X12247372Y-14783934D01*
X12247372Y-14783934D02*
X12266420Y-14793458D01*
X12266420Y-14793458D02*
X12275944Y-14802982D01*
X12275944Y-14802982D02*
X12285467Y-14822029D01*
X12285467Y-14822029D02*
X12285467Y-14869648D01*
X12285467Y-14869648D02*
X12275944Y-14888696D01*
X12275944Y-14888696D02*
X12266420Y-14898220D01*
X12266420Y-14898220D02*
X12247372Y-14907744D01*
X12247372Y-14907744D02*
X12199753Y-14907744D01*
X12199753Y-14907744D02*
X12180706Y-14898220D01*
X12180706Y-14898220D02*
X12171182Y-14888696D01*
X12352134Y-14707744D02*
X12485467Y-14707744D01*
X12485467Y-14707744D02*
X12399753Y-14907744D01*
X12552134Y-14707744D02*
X12552134Y-14745839D01*
X12628325Y-14707744D02*
X12628325Y-14745839D01*
X12923563Y-14983934D02*
X12914039Y-14974410D01*
X12914039Y-14974410D02*
X12894991Y-14945839D01*
X12894991Y-14945839D02*
X12885468Y-14926791D01*
X12885468Y-14926791D02*
X12875944Y-14898220D01*
X12875944Y-14898220D02*
X12866420Y-14850601D01*
X12866420Y-14850601D02*
X12866420Y-14812506D01*
X12866420Y-14812506D02*
X12875944Y-14764887D01*
X12875944Y-14764887D02*
X12885468Y-14736315D01*
X12885468Y-14736315D02*
X12894991Y-14717268D01*
X12894991Y-14717268D02*
X12914039Y-14688696D01*
X12914039Y-14688696D02*
X12923563Y-14679172D01*
X12980706Y-14707744D02*
X13104515Y-14707744D01*
X13104515Y-14707744D02*
X13037848Y-14783934D01*
X13037848Y-14783934D02*
X13066420Y-14783934D01*
X13066420Y-14783934D02*
X13085468Y-14793458D01*
X13085468Y-14793458D02*
X13094991Y-14802982D01*
X13094991Y-14802982D02*
X13104515Y-14822029D01*
X13104515Y-14822029D02*
X13104515Y-14869648D01*
X13104515Y-14869648D02*
X13094991Y-14888696D01*
X13094991Y-14888696D02*
X13085468Y-14898220D01*
X13085468Y-14898220D02*
X13066420Y-14907744D01*
X13066420Y-14907744D02*
X13009277Y-14907744D01*
X13009277Y-14907744D02*
X12990229Y-14898220D01*
X12990229Y-14898220D02*
X12980706Y-14888696D01*
X13294991Y-14907744D02*
X13180706Y-14907744D01*
X13237848Y-14907744D02*
X13237848Y-14707744D01*
X13237848Y-14707744D02*
X13218801Y-14736315D01*
X13218801Y-14736315D02*
X13199753Y-14755363D01*
X13199753Y-14755363D02*
X13180706Y-14764887D01*
X13361658Y-14707744D02*
X13485468Y-14707744D01*
X13485468Y-14707744D02*
X13418801Y-14783934D01*
X13418801Y-14783934D02*
X13447372Y-14783934D01*
X13447372Y-14783934D02*
X13466420Y-14793458D01*
X13466420Y-14793458D02*
X13475944Y-14802982D01*
X13475944Y-14802982D02*
X13485468Y-14822029D01*
X13485468Y-14822029D02*
X13485468Y-14869648D01*
X13485468Y-14869648D02*
X13475944Y-14888696D01*
X13475944Y-14888696D02*
X13466420Y-14898220D01*
X13466420Y-14898220D02*
X13447372Y-14907744D01*
X13447372Y-14907744D02*
X13390229Y-14907744D01*
X13390229Y-14907744D02*
X13371182Y-14898220D01*
X13371182Y-14898220D02*
X13361658Y-14888696D01*
X13723563Y-14907744D02*
X13723563Y-14707744D01*
X13809277Y-14907744D02*
X13809277Y-14802982D01*
X13809277Y-14802982D02*
X13799753Y-14783934D01*
X13799753Y-14783934D02*
X13780706Y-14774410D01*
X13780706Y-14774410D02*
X13752134Y-14774410D01*
X13752134Y-14774410D02*
X13733087Y-14783934D01*
X13733087Y-14783934D02*
X13723563Y-14793458D01*
X13933087Y-14907744D02*
X13914039Y-14898220D01*
X13914039Y-14898220D02*
X13904515Y-14888696D01*
X13904515Y-14888696D02*
X13894991Y-14869648D01*
X13894991Y-14869648D02*
X13894991Y-14812506D01*
X13894991Y-14812506D02*
X13904515Y-14793458D01*
X13904515Y-14793458D02*
X13914039Y-14783934D01*
X13914039Y-14783934D02*
X13933087Y-14774410D01*
X13933087Y-14774410D02*
X13961658Y-14774410D01*
X13961658Y-14774410D02*
X13980706Y-14783934D01*
X13980706Y-14783934D02*
X13990230Y-14793458D01*
X13990230Y-14793458D02*
X13999753Y-14812506D01*
X13999753Y-14812506D02*
X13999753Y-14869648D01*
X13999753Y-14869648D02*
X13990230Y-14888696D01*
X13990230Y-14888696D02*
X13980706Y-14898220D01*
X13980706Y-14898220D02*
X13961658Y-14907744D01*
X13961658Y-14907744D02*
X13933087Y-14907744D01*
X14114039Y-14907744D02*
X14094991Y-14898220D01*
X14094991Y-14898220D02*
X14085468Y-14879172D01*
X14085468Y-14879172D02*
X14085468Y-14707744D01*
X14266420Y-14898220D02*
X14247372Y-14907744D01*
X14247372Y-14907744D02*
X14209277Y-14907744D01*
X14209277Y-14907744D02*
X14190230Y-14898220D01*
X14190230Y-14898220D02*
X14180706Y-14879172D01*
X14180706Y-14879172D02*
X14180706Y-14802982D01*
X14180706Y-14802982D02*
X14190230Y-14783934D01*
X14190230Y-14783934D02*
X14209277Y-14774410D01*
X14209277Y-14774410D02*
X14247372Y-14774410D01*
X14247372Y-14774410D02*
X14266420Y-14783934D01*
X14266420Y-14783934D02*
X14275944Y-14802982D01*
X14275944Y-14802982D02*
X14275944Y-14822029D01*
X14275944Y-14822029D02*
X14180706Y-14841077D01*
X14352134Y-14898220D02*
X14371182Y-14907744D01*
X14371182Y-14907744D02*
X14409277Y-14907744D01*
X14409277Y-14907744D02*
X14428325Y-14898220D01*
X14428325Y-14898220D02*
X14437849Y-14879172D01*
X14437849Y-14879172D02*
X14437849Y-14869648D01*
X14437849Y-14869648D02*
X14428325Y-14850601D01*
X14428325Y-14850601D02*
X14409277Y-14841077D01*
X14409277Y-14841077D02*
X14380706Y-14841077D01*
X14380706Y-14841077D02*
X14361658Y-14831553D01*
X14361658Y-14831553D02*
X14352134Y-14812506D01*
X14352134Y-14812506D02*
X14352134Y-14802982D01*
X14352134Y-14802982D02*
X14361658Y-14783934D01*
X14361658Y-14783934D02*
X14380706Y-14774410D01*
X14380706Y-14774410D02*
X14409277Y-14774410D01*
X14409277Y-14774410D02*
X14428325Y-14783934D01*
X14504515Y-14983934D02*
X14514039Y-14974410D01*
X14514039Y-14974410D02*
X14533087Y-14945839D01*
X14533087Y-14945839D02*
X14542611Y-14926791D01*
X14542611Y-14926791D02*
X14552134Y-14898220D01*
X14552134Y-14898220D02*
X14561658Y-14850601D01*
X14561658Y-14850601D02*
X14561658Y-14812506D01*
X14561658Y-14812506D02*
X14552134Y-14764887D01*
X14552134Y-14764887D02*
X14542611Y-14736315D01*
X14542611Y-14736315D02*
X14533087Y-14717268D01*
X14533087Y-14717268D02*
X14514039Y-14688696D01*
X14514039Y-14688696D02*
X14504515Y-14679172D01*
D12*
X9348500Y-15080260D02*
G75*
G03*
X9348500Y-15080260I-25000J0D01*
G01*
D10*
X9647372Y-14971744D02*
X9666420Y-14971744D01*
X9666420Y-14971744D02*
X9685467Y-14981268D01*
X9685467Y-14981268D02*
X9694991Y-14990791D01*
X9694991Y-14990791D02*
X9704515Y-15009839D01*
X9704515Y-15009839D02*
X9714039Y-15047934D01*
X9714039Y-15047934D02*
X9714039Y-15095553D01*
X9714039Y-15095553D02*
X9704515Y-15133648D01*
X9704515Y-15133648D02*
X9694991Y-15152696D01*
X9694991Y-15152696D02*
X9685467Y-15162220D01*
X9685467Y-15162220D02*
X9666420Y-15171744D01*
X9666420Y-15171744D02*
X9647372Y-15171744D01*
X9647372Y-15171744D02*
X9628324Y-15162220D01*
X9628324Y-15162220D02*
X9618801Y-15152696D01*
X9618801Y-15152696D02*
X9609277Y-15133648D01*
X9609277Y-15133648D02*
X9599753Y-15095553D01*
X9599753Y-15095553D02*
X9599753Y-15047934D01*
X9599753Y-15047934D02*
X9609277Y-15009839D01*
X9609277Y-15009839D02*
X9618801Y-14990791D01*
X9618801Y-14990791D02*
X9628324Y-14981268D01*
X9628324Y-14981268D02*
X9647372Y-14971744D01*
X9799753Y-15152696D02*
X9809277Y-15162220D01*
X9809277Y-15162220D02*
X9799753Y-15171744D01*
X9799753Y-15171744D02*
X9790229Y-15162220D01*
X9790229Y-15162220D02*
X9799753Y-15152696D01*
X9799753Y-15152696D02*
X9799753Y-15171744D01*
X9990229Y-14971744D02*
X9894991Y-14971744D01*
X9894991Y-14971744D02*
X9885467Y-15066982D01*
X9885467Y-15066982D02*
X9894991Y-15057458D01*
X9894991Y-15057458D02*
X9914039Y-15047934D01*
X9914039Y-15047934D02*
X9961658Y-15047934D01*
X9961658Y-15047934D02*
X9980705Y-15057458D01*
X9980705Y-15057458D02*
X9990229Y-15066982D01*
X9990229Y-15066982D02*
X9999753Y-15086029D01*
X9999753Y-15086029D02*
X9999753Y-15133648D01*
X9999753Y-15133648D02*
X9990229Y-15152696D01*
X9990229Y-15152696D02*
X9980705Y-15162220D01*
X9980705Y-15162220D02*
X9961658Y-15171744D01*
X9961658Y-15171744D02*
X9914039Y-15171744D01*
X9914039Y-15171744D02*
X9894991Y-15162220D01*
X9894991Y-15162220D02*
X9885467Y-15152696D01*
X10123563Y-14971744D02*
X10142610Y-14971744D01*
X10142610Y-14971744D02*
X10161658Y-14981268D01*
X10161658Y-14981268D02*
X10171182Y-14990791D01*
X10171182Y-14990791D02*
X10180705Y-15009839D01*
X10180705Y-15009839D02*
X10190229Y-15047934D01*
X10190229Y-15047934D02*
X10190229Y-15095553D01*
X10190229Y-15095553D02*
X10180705Y-15133648D01*
X10180705Y-15133648D02*
X10171182Y-15152696D01*
X10171182Y-15152696D02*
X10161658Y-15162220D01*
X10161658Y-15162220D02*
X10142610Y-15171744D01*
X10142610Y-15171744D02*
X10123563Y-15171744D01*
X10123563Y-15171744D02*
X10104515Y-15162220D01*
X10104515Y-15162220D02*
X10094991Y-15152696D01*
X10094991Y-15152696D02*
X10085467Y-15133648D01*
X10085467Y-15133648D02*
X10075944Y-15095553D01*
X10075944Y-15095553D02*
X10075944Y-15047934D01*
X10075944Y-15047934D02*
X10085467Y-15009839D01*
X10085467Y-15009839D02*
X10094991Y-14990791D01*
X10094991Y-14990791D02*
X10104515Y-14981268D01*
X10104515Y-14981268D02*
X10123563Y-14971744D01*
X10314039Y-14971744D02*
X10333086Y-14971744D01*
X10333086Y-14971744D02*
X10352134Y-14981268D01*
X10352134Y-14981268D02*
X10361658Y-14990791D01*
X10361658Y-14990791D02*
X10371182Y-15009839D01*
X10371182Y-15009839D02*
X10380705Y-15047934D01*
X10380705Y-15047934D02*
X10380705Y-15095553D01*
X10380705Y-15095553D02*
X10371182Y-15133648D01*
X10371182Y-15133648D02*
X10361658Y-15152696D01*
X10361658Y-15152696D02*
X10352134Y-15162220D01*
X10352134Y-15162220D02*
X10333086Y-15171744D01*
X10333086Y-15171744D02*
X10314039Y-15171744D01*
X10314039Y-15171744D02*
X10294991Y-15162220D01*
X10294991Y-15162220D02*
X10285467Y-15152696D01*
X10285467Y-15152696D02*
X10275944Y-15133648D01*
X10275944Y-15133648D02*
X10266420Y-15095553D01*
X10266420Y-15095553D02*
X10266420Y-15047934D01*
X10266420Y-15047934D02*
X10275944Y-15009839D01*
X10275944Y-15009839D02*
X10285467Y-14990791D01*
X10285467Y-14990791D02*
X10294991Y-14981268D01*
X10294991Y-14981268D02*
X10314039Y-14971744D01*
X10466420Y-15171744D02*
X10466420Y-15038410D01*
X10466420Y-15057458D02*
X10475944Y-15047934D01*
X10475944Y-15047934D02*
X10494991Y-15038410D01*
X10494991Y-15038410D02*
X10523563Y-15038410D01*
X10523563Y-15038410D02*
X10542610Y-15047934D01*
X10542610Y-15047934D02*
X10552134Y-15066982D01*
X10552134Y-15066982D02*
X10552134Y-15171744D01*
X10552134Y-15066982D02*
X10561658Y-15047934D01*
X10561658Y-15047934D02*
X10580705Y-15038410D01*
X10580705Y-15038410D02*
X10609277Y-15038410D01*
X10609277Y-15038410D02*
X10628325Y-15047934D01*
X10628325Y-15047934D02*
X10637848Y-15066982D01*
X10637848Y-15066982D02*
X10637848Y-15171744D01*
X10733086Y-15171744D02*
X10733086Y-15038410D01*
X10733086Y-15057458D02*
X10742610Y-15047934D01*
X10742610Y-15047934D02*
X10761658Y-15038410D01*
X10761658Y-15038410D02*
X10790229Y-15038410D01*
X10790229Y-15038410D02*
X10809277Y-15047934D01*
X10809277Y-15047934D02*
X10818801Y-15066982D01*
X10818801Y-15066982D02*
X10818801Y-15171744D01*
X10818801Y-15066982D02*
X10828325Y-15047934D01*
X10828325Y-15047934D02*
X10847372Y-15038410D01*
X10847372Y-15038410D02*
X10875944Y-15038410D01*
X10875944Y-15038410D02*
X10894991Y-15047934D01*
X10894991Y-15047934D02*
X10904515Y-15066982D01*
X10904515Y-15066982D02*
X10904515Y-15171744D01*
X11294991Y-14962220D02*
X11123563Y-15219363D01*
X11552134Y-14971744D02*
X11571182Y-14971744D01*
X11571182Y-14971744D02*
X11590229Y-14981268D01*
X11590229Y-14981268D02*
X11599753Y-14990791D01*
X11599753Y-14990791D02*
X11609277Y-15009839D01*
X11609277Y-15009839D02*
X11618801Y-15047934D01*
X11618801Y-15047934D02*
X11618801Y-15095553D01*
X11618801Y-15095553D02*
X11609277Y-15133648D01*
X11609277Y-15133648D02*
X11599753Y-15152696D01*
X11599753Y-15152696D02*
X11590229Y-15162220D01*
X11590229Y-15162220D02*
X11571182Y-15171744D01*
X11571182Y-15171744D02*
X11552134Y-15171744D01*
X11552134Y-15171744D02*
X11533086Y-15162220D01*
X11533086Y-15162220D02*
X11523563Y-15152696D01*
X11523563Y-15152696D02*
X11514039Y-15133648D01*
X11514039Y-15133648D02*
X11504515Y-15095553D01*
X11504515Y-15095553D02*
X11504515Y-15047934D01*
X11504515Y-15047934D02*
X11514039Y-15009839D01*
X11514039Y-15009839D02*
X11523563Y-14990791D01*
X11523563Y-14990791D02*
X11533086Y-14981268D01*
X11533086Y-14981268D02*
X11552134Y-14971744D01*
X11704515Y-15152696D02*
X11714039Y-15162220D01*
X11714039Y-15162220D02*
X11704515Y-15171744D01*
X11704515Y-15171744D02*
X11694991Y-15162220D01*
X11694991Y-15162220D02*
X11704515Y-15152696D01*
X11704515Y-15152696D02*
X11704515Y-15171744D01*
X11837848Y-14971744D02*
X11856896Y-14971744D01*
X11856896Y-14971744D02*
X11875944Y-14981268D01*
X11875944Y-14981268D02*
X11885467Y-14990791D01*
X11885467Y-14990791D02*
X11894991Y-15009839D01*
X11894991Y-15009839D02*
X11904515Y-15047934D01*
X11904515Y-15047934D02*
X11904515Y-15095553D01*
X11904515Y-15095553D02*
X11894991Y-15133648D01*
X11894991Y-15133648D02*
X11885467Y-15152696D01*
X11885467Y-15152696D02*
X11875944Y-15162220D01*
X11875944Y-15162220D02*
X11856896Y-15171744D01*
X11856896Y-15171744D02*
X11837848Y-15171744D01*
X11837848Y-15171744D02*
X11818801Y-15162220D01*
X11818801Y-15162220D02*
X11809277Y-15152696D01*
X11809277Y-15152696D02*
X11799753Y-15133648D01*
X11799753Y-15133648D02*
X11790229Y-15095553D01*
X11790229Y-15095553D02*
X11790229Y-15047934D01*
X11790229Y-15047934D02*
X11799753Y-15009839D01*
X11799753Y-15009839D02*
X11809277Y-14990791D01*
X11809277Y-14990791D02*
X11818801Y-14981268D01*
X11818801Y-14981268D02*
X11837848Y-14971744D01*
X12094991Y-15171744D02*
X11980706Y-15171744D01*
X12037848Y-15171744D02*
X12037848Y-14971744D01*
X12037848Y-14971744D02*
X12018801Y-15000315D01*
X12018801Y-15000315D02*
X11999753Y-15019363D01*
X11999753Y-15019363D02*
X11980706Y-15028887D01*
X12190229Y-15171744D02*
X12228325Y-15171744D01*
X12228325Y-15171744D02*
X12247372Y-15162220D01*
X12247372Y-15162220D02*
X12256896Y-15152696D01*
X12256896Y-15152696D02*
X12275944Y-15124125D01*
X12275944Y-15124125D02*
X12285467Y-15086029D01*
X12285467Y-15086029D02*
X12285467Y-15009839D01*
X12285467Y-15009839D02*
X12275944Y-14990791D01*
X12275944Y-14990791D02*
X12266420Y-14981268D01*
X12266420Y-14981268D02*
X12247372Y-14971744D01*
X12247372Y-14971744D02*
X12209277Y-14971744D01*
X12209277Y-14971744D02*
X12190229Y-14981268D01*
X12190229Y-14981268D02*
X12180706Y-14990791D01*
X12180706Y-14990791D02*
X12171182Y-15009839D01*
X12171182Y-15009839D02*
X12171182Y-15057458D01*
X12171182Y-15057458D02*
X12180706Y-15076506D01*
X12180706Y-15076506D02*
X12190229Y-15086029D01*
X12190229Y-15086029D02*
X12209277Y-15095553D01*
X12209277Y-15095553D02*
X12247372Y-15095553D01*
X12247372Y-15095553D02*
X12266420Y-15086029D01*
X12266420Y-15086029D02*
X12275944Y-15076506D01*
X12275944Y-15076506D02*
X12285467Y-15057458D01*
X12352134Y-14971744D02*
X12485467Y-14971744D01*
X12485467Y-14971744D02*
X12399753Y-15171744D01*
X12552134Y-14971744D02*
X12552134Y-15009839D01*
X12628325Y-14971744D02*
X12628325Y-15009839D01*
X12923563Y-15247934D02*
X12914039Y-15238410D01*
X12914039Y-15238410D02*
X12894991Y-15209839D01*
X12894991Y-15209839D02*
X12885468Y-15190791D01*
X12885468Y-15190791D02*
X12875944Y-15162220D01*
X12875944Y-15162220D02*
X12866420Y-15114601D01*
X12866420Y-15114601D02*
X12866420Y-15076506D01*
X12866420Y-15076506D02*
X12875944Y-15028887D01*
X12875944Y-15028887D02*
X12885468Y-15000315D01*
X12885468Y-15000315D02*
X12894991Y-14981268D01*
X12894991Y-14981268D02*
X12914039Y-14952696D01*
X12914039Y-14952696D02*
X12923563Y-14943172D01*
X13104515Y-15171744D02*
X12990229Y-15171744D01*
X13047372Y-15171744D02*
X13047372Y-14971744D01*
X13047372Y-14971744D02*
X13028325Y-15000315D01*
X13028325Y-15000315D02*
X13009277Y-15019363D01*
X13009277Y-15019363D02*
X12990229Y-15028887D01*
X13294991Y-15171744D02*
X13180706Y-15171744D01*
X13237848Y-15171744D02*
X13237848Y-14971744D01*
X13237848Y-14971744D02*
X13218801Y-15000315D01*
X13218801Y-15000315D02*
X13199753Y-15019363D01*
X13199753Y-15019363D02*
X13180706Y-15028887D01*
X13371182Y-14990791D02*
X13380706Y-14981268D01*
X13380706Y-14981268D02*
X13399753Y-14971744D01*
X13399753Y-14971744D02*
X13447372Y-14971744D01*
X13447372Y-14971744D02*
X13466420Y-14981268D01*
X13466420Y-14981268D02*
X13475944Y-14990791D01*
X13475944Y-14990791D02*
X13485468Y-15009839D01*
X13485468Y-15009839D02*
X13485468Y-15028887D01*
X13485468Y-15028887D02*
X13475944Y-15057458D01*
X13475944Y-15057458D02*
X13361658Y-15171744D01*
X13361658Y-15171744D02*
X13485468Y-15171744D01*
X13723563Y-15171744D02*
X13723563Y-14971744D01*
X13809277Y-15171744D02*
X13809277Y-15066982D01*
X13809277Y-15066982D02*
X13799753Y-15047934D01*
X13799753Y-15047934D02*
X13780706Y-15038410D01*
X13780706Y-15038410D02*
X13752134Y-15038410D01*
X13752134Y-15038410D02*
X13733087Y-15047934D01*
X13733087Y-15047934D02*
X13723563Y-15057458D01*
X13933087Y-15171744D02*
X13914039Y-15162220D01*
X13914039Y-15162220D02*
X13904515Y-15152696D01*
X13904515Y-15152696D02*
X13894991Y-15133648D01*
X13894991Y-15133648D02*
X13894991Y-15076506D01*
X13894991Y-15076506D02*
X13904515Y-15057458D01*
X13904515Y-15057458D02*
X13914039Y-15047934D01*
X13914039Y-15047934D02*
X13933087Y-15038410D01*
X13933087Y-15038410D02*
X13961658Y-15038410D01*
X13961658Y-15038410D02*
X13980706Y-15047934D01*
X13980706Y-15047934D02*
X13990230Y-15057458D01*
X13990230Y-15057458D02*
X13999753Y-15076506D01*
X13999753Y-15076506D02*
X13999753Y-15133648D01*
X13999753Y-15133648D02*
X13990230Y-15152696D01*
X13990230Y-15152696D02*
X13980706Y-15162220D01*
X13980706Y-15162220D02*
X13961658Y-15171744D01*
X13961658Y-15171744D02*
X13933087Y-15171744D01*
X14114039Y-15171744D02*
X14094991Y-15162220D01*
X14094991Y-15162220D02*
X14085468Y-15143172D01*
X14085468Y-15143172D02*
X14085468Y-14971744D01*
X14266420Y-15162220D02*
X14247372Y-15171744D01*
X14247372Y-15171744D02*
X14209277Y-15171744D01*
X14209277Y-15171744D02*
X14190230Y-15162220D01*
X14190230Y-15162220D02*
X14180706Y-15143172D01*
X14180706Y-15143172D02*
X14180706Y-15066982D01*
X14180706Y-15066982D02*
X14190230Y-15047934D01*
X14190230Y-15047934D02*
X14209277Y-15038410D01*
X14209277Y-15038410D02*
X14247372Y-15038410D01*
X14247372Y-15038410D02*
X14266420Y-15047934D01*
X14266420Y-15047934D02*
X14275944Y-15066982D01*
X14275944Y-15066982D02*
X14275944Y-15086029D01*
X14275944Y-15086029D02*
X14180706Y-15105077D01*
X14352134Y-15162220D02*
X14371182Y-15171744D01*
X14371182Y-15171744D02*
X14409277Y-15171744D01*
X14409277Y-15171744D02*
X14428325Y-15162220D01*
X14428325Y-15162220D02*
X14437849Y-15143172D01*
X14437849Y-15143172D02*
X14437849Y-15133648D01*
X14437849Y-15133648D02*
X14428325Y-15114601D01*
X14428325Y-15114601D02*
X14409277Y-15105077D01*
X14409277Y-15105077D02*
X14380706Y-15105077D01*
X14380706Y-15105077D02*
X14361658Y-15095553D01*
X14361658Y-15095553D02*
X14352134Y-15076506D01*
X14352134Y-15076506D02*
X14352134Y-15066982D01*
X14352134Y-15066982D02*
X14361658Y-15047934D01*
X14361658Y-15047934D02*
X14380706Y-15038410D01*
X14380706Y-15038410D02*
X14409277Y-15038410D01*
X14409277Y-15038410D02*
X14428325Y-15047934D01*
X14504515Y-15247934D02*
X14514039Y-15238410D01*
X14514039Y-15238410D02*
X14533087Y-15209839D01*
X14533087Y-15209839D02*
X14542611Y-15190791D01*
X14542611Y-15190791D02*
X14552134Y-15162220D01*
X14552134Y-15162220D02*
X14561658Y-15114601D01*
X14561658Y-15114601D02*
X14561658Y-15076506D01*
X14561658Y-15076506D02*
X14552134Y-15028887D01*
X14552134Y-15028887D02*
X14542611Y-15000315D01*
X14542611Y-15000315D02*
X14533087Y-14981268D01*
X14533087Y-14981268D02*
X14514039Y-14952696D01*
X14514039Y-14952696D02*
X14504515Y-14943172D01*
D13*
X9310400Y-15306160D02*
X9310400Y-15382360D01*
X9272300Y-15344260D02*
X9348500Y-15344260D01*
D10*
X9647372Y-15235744D02*
X9666420Y-15235744D01*
X9666420Y-15235744D02*
X9685467Y-15245268D01*
X9685467Y-15245268D02*
X9694991Y-15254791D01*
X9694991Y-15254791D02*
X9704515Y-15273839D01*
X9704515Y-15273839D02*
X9714039Y-15311934D01*
X9714039Y-15311934D02*
X9714039Y-15359553D01*
X9714039Y-15359553D02*
X9704515Y-15397648D01*
X9704515Y-15397648D02*
X9694991Y-15416696D01*
X9694991Y-15416696D02*
X9685467Y-15426220D01*
X9685467Y-15426220D02*
X9666420Y-15435744D01*
X9666420Y-15435744D02*
X9647372Y-15435744D01*
X9647372Y-15435744D02*
X9628324Y-15426220D01*
X9628324Y-15426220D02*
X9618801Y-15416696D01*
X9618801Y-15416696D02*
X9609277Y-15397648D01*
X9609277Y-15397648D02*
X9599753Y-15359553D01*
X9599753Y-15359553D02*
X9599753Y-15311934D01*
X9599753Y-15311934D02*
X9609277Y-15273839D01*
X9609277Y-15273839D02*
X9618801Y-15254791D01*
X9618801Y-15254791D02*
X9628324Y-15245268D01*
X9628324Y-15245268D02*
X9647372Y-15235744D01*
X9799753Y-15416696D02*
X9809277Y-15426220D01*
X9809277Y-15426220D02*
X9799753Y-15435744D01*
X9799753Y-15435744D02*
X9790229Y-15426220D01*
X9790229Y-15426220D02*
X9799753Y-15416696D01*
X9799753Y-15416696D02*
X9799753Y-15435744D01*
X9875944Y-15235744D02*
X10009277Y-15235744D01*
X10009277Y-15235744D02*
X9923563Y-15435744D01*
X10171182Y-15235744D02*
X10133086Y-15235744D01*
X10133086Y-15235744D02*
X10114039Y-15245268D01*
X10114039Y-15245268D02*
X10104515Y-15254791D01*
X10104515Y-15254791D02*
X10085467Y-15283363D01*
X10085467Y-15283363D02*
X10075944Y-15321458D01*
X10075944Y-15321458D02*
X10075944Y-15397648D01*
X10075944Y-15397648D02*
X10085467Y-15416696D01*
X10085467Y-15416696D02*
X10094991Y-15426220D01*
X10094991Y-15426220D02*
X10114039Y-15435744D01*
X10114039Y-15435744D02*
X10152134Y-15435744D01*
X10152134Y-15435744D02*
X10171182Y-15426220D01*
X10171182Y-15426220D02*
X10180705Y-15416696D01*
X10180705Y-15416696D02*
X10190229Y-15397648D01*
X10190229Y-15397648D02*
X10190229Y-15350029D01*
X10190229Y-15350029D02*
X10180705Y-15330982D01*
X10180705Y-15330982D02*
X10171182Y-15321458D01*
X10171182Y-15321458D02*
X10152134Y-15311934D01*
X10152134Y-15311934D02*
X10114039Y-15311934D01*
X10114039Y-15311934D02*
X10094991Y-15321458D01*
X10094991Y-15321458D02*
X10085467Y-15330982D01*
X10085467Y-15330982D02*
X10075944Y-15350029D01*
X10266420Y-15254791D02*
X10275944Y-15245268D01*
X10275944Y-15245268D02*
X10294991Y-15235744D01*
X10294991Y-15235744D02*
X10342610Y-15235744D01*
X10342610Y-15235744D02*
X10361658Y-15245268D01*
X10361658Y-15245268D02*
X10371182Y-15254791D01*
X10371182Y-15254791D02*
X10380705Y-15273839D01*
X10380705Y-15273839D02*
X10380705Y-15292887D01*
X10380705Y-15292887D02*
X10371182Y-15321458D01*
X10371182Y-15321458D02*
X10256896Y-15435744D01*
X10256896Y-15435744D02*
X10380705Y-15435744D01*
X10466420Y-15435744D02*
X10466420Y-15302410D01*
X10466420Y-15321458D02*
X10475944Y-15311934D01*
X10475944Y-15311934D02*
X10494991Y-15302410D01*
X10494991Y-15302410D02*
X10523563Y-15302410D01*
X10523563Y-15302410D02*
X10542610Y-15311934D01*
X10542610Y-15311934D02*
X10552134Y-15330982D01*
X10552134Y-15330982D02*
X10552134Y-15435744D01*
X10552134Y-15330982D02*
X10561658Y-15311934D01*
X10561658Y-15311934D02*
X10580705Y-15302410D01*
X10580705Y-15302410D02*
X10609277Y-15302410D01*
X10609277Y-15302410D02*
X10628325Y-15311934D01*
X10628325Y-15311934D02*
X10637848Y-15330982D01*
X10637848Y-15330982D02*
X10637848Y-15435744D01*
X10733086Y-15435744D02*
X10733086Y-15302410D01*
X10733086Y-15321458D02*
X10742610Y-15311934D01*
X10742610Y-15311934D02*
X10761658Y-15302410D01*
X10761658Y-15302410D02*
X10790229Y-15302410D01*
X10790229Y-15302410D02*
X10809277Y-15311934D01*
X10809277Y-15311934D02*
X10818801Y-15330982D01*
X10818801Y-15330982D02*
X10818801Y-15435744D01*
X10818801Y-15330982D02*
X10828325Y-15311934D01*
X10828325Y-15311934D02*
X10847372Y-15302410D01*
X10847372Y-15302410D02*
X10875944Y-15302410D01*
X10875944Y-15302410D02*
X10894991Y-15311934D01*
X10894991Y-15311934D02*
X10904515Y-15330982D01*
X10904515Y-15330982D02*
X10904515Y-15435744D01*
X11294991Y-15226220D02*
X11123563Y-15483363D01*
X11552134Y-15235744D02*
X11571182Y-15235744D01*
X11571182Y-15235744D02*
X11590229Y-15245268D01*
X11590229Y-15245268D02*
X11599753Y-15254791D01*
X11599753Y-15254791D02*
X11609277Y-15273839D01*
X11609277Y-15273839D02*
X11618801Y-15311934D01*
X11618801Y-15311934D02*
X11618801Y-15359553D01*
X11618801Y-15359553D02*
X11609277Y-15397648D01*
X11609277Y-15397648D02*
X11599753Y-15416696D01*
X11599753Y-15416696D02*
X11590229Y-15426220D01*
X11590229Y-15426220D02*
X11571182Y-15435744D01*
X11571182Y-15435744D02*
X11552134Y-15435744D01*
X11552134Y-15435744D02*
X11533086Y-15426220D01*
X11533086Y-15426220D02*
X11523563Y-15416696D01*
X11523563Y-15416696D02*
X11514039Y-15397648D01*
X11514039Y-15397648D02*
X11504515Y-15359553D01*
X11504515Y-15359553D02*
X11504515Y-15311934D01*
X11504515Y-15311934D02*
X11514039Y-15273839D01*
X11514039Y-15273839D02*
X11523563Y-15254791D01*
X11523563Y-15254791D02*
X11533086Y-15245268D01*
X11533086Y-15245268D02*
X11552134Y-15235744D01*
X11704515Y-15416696D02*
X11714039Y-15426220D01*
X11714039Y-15426220D02*
X11704515Y-15435744D01*
X11704515Y-15435744D02*
X11694991Y-15426220D01*
X11694991Y-15426220D02*
X11704515Y-15416696D01*
X11704515Y-15416696D02*
X11704515Y-15435744D01*
X11837848Y-15235744D02*
X11856896Y-15235744D01*
X11856896Y-15235744D02*
X11875944Y-15245268D01*
X11875944Y-15245268D02*
X11885467Y-15254791D01*
X11885467Y-15254791D02*
X11894991Y-15273839D01*
X11894991Y-15273839D02*
X11904515Y-15311934D01*
X11904515Y-15311934D02*
X11904515Y-15359553D01*
X11904515Y-15359553D02*
X11894991Y-15397648D01*
X11894991Y-15397648D02*
X11885467Y-15416696D01*
X11885467Y-15416696D02*
X11875944Y-15426220D01*
X11875944Y-15426220D02*
X11856896Y-15435744D01*
X11856896Y-15435744D02*
X11837848Y-15435744D01*
X11837848Y-15435744D02*
X11818801Y-15426220D01*
X11818801Y-15426220D02*
X11809277Y-15416696D01*
X11809277Y-15416696D02*
X11799753Y-15397648D01*
X11799753Y-15397648D02*
X11790229Y-15359553D01*
X11790229Y-15359553D02*
X11790229Y-15311934D01*
X11790229Y-15311934D02*
X11799753Y-15273839D01*
X11799753Y-15273839D02*
X11809277Y-15254791D01*
X11809277Y-15254791D02*
X11818801Y-15245268D01*
X11818801Y-15245268D02*
X11837848Y-15235744D01*
X11971182Y-15235744D02*
X12094991Y-15235744D01*
X12094991Y-15235744D02*
X12028325Y-15311934D01*
X12028325Y-15311934D02*
X12056896Y-15311934D01*
X12056896Y-15311934D02*
X12075944Y-15321458D01*
X12075944Y-15321458D02*
X12085467Y-15330982D01*
X12085467Y-15330982D02*
X12094991Y-15350029D01*
X12094991Y-15350029D02*
X12094991Y-15397648D01*
X12094991Y-15397648D02*
X12085467Y-15416696D01*
X12085467Y-15416696D02*
X12075944Y-15426220D01*
X12075944Y-15426220D02*
X12056896Y-15435744D01*
X12056896Y-15435744D02*
X11999753Y-15435744D01*
X11999753Y-15435744D02*
X11980706Y-15426220D01*
X11980706Y-15426220D02*
X11971182Y-15416696D01*
X12218801Y-15235744D02*
X12237848Y-15235744D01*
X12237848Y-15235744D02*
X12256896Y-15245268D01*
X12256896Y-15245268D02*
X12266420Y-15254791D01*
X12266420Y-15254791D02*
X12275944Y-15273839D01*
X12275944Y-15273839D02*
X12285467Y-15311934D01*
X12285467Y-15311934D02*
X12285467Y-15359553D01*
X12285467Y-15359553D02*
X12275944Y-15397648D01*
X12275944Y-15397648D02*
X12266420Y-15416696D01*
X12266420Y-15416696D02*
X12256896Y-15426220D01*
X12256896Y-15426220D02*
X12237848Y-15435744D01*
X12237848Y-15435744D02*
X12218801Y-15435744D01*
X12218801Y-15435744D02*
X12199753Y-15426220D01*
X12199753Y-15426220D02*
X12190229Y-15416696D01*
X12190229Y-15416696D02*
X12180706Y-15397648D01*
X12180706Y-15397648D02*
X12171182Y-15359553D01*
X12171182Y-15359553D02*
X12171182Y-15311934D01*
X12171182Y-15311934D02*
X12180706Y-15273839D01*
X12180706Y-15273839D02*
X12190229Y-15254791D01*
X12190229Y-15254791D02*
X12199753Y-15245268D01*
X12199753Y-15245268D02*
X12218801Y-15235744D01*
X12409277Y-15235744D02*
X12428325Y-15235744D01*
X12428325Y-15235744D02*
X12447372Y-15245268D01*
X12447372Y-15245268D02*
X12456896Y-15254791D01*
X12456896Y-15254791D02*
X12466420Y-15273839D01*
X12466420Y-15273839D02*
X12475944Y-15311934D01*
X12475944Y-15311934D02*
X12475944Y-15359553D01*
X12475944Y-15359553D02*
X12466420Y-15397648D01*
X12466420Y-15397648D02*
X12456896Y-15416696D01*
X12456896Y-15416696D02*
X12447372Y-15426220D01*
X12447372Y-15426220D02*
X12428325Y-15435744D01*
X12428325Y-15435744D02*
X12409277Y-15435744D01*
X12409277Y-15435744D02*
X12390229Y-15426220D01*
X12390229Y-15426220D02*
X12380706Y-15416696D01*
X12380706Y-15416696D02*
X12371182Y-15397648D01*
X12371182Y-15397648D02*
X12361658Y-15359553D01*
X12361658Y-15359553D02*
X12361658Y-15311934D01*
X12361658Y-15311934D02*
X12371182Y-15273839D01*
X12371182Y-15273839D02*
X12380706Y-15254791D01*
X12380706Y-15254791D02*
X12390229Y-15245268D01*
X12390229Y-15245268D02*
X12409277Y-15235744D01*
X12552134Y-15235744D02*
X12552134Y-15273839D01*
X12628325Y-15235744D02*
X12628325Y-15273839D01*
X12923563Y-15511934D02*
X12914039Y-15502410D01*
X12914039Y-15502410D02*
X12894991Y-15473839D01*
X12894991Y-15473839D02*
X12885468Y-15454791D01*
X12885468Y-15454791D02*
X12875944Y-15426220D01*
X12875944Y-15426220D02*
X12866420Y-15378601D01*
X12866420Y-15378601D02*
X12866420Y-15340506D01*
X12866420Y-15340506D02*
X12875944Y-15292887D01*
X12875944Y-15292887D02*
X12885468Y-15264315D01*
X12885468Y-15264315D02*
X12894991Y-15245268D01*
X12894991Y-15245268D02*
X12914039Y-15216696D01*
X12914039Y-15216696D02*
X12923563Y-15207172D01*
X13028325Y-15321458D02*
X13009277Y-15311934D01*
X13009277Y-15311934D02*
X12999753Y-15302410D01*
X12999753Y-15302410D02*
X12990229Y-15283363D01*
X12990229Y-15283363D02*
X12990229Y-15273839D01*
X12990229Y-15273839D02*
X12999753Y-15254791D01*
X12999753Y-15254791D02*
X13009277Y-15245268D01*
X13009277Y-15245268D02*
X13028325Y-15235744D01*
X13028325Y-15235744D02*
X13066420Y-15235744D01*
X13066420Y-15235744D02*
X13085468Y-15245268D01*
X13085468Y-15245268D02*
X13094991Y-15254791D01*
X13094991Y-15254791D02*
X13104515Y-15273839D01*
X13104515Y-15273839D02*
X13104515Y-15283363D01*
X13104515Y-15283363D02*
X13094991Y-15302410D01*
X13094991Y-15302410D02*
X13085468Y-15311934D01*
X13085468Y-15311934D02*
X13066420Y-15321458D01*
X13066420Y-15321458D02*
X13028325Y-15321458D01*
X13028325Y-15321458D02*
X13009277Y-15330982D01*
X13009277Y-15330982D02*
X12999753Y-15340506D01*
X12999753Y-15340506D02*
X12990229Y-15359553D01*
X12990229Y-15359553D02*
X12990229Y-15397648D01*
X12990229Y-15397648D02*
X12999753Y-15416696D01*
X12999753Y-15416696D02*
X13009277Y-15426220D01*
X13009277Y-15426220D02*
X13028325Y-15435744D01*
X13028325Y-15435744D02*
X13066420Y-15435744D01*
X13066420Y-15435744D02*
X13085468Y-15426220D01*
X13085468Y-15426220D02*
X13094991Y-15416696D01*
X13094991Y-15416696D02*
X13104515Y-15397648D01*
X13104515Y-15397648D02*
X13104515Y-15359553D01*
X13104515Y-15359553D02*
X13094991Y-15340506D01*
X13094991Y-15340506D02*
X13085468Y-15330982D01*
X13085468Y-15330982D02*
X13066420Y-15321458D01*
X13171182Y-15235744D02*
X13294991Y-15235744D01*
X13294991Y-15235744D02*
X13228325Y-15311934D01*
X13228325Y-15311934D02*
X13256896Y-15311934D01*
X13256896Y-15311934D02*
X13275944Y-15321458D01*
X13275944Y-15321458D02*
X13285468Y-15330982D01*
X13285468Y-15330982D02*
X13294991Y-15350029D01*
X13294991Y-15350029D02*
X13294991Y-15397648D01*
X13294991Y-15397648D02*
X13285468Y-15416696D01*
X13285468Y-15416696D02*
X13275944Y-15426220D01*
X13275944Y-15426220D02*
X13256896Y-15435744D01*
X13256896Y-15435744D02*
X13199753Y-15435744D01*
X13199753Y-15435744D02*
X13180706Y-15426220D01*
X13180706Y-15426220D02*
X13171182Y-15416696D01*
X13533087Y-15435744D02*
X13533087Y-15235744D01*
X13618801Y-15435744D02*
X13618801Y-15330982D01*
X13618801Y-15330982D02*
X13609277Y-15311934D01*
X13609277Y-15311934D02*
X13590230Y-15302410D01*
X13590230Y-15302410D02*
X13561658Y-15302410D01*
X13561658Y-15302410D02*
X13542610Y-15311934D01*
X13542610Y-15311934D02*
X13533087Y-15321458D01*
X13742610Y-15435744D02*
X13723563Y-15426220D01*
X13723563Y-15426220D02*
X13714039Y-15416696D01*
X13714039Y-15416696D02*
X13704515Y-15397648D01*
X13704515Y-15397648D02*
X13704515Y-15340506D01*
X13704515Y-15340506D02*
X13714039Y-15321458D01*
X13714039Y-15321458D02*
X13723563Y-15311934D01*
X13723563Y-15311934D02*
X13742610Y-15302410D01*
X13742610Y-15302410D02*
X13771182Y-15302410D01*
X13771182Y-15302410D02*
X13790230Y-15311934D01*
X13790230Y-15311934D02*
X13799753Y-15321458D01*
X13799753Y-15321458D02*
X13809277Y-15340506D01*
X13809277Y-15340506D02*
X13809277Y-15397648D01*
X13809277Y-15397648D02*
X13799753Y-15416696D01*
X13799753Y-15416696D02*
X13790230Y-15426220D01*
X13790230Y-15426220D02*
X13771182Y-15435744D01*
X13771182Y-15435744D02*
X13742610Y-15435744D01*
X13923563Y-15435744D02*
X13904515Y-15426220D01*
X13904515Y-15426220D02*
X13894991Y-15407172D01*
X13894991Y-15407172D02*
X13894991Y-15235744D01*
X14075944Y-15426220D02*
X14056896Y-15435744D01*
X14056896Y-15435744D02*
X14018801Y-15435744D01*
X14018801Y-15435744D02*
X13999753Y-15426220D01*
X13999753Y-15426220D02*
X13990230Y-15407172D01*
X13990230Y-15407172D02*
X13990230Y-15330982D01*
X13990230Y-15330982D02*
X13999753Y-15311934D01*
X13999753Y-15311934D02*
X14018801Y-15302410D01*
X14018801Y-15302410D02*
X14056896Y-15302410D01*
X14056896Y-15302410D02*
X14075944Y-15311934D01*
X14075944Y-15311934D02*
X14085468Y-15330982D01*
X14085468Y-15330982D02*
X14085468Y-15350029D01*
X14085468Y-15350029D02*
X13990230Y-15369077D01*
X14161658Y-15426220D02*
X14180706Y-15435744D01*
X14180706Y-15435744D02*
X14218801Y-15435744D01*
X14218801Y-15435744D02*
X14237849Y-15426220D01*
X14237849Y-15426220D02*
X14247372Y-15407172D01*
X14247372Y-15407172D02*
X14247372Y-15397648D01*
X14247372Y-15397648D02*
X14237849Y-15378601D01*
X14237849Y-15378601D02*
X14218801Y-15369077D01*
X14218801Y-15369077D02*
X14190230Y-15369077D01*
X14190230Y-15369077D02*
X14171182Y-15359553D01*
X14171182Y-15359553D02*
X14161658Y-15340506D01*
X14161658Y-15340506D02*
X14161658Y-15330982D01*
X14161658Y-15330982D02*
X14171182Y-15311934D01*
X14171182Y-15311934D02*
X14190230Y-15302410D01*
X14190230Y-15302410D02*
X14218801Y-15302410D01*
X14218801Y-15302410D02*
X14237849Y-15311934D01*
X14314039Y-15511934D02*
X14323563Y-15502410D01*
X14323563Y-15502410D02*
X14342611Y-15473839D01*
X14342611Y-15473839D02*
X14352134Y-15454791D01*
X14352134Y-15454791D02*
X14361658Y-15426220D01*
X14361658Y-15426220D02*
X14371182Y-15378601D01*
X14371182Y-15378601D02*
X14371182Y-15340506D01*
X14371182Y-15340506D02*
X14361658Y-15292887D01*
X14361658Y-15292887D02*
X14352134Y-15264315D01*
X14352134Y-15264315D02*
X14342611Y-15245268D01*
X14342611Y-15245268D02*
X14323563Y-15216696D01*
X14323563Y-15216696D02*
X14314039Y-15207172D01*
D14*
X9336785Y-15636544D02*
X9336785Y-15579975D01*
X9280216Y-15579975D01*
X9280216Y-15636544D01*
X9336785Y-15636544D01*
D10*
X9647372Y-15499744D02*
X9666420Y-15499744D01*
X9666420Y-15499744D02*
X9685467Y-15509268D01*
X9685467Y-15509268D02*
X9694991Y-15518791D01*
X9694991Y-15518791D02*
X9704515Y-15537839D01*
X9704515Y-15537839D02*
X9714039Y-15575934D01*
X9714039Y-15575934D02*
X9714039Y-15623553D01*
X9714039Y-15623553D02*
X9704515Y-15661648D01*
X9704515Y-15661648D02*
X9694991Y-15680696D01*
X9694991Y-15680696D02*
X9685467Y-15690220D01*
X9685467Y-15690220D02*
X9666420Y-15699744D01*
X9666420Y-15699744D02*
X9647372Y-15699744D01*
X9647372Y-15699744D02*
X9628324Y-15690220D01*
X9628324Y-15690220D02*
X9618801Y-15680696D01*
X9618801Y-15680696D02*
X9609277Y-15661648D01*
X9609277Y-15661648D02*
X9599753Y-15623553D01*
X9599753Y-15623553D02*
X9599753Y-15575934D01*
X9599753Y-15575934D02*
X9609277Y-15537839D01*
X9609277Y-15537839D02*
X9618801Y-15518791D01*
X9618801Y-15518791D02*
X9628324Y-15509268D01*
X9628324Y-15509268D02*
X9647372Y-15499744D01*
X9799753Y-15680696D02*
X9809277Y-15690220D01*
X9809277Y-15690220D02*
X9799753Y-15699744D01*
X9799753Y-15699744D02*
X9790229Y-15690220D01*
X9790229Y-15690220D02*
X9799753Y-15680696D01*
X9799753Y-15680696D02*
X9799753Y-15699744D01*
X9923563Y-15585458D02*
X9904515Y-15575934D01*
X9904515Y-15575934D02*
X9894991Y-15566410D01*
X9894991Y-15566410D02*
X9885467Y-15547363D01*
X9885467Y-15547363D02*
X9885467Y-15537839D01*
X9885467Y-15537839D02*
X9894991Y-15518791D01*
X9894991Y-15518791D02*
X9904515Y-15509268D01*
X9904515Y-15509268D02*
X9923563Y-15499744D01*
X9923563Y-15499744D02*
X9961658Y-15499744D01*
X9961658Y-15499744D02*
X9980705Y-15509268D01*
X9980705Y-15509268D02*
X9990229Y-15518791D01*
X9990229Y-15518791D02*
X9999753Y-15537839D01*
X9999753Y-15537839D02*
X9999753Y-15547363D01*
X9999753Y-15547363D02*
X9990229Y-15566410D01*
X9990229Y-15566410D02*
X9980705Y-15575934D01*
X9980705Y-15575934D02*
X9961658Y-15585458D01*
X9961658Y-15585458D02*
X9923563Y-15585458D01*
X9923563Y-15585458D02*
X9904515Y-15594982D01*
X9904515Y-15594982D02*
X9894991Y-15604506D01*
X9894991Y-15604506D02*
X9885467Y-15623553D01*
X9885467Y-15623553D02*
X9885467Y-15661648D01*
X9885467Y-15661648D02*
X9894991Y-15680696D01*
X9894991Y-15680696D02*
X9904515Y-15690220D01*
X9904515Y-15690220D02*
X9923563Y-15699744D01*
X9923563Y-15699744D02*
X9961658Y-15699744D01*
X9961658Y-15699744D02*
X9980705Y-15690220D01*
X9980705Y-15690220D02*
X9990229Y-15680696D01*
X9990229Y-15680696D02*
X9999753Y-15661648D01*
X9999753Y-15661648D02*
X9999753Y-15623553D01*
X9999753Y-15623553D02*
X9990229Y-15604506D01*
X9990229Y-15604506D02*
X9980705Y-15594982D01*
X9980705Y-15594982D02*
X9961658Y-15585458D01*
X10123563Y-15499744D02*
X10142610Y-15499744D01*
X10142610Y-15499744D02*
X10161658Y-15509268D01*
X10161658Y-15509268D02*
X10171182Y-15518791D01*
X10171182Y-15518791D02*
X10180705Y-15537839D01*
X10180705Y-15537839D02*
X10190229Y-15575934D01*
X10190229Y-15575934D02*
X10190229Y-15623553D01*
X10190229Y-15623553D02*
X10180705Y-15661648D01*
X10180705Y-15661648D02*
X10171182Y-15680696D01*
X10171182Y-15680696D02*
X10161658Y-15690220D01*
X10161658Y-15690220D02*
X10142610Y-15699744D01*
X10142610Y-15699744D02*
X10123563Y-15699744D01*
X10123563Y-15699744D02*
X10104515Y-15690220D01*
X10104515Y-15690220D02*
X10094991Y-15680696D01*
X10094991Y-15680696D02*
X10085467Y-15661648D01*
X10085467Y-15661648D02*
X10075944Y-15623553D01*
X10075944Y-15623553D02*
X10075944Y-15575934D01*
X10075944Y-15575934D02*
X10085467Y-15537839D01*
X10085467Y-15537839D02*
X10094991Y-15518791D01*
X10094991Y-15518791D02*
X10104515Y-15509268D01*
X10104515Y-15509268D02*
X10123563Y-15499744D01*
X10314039Y-15499744D02*
X10333086Y-15499744D01*
X10333086Y-15499744D02*
X10352134Y-15509268D01*
X10352134Y-15509268D02*
X10361658Y-15518791D01*
X10361658Y-15518791D02*
X10371182Y-15537839D01*
X10371182Y-15537839D02*
X10380705Y-15575934D01*
X10380705Y-15575934D02*
X10380705Y-15623553D01*
X10380705Y-15623553D02*
X10371182Y-15661648D01*
X10371182Y-15661648D02*
X10361658Y-15680696D01*
X10361658Y-15680696D02*
X10352134Y-15690220D01*
X10352134Y-15690220D02*
X10333086Y-15699744D01*
X10333086Y-15699744D02*
X10314039Y-15699744D01*
X10314039Y-15699744D02*
X10294991Y-15690220D01*
X10294991Y-15690220D02*
X10285467Y-15680696D01*
X10285467Y-15680696D02*
X10275944Y-15661648D01*
X10275944Y-15661648D02*
X10266420Y-15623553D01*
X10266420Y-15623553D02*
X10266420Y-15575934D01*
X10266420Y-15575934D02*
X10275944Y-15537839D01*
X10275944Y-15537839D02*
X10285467Y-15518791D01*
X10285467Y-15518791D02*
X10294991Y-15509268D01*
X10294991Y-15509268D02*
X10314039Y-15499744D01*
X10466420Y-15699744D02*
X10466420Y-15566410D01*
X10466420Y-15585458D02*
X10475944Y-15575934D01*
X10475944Y-15575934D02*
X10494991Y-15566410D01*
X10494991Y-15566410D02*
X10523563Y-15566410D01*
X10523563Y-15566410D02*
X10542610Y-15575934D01*
X10542610Y-15575934D02*
X10552134Y-15594982D01*
X10552134Y-15594982D02*
X10552134Y-15699744D01*
X10552134Y-15594982D02*
X10561658Y-15575934D01*
X10561658Y-15575934D02*
X10580705Y-15566410D01*
X10580705Y-15566410D02*
X10609277Y-15566410D01*
X10609277Y-15566410D02*
X10628325Y-15575934D01*
X10628325Y-15575934D02*
X10637848Y-15594982D01*
X10637848Y-15594982D02*
X10637848Y-15699744D01*
X10733086Y-15699744D02*
X10733086Y-15566410D01*
X10733086Y-15585458D02*
X10742610Y-15575934D01*
X10742610Y-15575934D02*
X10761658Y-15566410D01*
X10761658Y-15566410D02*
X10790229Y-15566410D01*
X10790229Y-15566410D02*
X10809277Y-15575934D01*
X10809277Y-15575934D02*
X10818801Y-15594982D01*
X10818801Y-15594982D02*
X10818801Y-15699744D01*
X10818801Y-15594982D02*
X10828325Y-15575934D01*
X10828325Y-15575934D02*
X10847372Y-15566410D01*
X10847372Y-15566410D02*
X10875944Y-15566410D01*
X10875944Y-15566410D02*
X10894991Y-15575934D01*
X10894991Y-15575934D02*
X10904515Y-15594982D01*
X10904515Y-15594982D02*
X10904515Y-15699744D01*
X11294991Y-15490220D02*
X11123563Y-15747363D01*
X11552134Y-15499744D02*
X11571182Y-15499744D01*
X11571182Y-15499744D02*
X11590229Y-15509268D01*
X11590229Y-15509268D02*
X11599753Y-15518791D01*
X11599753Y-15518791D02*
X11609277Y-15537839D01*
X11609277Y-15537839D02*
X11618801Y-15575934D01*
X11618801Y-15575934D02*
X11618801Y-15623553D01*
X11618801Y-15623553D02*
X11609277Y-15661648D01*
X11609277Y-15661648D02*
X11599753Y-15680696D01*
X11599753Y-15680696D02*
X11590229Y-15690220D01*
X11590229Y-15690220D02*
X11571182Y-15699744D01*
X11571182Y-15699744D02*
X11552134Y-15699744D01*
X11552134Y-15699744D02*
X11533086Y-15690220D01*
X11533086Y-15690220D02*
X11523563Y-15680696D01*
X11523563Y-15680696D02*
X11514039Y-15661648D01*
X11514039Y-15661648D02*
X11504515Y-15623553D01*
X11504515Y-15623553D02*
X11504515Y-15575934D01*
X11504515Y-15575934D02*
X11514039Y-15537839D01*
X11514039Y-15537839D02*
X11523563Y-15518791D01*
X11523563Y-15518791D02*
X11533086Y-15509268D01*
X11533086Y-15509268D02*
X11552134Y-15499744D01*
X11704515Y-15680696D02*
X11714039Y-15690220D01*
X11714039Y-15690220D02*
X11704515Y-15699744D01*
X11704515Y-15699744D02*
X11694991Y-15690220D01*
X11694991Y-15690220D02*
X11704515Y-15680696D01*
X11704515Y-15680696D02*
X11704515Y-15699744D01*
X11837848Y-15499744D02*
X11856896Y-15499744D01*
X11856896Y-15499744D02*
X11875944Y-15509268D01*
X11875944Y-15509268D02*
X11885467Y-15518791D01*
X11885467Y-15518791D02*
X11894991Y-15537839D01*
X11894991Y-15537839D02*
X11904515Y-15575934D01*
X11904515Y-15575934D02*
X11904515Y-15623553D01*
X11904515Y-15623553D02*
X11894991Y-15661648D01*
X11894991Y-15661648D02*
X11885467Y-15680696D01*
X11885467Y-15680696D02*
X11875944Y-15690220D01*
X11875944Y-15690220D02*
X11856896Y-15699744D01*
X11856896Y-15699744D02*
X11837848Y-15699744D01*
X11837848Y-15699744D02*
X11818801Y-15690220D01*
X11818801Y-15690220D02*
X11809277Y-15680696D01*
X11809277Y-15680696D02*
X11799753Y-15661648D01*
X11799753Y-15661648D02*
X11790229Y-15623553D01*
X11790229Y-15623553D02*
X11790229Y-15575934D01*
X11790229Y-15575934D02*
X11799753Y-15537839D01*
X11799753Y-15537839D02*
X11809277Y-15518791D01*
X11809277Y-15518791D02*
X11818801Y-15509268D01*
X11818801Y-15509268D02*
X11837848Y-15499744D01*
X11971182Y-15499744D02*
X12094991Y-15499744D01*
X12094991Y-15499744D02*
X12028325Y-15575934D01*
X12028325Y-15575934D02*
X12056896Y-15575934D01*
X12056896Y-15575934D02*
X12075944Y-15585458D01*
X12075944Y-15585458D02*
X12085467Y-15594982D01*
X12085467Y-15594982D02*
X12094991Y-15614029D01*
X12094991Y-15614029D02*
X12094991Y-15661648D01*
X12094991Y-15661648D02*
X12085467Y-15680696D01*
X12085467Y-15680696D02*
X12075944Y-15690220D01*
X12075944Y-15690220D02*
X12056896Y-15699744D01*
X12056896Y-15699744D02*
X11999753Y-15699744D01*
X11999753Y-15699744D02*
X11980706Y-15690220D01*
X11980706Y-15690220D02*
X11971182Y-15680696D01*
X12285467Y-15699744D02*
X12171182Y-15699744D01*
X12228325Y-15699744D02*
X12228325Y-15499744D01*
X12228325Y-15499744D02*
X12209277Y-15528315D01*
X12209277Y-15528315D02*
X12190229Y-15547363D01*
X12190229Y-15547363D02*
X12171182Y-15556887D01*
X12466420Y-15499744D02*
X12371182Y-15499744D01*
X12371182Y-15499744D02*
X12361658Y-15594982D01*
X12361658Y-15594982D02*
X12371182Y-15585458D01*
X12371182Y-15585458D02*
X12390229Y-15575934D01*
X12390229Y-15575934D02*
X12437848Y-15575934D01*
X12437848Y-15575934D02*
X12456896Y-15585458D01*
X12456896Y-15585458D02*
X12466420Y-15594982D01*
X12466420Y-15594982D02*
X12475944Y-15614029D01*
X12475944Y-15614029D02*
X12475944Y-15661648D01*
X12475944Y-15661648D02*
X12466420Y-15680696D01*
X12466420Y-15680696D02*
X12456896Y-15690220D01*
X12456896Y-15690220D02*
X12437848Y-15699744D01*
X12437848Y-15699744D02*
X12390229Y-15699744D01*
X12390229Y-15699744D02*
X12371182Y-15690220D01*
X12371182Y-15690220D02*
X12361658Y-15680696D01*
X12552134Y-15499744D02*
X12552134Y-15537839D01*
X12628325Y-15499744D02*
X12628325Y-15537839D01*
X12923563Y-15775934D02*
X12914039Y-15766410D01*
X12914039Y-15766410D02*
X12894991Y-15737839D01*
X12894991Y-15737839D02*
X12885468Y-15718791D01*
X12885468Y-15718791D02*
X12875944Y-15690220D01*
X12875944Y-15690220D02*
X12866420Y-15642601D01*
X12866420Y-15642601D02*
X12866420Y-15604506D01*
X12866420Y-15604506D02*
X12875944Y-15556887D01*
X12875944Y-15556887D02*
X12885468Y-15528315D01*
X12885468Y-15528315D02*
X12894991Y-15509268D01*
X12894991Y-15509268D02*
X12914039Y-15480696D01*
X12914039Y-15480696D02*
X12923563Y-15471172D01*
X13009277Y-15699744D02*
X13047372Y-15699744D01*
X13047372Y-15699744D02*
X13066420Y-15690220D01*
X13066420Y-15690220D02*
X13075944Y-15680696D01*
X13075944Y-15680696D02*
X13094991Y-15652125D01*
X13094991Y-15652125D02*
X13104515Y-15614029D01*
X13104515Y-15614029D02*
X13104515Y-15537839D01*
X13104515Y-15537839D02*
X13094991Y-15518791D01*
X13094991Y-15518791D02*
X13085468Y-15509268D01*
X13085468Y-15509268D02*
X13066420Y-15499744D01*
X13066420Y-15499744D02*
X13028325Y-15499744D01*
X13028325Y-15499744D02*
X13009277Y-15509268D01*
X13009277Y-15509268D02*
X12999753Y-15518791D01*
X12999753Y-15518791D02*
X12990229Y-15537839D01*
X12990229Y-15537839D02*
X12990229Y-15585458D01*
X12990229Y-15585458D02*
X12999753Y-15604506D01*
X12999753Y-15604506D02*
X13009277Y-15614029D01*
X13009277Y-15614029D02*
X13028325Y-15623553D01*
X13028325Y-15623553D02*
X13066420Y-15623553D01*
X13066420Y-15623553D02*
X13085468Y-15614029D01*
X13085468Y-15614029D02*
X13094991Y-15604506D01*
X13094991Y-15604506D02*
X13104515Y-15585458D01*
X13294991Y-15699744D02*
X13180706Y-15699744D01*
X13237848Y-15699744D02*
X13237848Y-15499744D01*
X13237848Y-15499744D02*
X13218801Y-15528315D01*
X13218801Y-15528315D02*
X13199753Y-15547363D01*
X13199753Y-15547363D02*
X13180706Y-15556887D01*
X13533087Y-15699744D02*
X13533087Y-15499744D01*
X13618801Y-15699744D02*
X13618801Y-15594982D01*
X13618801Y-15594982D02*
X13609277Y-15575934D01*
X13609277Y-15575934D02*
X13590230Y-15566410D01*
X13590230Y-15566410D02*
X13561658Y-15566410D01*
X13561658Y-15566410D02*
X13542610Y-15575934D01*
X13542610Y-15575934D02*
X13533087Y-15585458D01*
X13742610Y-15699744D02*
X13723563Y-15690220D01*
X13723563Y-15690220D02*
X13714039Y-15680696D01*
X13714039Y-15680696D02*
X13704515Y-15661648D01*
X13704515Y-15661648D02*
X13704515Y-15604506D01*
X13704515Y-15604506D02*
X13714039Y-15585458D01*
X13714039Y-15585458D02*
X13723563Y-15575934D01*
X13723563Y-15575934D02*
X13742610Y-15566410D01*
X13742610Y-15566410D02*
X13771182Y-15566410D01*
X13771182Y-15566410D02*
X13790230Y-15575934D01*
X13790230Y-15575934D02*
X13799753Y-15585458D01*
X13799753Y-15585458D02*
X13809277Y-15604506D01*
X13809277Y-15604506D02*
X13809277Y-15661648D01*
X13809277Y-15661648D02*
X13799753Y-15680696D01*
X13799753Y-15680696D02*
X13790230Y-15690220D01*
X13790230Y-15690220D02*
X13771182Y-15699744D01*
X13771182Y-15699744D02*
X13742610Y-15699744D01*
X13923563Y-15699744D02*
X13904515Y-15690220D01*
X13904515Y-15690220D02*
X13894991Y-15671172D01*
X13894991Y-15671172D02*
X13894991Y-15499744D01*
X14075944Y-15690220D02*
X14056896Y-15699744D01*
X14056896Y-15699744D02*
X14018801Y-15699744D01*
X14018801Y-15699744D02*
X13999753Y-15690220D01*
X13999753Y-15690220D02*
X13990230Y-15671172D01*
X13990230Y-15671172D02*
X13990230Y-15594982D01*
X13990230Y-15594982D02*
X13999753Y-15575934D01*
X13999753Y-15575934D02*
X14018801Y-15566410D01*
X14018801Y-15566410D02*
X14056896Y-15566410D01*
X14056896Y-15566410D02*
X14075944Y-15575934D01*
X14075944Y-15575934D02*
X14085468Y-15594982D01*
X14085468Y-15594982D02*
X14085468Y-15614029D01*
X14085468Y-15614029D02*
X13990230Y-15633077D01*
X14161658Y-15690220D02*
X14180706Y-15699744D01*
X14180706Y-15699744D02*
X14218801Y-15699744D01*
X14218801Y-15699744D02*
X14237849Y-15690220D01*
X14237849Y-15690220D02*
X14247372Y-15671172D01*
X14247372Y-15671172D02*
X14247372Y-15661648D01*
X14247372Y-15661648D02*
X14237849Y-15642601D01*
X14237849Y-15642601D02*
X14218801Y-15633077D01*
X14218801Y-15633077D02*
X14190230Y-15633077D01*
X14190230Y-15633077D02*
X14171182Y-15623553D01*
X14171182Y-15623553D02*
X14161658Y-15604506D01*
X14161658Y-15604506D02*
X14161658Y-15594982D01*
X14161658Y-15594982D02*
X14171182Y-15575934D01*
X14171182Y-15575934D02*
X14190230Y-15566410D01*
X14190230Y-15566410D02*
X14218801Y-15566410D01*
X14218801Y-15566410D02*
X14237849Y-15575934D01*
X14314039Y-15775934D02*
X14323563Y-15766410D01*
X14323563Y-15766410D02*
X14342611Y-15737839D01*
X14342611Y-15737839D02*
X14352134Y-15718791D01*
X14352134Y-15718791D02*
X14361658Y-15690220D01*
X14361658Y-15690220D02*
X14371182Y-15642601D01*
X14371182Y-15642601D02*
X14371182Y-15604506D01*
X14371182Y-15604506D02*
X14361658Y-15556887D01*
X14361658Y-15556887D02*
X14352134Y-15528315D01*
X14352134Y-15528315D02*
X14342611Y-15509268D01*
X14342611Y-15509268D02*
X14323563Y-15480696D01*
X14323563Y-15480696D02*
X14314039Y-15471172D01*
D15*
X9298500Y-15922260D02*
X9348500Y-15872260D01*
X9298500Y-15822260D01*
X9248500Y-15872260D01*
X9298500Y-15922260D01*
D10*
X9714039Y-15963744D02*
X9599753Y-15963744D01*
X9656896Y-15963744D02*
X9656896Y-15763744D01*
X9656896Y-15763744D02*
X9637848Y-15792315D01*
X9637848Y-15792315D02*
X9618801Y-15811363D01*
X9618801Y-15811363D02*
X9599753Y-15820887D01*
X9799753Y-15944696D02*
X9809277Y-15954220D01*
X9809277Y-15954220D02*
X9799753Y-15963744D01*
X9799753Y-15963744D02*
X9790229Y-15954220D01*
X9790229Y-15954220D02*
X9799753Y-15944696D01*
X9799753Y-15944696D02*
X9799753Y-15963744D01*
X9933086Y-15763744D02*
X9952134Y-15763744D01*
X9952134Y-15763744D02*
X9971182Y-15773268D01*
X9971182Y-15773268D02*
X9980705Y-15782791D01*
X9980705Y-15782791D02*
X9990229Y-15801839D01*
X9990229Y-15801839D02*
X9999753Y-15839934D01*
X9999753Y-15839934D02*
X9999753Y-15887553D01*
X9999753Y-15887553D02*
X9990229Y-15925648D01*
X9990229Y-15925648D02*
X9980705Y-15944696D01*
X9980705Y-15944696D02*
X9971182Y-15954220D01*
X9971182Y-15954220D02*
X9952134Y-15963744D01*
X9952134Y-15963744D02*
X9933086Y-15963744D01*
X9933086Y-15963744D02*
X9914039Y-15954220D01*
X9914039Y-15954220D02*
X9904515Y-15944696D01*
X9904515Y-15944696D02*
X9894991Y-15925648D01*
X9894991Y-15925648D02*
X9885467Y-15887553D01*
X9885467Y-15887553D02*
X9885467Y-15839934D01*
X9885467Y-15839934D02*
X9894991Y-15801839D01*
X9894991Y-15801839D02*
X9904515Y-15782791D01*
X9904515Y-15782791D02*
X9914039Y-15773268D01*
X9914039Y-15773268D02*
X9933086Y-15763744D01*
X10123563Y-15763744D02*
X10142610Y-15763744D01*
X10142610Y-15763744D02*
X10161658Y-15773268D01*
X10161658Y-15773268D02*
X10171182Y-15782791D01*
X10171182Y-15782791D02*
X10180705Y-15801839D01*
X10180705Y-15801839D02*
X10190229Y-15839934D01*
X10190229Y-15839934D02*
X10190229Y-15887553D01*
X10190229Y-15887553D02*
X10180705Y-15925648D01*
X10180705Y-15925648D02*
X10171182Y-15944696D01*
X10171182Y-15944696D02*
X10161658Y-15954220D01*
X10161658Y-15954220D02*
X10142610Y-15963744D01*
X10142610Y-15963744D02*
X10123563Y-15963744D01*
X10123563Y-15963744D02*
X10104515Y-15954220D01*
X10104515Y-15954220D02*
X10094991Y-15944696D01*
X10094991Y-15944696D02*
X10085467Y-15925648D01*
X10085467Y-15925648D02*
X10075944Y-15887553D01*
X10075944Y-15887553D02*
X10075944Y-15839934D01*
X10075944Y-15839934D02*
X10085467Y-15801839D01*
X10085467Y-15801839D02*
X10094991Y-15782791D01*
X10094991Y-15782791D02*
X10104515Y-15773268D01*
X10104515Y-15773268D02*
X10123563Y-15763744D01*
X10314039Y-15763744D02*
X10333086Y-15763744D01*
X10333086Y-15763744D02*
X10352134Y-15773268D01*
X10352134Y-15773268D02*
X10361658Y-15782791D01*
X10361658Y-15782791D02*
X10371182Y-15801839D01*
X10371182Y-15801839D02*
X10380705Y-15839934D01*
X10380705Y-15839934D02*
X10380705Y-15887553D01*
X10380705Y-15887553D02*
X10371182Y-15925648D01*
X10371182Y-15925648D02*
X10361658Y-15944696D01*
X10361658Y-15944696D02*
X10352134Y-15954220D01*
X10352134Y-15954220D02*
X10333086Y-15963744D01*
X10333086Y-15963744D02*
X10314039Y-15963744D01*
X10314039Y-15963744D02*
X10294991Y-15954220D01*
X10294991Y-15954220D02*
X10285467Y-15944696D01*
X10285467Y-15944696D02*
X10275944Y-15925648D01*
X10275944Y-15925648D02*
X10266420Y-15887553D01*
X10266420Y-15887553D02*
X10266420Y-15839934D01*
X10266420Y-15839934D02*
X10275944Y-15801839D01*
X10275944Y-15801839D02*
X10285467Y-15782791D01*
X10285467Y-15782791D02*
X10294991Y-15773268D01*
X10294991Y-15773268D02*
X10314039Y-15763744D01*
X10466420Y-15963744D02*
X10466420Y-15830410D01*
X10466420Y-15849458D02*
X10475944Y-15839934D01*
X10475944Y-15839934D02*
X10494991Y-15830410D01*
X10494991Y-15830410D02*
X10523563Y-15830410D01*
X10523563Y-15830410D02*
X10542610Y-15839934D01*
X10542610Y-15839934D02*
X10552134Y-15858982D01*
X10552134Y-15858982D02*
X10552134Y-15963744D01*
X10552134Y-15858982D02*
X10561658Y-15839934D01*
X10561658Y-15839934D02*
X10580705Y-15830410D01*
X10580705Y-15830410D02*
X10609277Y-15830410D01*
X10609277Y-15830410D02*
X10628325Y-15839934D01*
X10628325Y-15839934D02*
X10637848Y-15858982D01*
X10637848Y-15858982D02*
X10637848Y-15963744D01*
X10733086Y-15963744D02*
X10733086Y-15830410D01*
X10733086Y-15849458D02*
X10742610Y-15839934D01*
X10742610Y-15839934D02*
X10761658Y-15830410D01*
X10761658Y-15830410D02*
X10790229Y-15830410D01*
X10790229Y-15830410D02*
X10809277Y-15839934D01*
X10809277Y-15839934D02*
X10818801Y-15858982D01*
X10818801Y-15858982D02*
X10818801Y-15963744D01*
X10818801Y-15858982D02*
X10828325Y-15839934D01*
X10828325Y-15839934D02*
X10847372Y-15830410D01*
X10847372Y-15830410D02*
X10875944Y-15830410D01*
X10875944Y-15830410D02*
X10894991Y-15839934D01*
X10894991Y-15839934D02*
X10904515Y-15858982D01*
X10904515Y-15858982D02*
X10904515Y-15963744D01*
X11294991Y-15754220D02*
X11123563Y-16011363D01*
X11552134Y-15763744D02*
X11571182Y-15763744D01*
X11571182Y-15763744D02*
X11590229Y-15773268D01*
X11590229Y-15773268D02*
X11599753Y-15782791D01*
X11599753Y-15782791D02*
X11609277Y-15801839D01*
X11609277Y-15801839D02*
X11618801Y-15839934D01*
X11618801Y-15839934D02*
X11618801Y-15887553D01*
X11618801Y-15887553D02*
X11609277Y-15925648D01*
X11609277Y-15925648D02*
X11599753Y-15944696D01*
X11599753Y-15944696D02*
X11590229Y-15954220D01*
X11590229Y-15954220D02*
X11571182Y-15963744D01*
X11571182Y-15963744D02*
X11552134Y-15963744D01*
X11552134Y-15963744D02*
X11533086Y-15954220D01*
X11533086Y-15954220D02*
X11523563Y-15944696D01*
X11523563Y-15944696D02*
X11514039Y-15925648D01*
X11514039Y-15925648D02*
X11504515Y-15887553D01*
X11504515Y-15887553D02*
X11504515Y-15839934D01*
X11504515Y-15839934D02*
X11514039Y-15801839D01*
X11514039Y-15801839D02*
X11523563Y-15782791D01*
X11523563Y-15782791D02*
X11533086Y-15773268D01*
X11533086Y-15773268D02*
X11552134Y-15763744D01*
X11704515Y-15944696D02*
X11714039Y-15954220D01*
X11714039Y-15954220D02*
X11704515Y-15963744D01*
X11704515Y-15963744D02*
X11694991Y-15954220D01*
X11694991Y-15954220D02*
X11704515Y-15944696D01*
X11704515Y-15944696D02*
X11704515Y-15963744D01*
X11837848Y-15763744D02*
X11856896Y-15763744D01*
X11856896Y-15763744D02*
X11875944Y-15773268D01*
X11875944Y-15773268D02*
X11885467Y-15782791D01*
X11885467Y-15782791D02*
X11894991Y-15801839D01*
X11894991Y-15801839D02*
X11904515Y-15839934D01*
X11904515Y-15839934D02*
X11904515Y-15887553D01*
X11904515Y-15887553D02*
X11894991Y-15925648D01*
X11894991Y-15925648D02*
X11885467Y-15944696D01*
X11885467Y-15944696D02*
X11875944Y-15954220D01*
X11875944Y-15954220D02*
X11856896Y-15963744D01*
X11856896Y-15963744D02*
X11837848Y-15963744D01*
X11837848Y-15963744D02*
X11818801Y-15954220D01*
X11818801Y-15954220D02*
X11809277Y-15944696D01*
X11809277Y-15944696D02*
X11799753Y-15925648D01*
X11799753Y-15925648D02*
X11790229Y-15887553D01*
X11790229Y-15887553D02*
X11790229Y-15839934D01*
X11790229Y-15839934D02*
X11799753Y-15801839D01*
X11799753Y-15801839D02*
X11809277Y-15782791D01*
X11809277Y-15782791D02*
X11818801Y-15773268D01*
X11818801Y-15773268D02*
X11837848Y-15763744D01*
X11971182Y-15763744D02*
X12094991Y-15763744D01*
X12094991Y-15763744D02*
X12028325Y-15839934D01*
X12028325Y-15839934D02*
X12056896Y-15839934D01*
X12056896Y-15839934D02*
X12075944Y-15849458D01*
X12075944Y-15849458D02*
X12085467Y-15858982D01*
X12085467Y-15858982D02*
X12094991Y-15878029D01*
X12094991Y-15878029D02*
X12094991Y-15925648D01*
X12094991Y-15925648D02*
X12085467Y-15944696D01*
X12085467Y-15944696D02*
X12075944Y-15954220D01*
X12075944Y-15954220D02*
X12056896Y-15963744D01*
X12056896Y-15963744D02*
X11999753Y-15963744D01*
X11999753Y-15963744D02*
X11980706Y-15954220D01*
X11980706Y-15954220D02*
X11971182Y-15944696D01*
X12190229Y-15963744D02*
X12228325Y-15963744D01*
X12228325Y-15963744D02*
X12247372Y-15954220D01*
X12247372Y-15954220D02*
X12256896Y-15944696D01*
X12256896Y-15944696D02*
X12275944Y-15916125D01*
X12275944Y-15916125D02*
X12285467Y-15878029D01*
X12285467Y-15878029D02*
X12285467Y-15801839D01*
X12285467Y-15801839D02*
X12275944Y-15782791D01*
X12275944Y-15782791D02*
X12266420Y-15773268D01*
X12266420Y-15773268D02*
X12247372Y-15763744D01*
X12247372Y-15763744D02*
X12209277Y-15763744D01*
X12209277Y-15763744D02*
X12190229Y-15773268D01*
X12190229Y-15773268D02*
X12180706Y-15782791D01*
X12180706Y-15782791D02*
X12171182Y-15801839D01*
X12171182Y-15801839D02*
X12171182Y-15849458D01*
X12171182Y-15849458D02*
X12180706Y-15868506D01*
X12180706Y-15868506D02*
X12190229Y-15878029D01*
X12190229Y-15878029D02*
X12209277Y-15887553D01*
X12209277Y-15887553D02*
X12247372Y-15887553D01*
X12247372Y-15887553D02*
X12266420Y-15878029D01*
X12266420Y-15878029D02*
X12275944Y-15868506D01*
X12275944Y-15868506D02*
X12285467Y-15849458D01*
X12456896Y-15830410D02*
X12456896Y-15963744D01*
X12409277Y-15754220D02*
X12361658Y-15897077D01*
X12361658Y-15897077D02*
X12485467Y-15897077D01*
X12552134Y-15763744D02*
X12552134Y-15801839D01*
X12628325Y-15763744D02*
X12628325Y-15801839D01*
X12923563Y-16039934D02*
X12914039Y-16030410D01*
X12914039Y-16030410D02*
X12894991Y-16001839D01*
X12894991Y-16001839D02*
X12885468Y-15982791D01*
X12885468Y-15982791D02*
X12875944Y-15954220D01*
X12875944Y-15954220D02*
X12866420Y-15906601D01*
X12866420Y-15906601D02*
X12866420Y-15868506D01*
X12866420Y-15868506D02*
X12875944Y-15820887D01*
X12875944Y-15820887D02*
X12885468Y-15792315D01*
X12885468Y-15792315D02*
X12894991Y-15773268D01*
X12894991Y-15773268D02*
X12914039Y-15744696D01*
X12914039Y-15744696D02*
X12923563Y-15735172D01*
X13104515Y-15963744D02*
X12990229Y-15963744D01*
X13047372Y-15963744D02*
X13047372Y-15763744D01*
X13047372Y-15763744D02*
X13028325Y-15792315D01*
X13028325Y-15792315D02*
X13009277Y-15811363D01*
X13009277Y-15811363D02*
X12990229Y-15820887D01*
X13294991Y-15963744D02*
X13180706Y-15963744D01*
X13237848Y-15963744D02*
X13237848Y-15763744D01*
X13237848Y-15763744D02*
X13218801Y-15792315D01*
X13218801Y-15792315D02*
X13199753Y-15811363D01*
X13199753Y-15811363D02*
X13180706Y-15820887D01*
X13361658Y-15763744D02*
X13494991Y-15763744D01*
X13494991Y-15763744D02*
X13409277Y-15963744D01*
X13723563Y-15963744D02*
X13723563Y-15763744D01*
X13809277Y-15963744D02*
X13809277Y-15858982D01*
X13809277Y-15858982D02*
X13799753Y-15839934D01*
X13799753Y-15839934D02*
X13780706Y-15830410D01*
X13780706Y-15830410D02*
X13752134Y-15830410D01*
X13752134Y-15830410D02*
X13733087Y-15839934D01*
X13733087Y-15839934D02*
X13723563Y-15849458D01*
X13933087Y-15963744D02*
X13914039Y-15954220D01*
X13914039Y-15954220D02*
X13904515Y-15944696D01*
X13904515Y-15944696D02*
X13894991Y-15925648D01*
X13894991Y-15925648D02*
X13894991Y-15868506D01*
X13894991Y-15868506D02*
X13904515Y-15849458D01*
X13904515Y-15849458D02*
X13914039Y-15839934D01*
X13914039Y-15839934D02*
X13933087Y-15830410D01*
X13933087Y-15830410D02*
X13961658Y-15830410D01*
X13961658Y-15830410D02*
X13980706Y-15839934D01*
X13980706Y-15839934D02*
X13990230Y-15849458D01*
X13990230Y-15849458D02*
X13999753Y-15868506D01*
X13999753Y-15868506D02*
X13999753Y-15925648D01*
X13999753Y-15925648D02*
X13990230Y-15944696D01*
X13990230Y-15944696D02*
X13980706Y-15954220D01*
X13980706Y-15954220D02*
X13961658Y-15963744D01*
X13961658Y-15963744D02*
X13933087Y-15963744D01*
X14114039Y-15963744D02*
X14094991Y-15954220D01*
X14094991Y-15954220D02*
X14085468Y-15935172D01*
X14085468Y-15935172D02*
X14085468Y-15763744D01*
X14266420Y-15954220D02*
X14247372Y-15963744D01*
X14247372Y-15963744D02*
X14209277Y-15963744D01*
X14209277Y-15963744D02*
X14190230Y-15954220D01*
X14190230Y-15954220D02*
X14180706Y-15935172D01*
X14180706Y-15935172D02*
X14180706Y-15858982D01*
X14180706Y-15858982D02*
X14190230Y-15839934D01*
X14190230Y-15839934D02*
X14209277Y-15830410D01*
X14209277Y-15830410D02*
X14247372Y-15830410D01*
X14247372Y-15830410D02*
X14266420Y-15839934D01*
X14266420Y-15839934D02*
X14275944Y-15858982D01*
X14275944Y-15858982D02*
X14275944Y-15878029D01*
X14275944Y-15878029D02*
X14180706Y-15897077D01*
X14352134Y-15954220D02*
X14371182Y-15963744D01*
X14371182Y-15963744D02*
X14409277Y-15963744D01*
X14409277Y-15963744D02*
X14428325Y-15954220D01*
X14428325Y-15954220D02*
X14437849Y-15935172D01*
X14437849Y-15935172D02*
X14437849Y-15925648D01*
X14437849Y-15925648D02*
X14428325Y-15906601D01*
X14428325Y-15906601D02*
X14409277Y-15897077D01*
X14409277Y-15897077D02*
X14380706Y-15897077D01*
X14380706Y-15897077D02*
X14361658Y-15887553D01*
X14361658Y-15887553D02*
X14352134Y-15868506D01*
X14352134Y-15868506D02*
X14352134Y-15858982D01*
X14352134Y-15858982D02*
X14361658Y-15839934D01*
X14361658Y-15839934D02*
X14380706Y-15830410D01*
X14380706Y-15830410D02*
X14409277Y-15830410D01*
X14409277Y-15830410D02*
X14428325Y-15839934D01*
X14504515Y-16039934D02*
X14514039Y-16030410D01*
X14514039Y-16030410D02*
X14533087Y-16001839D01*
X14533087Y-16001839D02*
X14542611Y-15982791D01*
X14542611Y-15982791D02*
X14552134Y-15954220D01*
X14552134Y-15954220D02*
X14561658Y-15906601D01*
X14561658Y-15906601D02*
X14561658Y-15868506D01*
X14561658Y-15868506D02*
X14552134Y-15820887D01*
X14552134Y-15820887D02*
X14542611Y-15792315D01*
X14542611Y-15792315D02*
X14533087Y-15773268D01*
X14533087Y-15773268D02*
X14514039Y-15744696D01*
X14514039Y-15744696D02*
X14504515Y-15735172D01*
D16*
X9246500Y-16085260D02*
X9348500Y-16187260D01*
X9348500Y-16085260D02*
X9246500Y-16187260D01*
X9348500Y-16136260D02*
G75*
G03*
X9348500Y-16136260I-51000J0D01*
G01*
D10*
X9714039Y-16227744D02*
X9599753Y-16227744D01*
X9656896Y-16227744D02*
X9656896Y-16027744D01*
X9656896Y-16027744D02*
X9637848Y-16056315D01*
X9637848Y-16056315D02*
X9618801Y-16075363D01*
X9618801Y-16075363D02*
X9599753Y-16084887D01*
X9799753Y-16208696D02*
X9809277Y-16218220D01*
X9809277Y-16218220D02*
X9799753Y-16227744D01*
X9799753Y-16227744D02*
X9790229Y-16218220D01*
X9790229Y-16218220D02*
X9799753Y-16208696D01*
X9799753Y-16208696D02*
X9799753Y-16227744D01*
X9933086Y-16027744D02*
X9952134Y-16027744D01*
X9952134Y-16027744D02*
X9971182Y-16037268D01*
X9971182Y-16037268D02*
X9980705Y-16046791D01*
X9980705Y-16046791D02*
X9990229Y-16065839D01*
X9990229Y-16065839D02*
X9999753Y-16103934D01*
X9999753Y-16103934D02*
X9999753Y-16151553D01*
X9999753Y-16151553D02*
X9990229Y-16189648D01*
X9990229Y-16189648D02*
X9980705Y-16208696D01*
X9980705Y-16208696D02*
X9971182Y-16218220D01*
X9971182Y-16218220D02*
X9952134Y-16227744D01*
X9952134Y-16227744D02*
X9933086Y-16227744D01*
X9933086Y-16227744D02*
X9914039Y-16218220D01*
X9914039Y-16218220D02*
X9904515Y-16208696D01*
X9904515Y-16208696D02*
X9894991Y-16189648D01*
X9894991Y-16189648D02*
X9885467Y-16151553D01*
X9885467Y-16151553D02*
X9885467Y-16103934D01*
X9885467Y-16103934D02*
X9894991Y-16065839D01*
X9894991Y-16065839D02*
X9904515Y-16046791D01*
X9904515Y-16046791D02*
X9914039Y-16037268D01*
X9914039Y-16037268D02*
X9933086Y-16027744D01*
X10075944Y-16046791D02*
X10085467Y-16037268D01*
X10085467Y-16037268D02*
X10104515Y-16027744D01*
X10104515Y-16027744D02*
X10152134Y-16027744D01*
X10152134Y-16027744D02*
X10171182Y-16037268D01*
X10171182Y-16037268D02*
X10180705Y-16046791D01*
X10180705Y-16046791D02*
X10190229Y-16065839D01*
X10190229Y-16065839D02*
X10190229Y-16084887D01*
X10190229Y-16084887D02*
X10180705Y-16113458D01*
X10180705Y-16113458D02*
X10066420Y-16227744D01*
X10066420Y-16227744D02*
X10190229Y-16227744D01*
X10314039Y-16027744D02*
X10333086Y-16027744D01*
X10333086Y-16027744D02*
X10352134Y-16037268D01*
X10352134Y-16037268D02*
X10361658Y-16046791D01*
X10361658Y-16046791D02*
X10371182Y-16065839D01*
X10371182Y-16065839D02*
X10380705Y-16103934D01*
X10380705Y-16103934D02*
X10380705Y-16151553D01*
X10380705Y-16151553D02*
X10371182Y-16189648D01*
X10371182Y-16189648D02*
X10361658Y-16208696D01*
X10361658Y-16208696D02*
X10352134Y-16218220D01*
X10352134Y-16218220D02*
X10333086Y-16227744D01*
X10333086Y-16227744D02*
X10314039Y-16227744D01*
X10314039Y-16227744D02*
X10294991Y-16218220D01*
X10294991Y-16218220D02*
X10285467Y-16208696D01*
X10285467Y-16208696D02*
X10275944Y-16189648D01*
X10275944Y-16189648D02*
X10266420Y-16151553D01*
X10266420Y-16151553D02*
X10266420Y-16103934D01*
X10266420Y-16103934D02*
X10275944Y-16065839D01*
X10275944Y-16065839D02*
X10285467Y-16046791D01*
X10285467Y-16046791D02*
X10294991Y-16037268D01*
X10294991Y-16037268D02*
X10314039Y-16027744D01*
X10466420Y-16227744D02*
X10466420Y-16094410D01*
X10466420Y-16113458D02*
X10475944Y-16103934D01*
X10475944Y-16103934D02*
X10494991Y-16094410D01*
X10494991Y-16094410D02*
X10523563Y-16094410D01*
X10523563Y-16094410D02*
X10542610Y-16103934D01*
X10542610Y-16103934D02*
X10552134Y-16122982D01*
X10552134Y-16122982D02*
X10552134Y-16227744D01*
X10552134Y-16122982D02*
X10561658Y-16103934D01*
X10561658Y-16103934D02*
X10580705Y-16094410D01*
X10580705Y-16094410D02*
X10609277Y-16094410D01*
X10609277Y-16094410D02*
X10628325Y-16103934D01*
X10628325Y-16103934D02*
X10637848Y-16122982D01*
X10637848Y-16122982D02*
X10637848Y-16227744D01*
X10733086Y-16227744D02*
X10733086Y-16094410D01*
X10733086Y-16113458D02*
X10742610Y-16103934D01*
X10742610Y-16103934D02*
X10761658Y-16094410D01*
X10761658Y-16094410D02*
X10790229Y-16094410D01*
X10790229Y-16094410D02*
X10809277Y-16103934D01*
X10809277Y-16103934D02*
X10818801Y-16122982D01*
X10818801Y-16122982D02*
X10818801Y-16227744D01*
X10818801Y-16122982D02*
X10828325Y-16103934D01*
X10828325Y-16103934D02*
X10847372Y-16094410D01*
X10847372Y-16094410D02*
X10875944Y-16094410D01*
X10875944Y-16094410D02*
X10894991Y-16103934D01*
X10894991Y-16103934D02*
X10904515Y-16122982D01*
X10904515Y-16122982D02*
X10904515Y-16227744D01*
X11294991Y-16018220D02*
X11123563Y-16275363D01*
X11552134Y-16027744D02*
X11571182Y-16027744D01*
X11571182Y-16027744D02*
X11590229Y-16037268D01*
X11590229Y-16037268D02*
X11599753Y-16046791D01*
X11599753Y-16046791D02*
X11609277Y-16065839D01*
X11609277Y-16065839D02*
X11618801Y-16103934D01*
X11618801Y-16103934D02*
X11618801Y-16151553D01*
X11618801Y-16151553D02*
X11609277Y-16189648D01*
X11609277Y-16189648D02*
X11599753Y-16208696D01*
X11599753Y-16208696D02*
X11590229Y-16218220D01*
X11590229Y-16218220D02*
X11571182Y-16227744D01*
X11571182Y-16227744D02*
X11552134Y-16227744D01*
X11552134Y-16227744D02*
X11533086Y-16218220D01*
X11533086Y-16218220D02*
X11523563Y-16208696D01*
X11523563Y-16208696D02*
X11514039Y-16189648D01*
X11514039Y-16189648D02*
X11504515Y-16151553D01*
X11504515Y-16151553D02*
X11504515Y-16103934D01*
X11504515Y-16103934D02*
X11514039Y-16065839D01*
X11514039Y-16065839D02*
X11523563Y-16046791D01*
X11523563Y-16046791D02*
X11533086Y-16037268D01*
X11533086Y-16037268D02*
X11552134Y-16027744D01*
X11704515Y-16208696D02*
X11714039Y-16218220D01*
X11714039Y-16218220D02*
X11704515Y-16227744D01*
X11704515Y-16227744D02*
X11694991Y-16218220D01*
X11694991Y-16218220D02*
X11704515Y-16208696D01*
X11704515Y-16208696D02*
X11704515Y-16227744D01*
X11837848Y-16027744D02*
X11856896Y-16027744D01*
X11856896Y-16027744D02*
X11875944Y-16037268D01*
X11875944Y-16037268D02*
X11885467Y-16046791D01*
X11885467Y-16046791D02*
X11894991Y-16065839D01*
X11894991Y-16065839D02*
X11904515Y-16103934D01*
X11904515Y-16103934D02*
X11904515Y-16151553D01*
X11904515Y-16151553D02*
X11894991Y-16189648D01*
X11894991Y-16189648D02*
X11885467Y-16208696D01*
X11885467Y-16208696D02*
X11875944Y-16218220D01*
X11875944Y-16218220D02*
X11856896Y-16227744D01*
X11856896Y-16227744D02*
X11837848Y-16227744D01*
X11837848Y-16227744D02*
X11818801Y-16218220D01*
X11818801Y-16218220D02*
X11809277Y-16208696D01*
X11809277Y-16208696D02*
X11799753Y-16189648D01*
X11799753Y-16189648D02*
X11790229Y-16151553D01*
X11790229Y-16151553D02*
X11790229Y-16103934D01*
X11790229Y-16103934D02*
X11799753Y-16065839D01*
X11799753Y-16065839D02*
X11809277Y-16046791D01*
X11809277Y-16046791D02*
X11818801Y-16037268D01*
X11818801Y-16037268D02*
X11837848Y-16027744D01*
X12075944Y-16094410D02*
X12075944Y-16227744D01*
X12028325Y-16018220D02*
X11980706Y-16161077D01*
X11980706Y-16161077D02*
X12104515Y-16161077D01*
X12218801Y-16027744D02*
X12237848Y-16027744D01*
X12237848Y-16027744D02*
X12256896Y-16037268D01*
X12256896Y-16037268D02*
X12266420Y-16046791D01*
X12266420Y-16046791D02*
X12275944Y-16065839D01*
X12275944Y-16065839D02*
X12285467Y-16103934D01*
X12285467Y-16103934D02*
X12285467Y-16151553D01*
X12285467Y-16151553D02*
X12275944Y-16189648D01*
X12275944Y-16189648D02*
X12266420Y-16208696D01*
X12266420Y-16208696D02*
X12256896Y-16218220D01*
X12256896Y-16218220D02*
X12237848Y-16227744D01*
X12237848Y-16227744D02*
X12218801Y-16227744D01*
X12218801Y-16227744D02*
X12199753Y-16218220D01*
X12199753Y-16218220D02*
X12190229Y-16208696D01*
X12190229Y-16208696D02*
X12180706Y-16189648D01*
X12180706Y-16189648D02*
X12171182Y-16151553D01*
X12171182Y-16151553D02*
X12171182Y-16103934D01*
X12171182Y-16103934D02*
X12180706Y-16065839D01*
X12180706Y-16065839D02*
X12190229Y-16046791D01*
X12190229Y-16046791D02*
X12199753Y-16037268D01*
X12199753Y-16037268D02*
X12218801Y-16027744D01*
X12361658Y-16046791D02*
X12371182Y-16037268D01*
X12371182Y-16037268D02*
X12390229Y-16027744D01*
X12390229Y-16027744D02*
X12437848Y-16027744D01*
X12437848Y-16027744D02*
X12456896Y-16037268D01*
X12456896Y-16037268D02*
X12466420Y-16046791D01*
X12466420Y-16046791D02*
X12475944Y-16065839D01*
X12475944Y-16065839D02*
X12475944Y-16084887D01*
X12475944Y-16084887D02*
X12466420Y-16113458D01*
X12466420Y-16113458D02*
X12352134Y-16227744D01*
X12352134Y-16227744D02*
X12475944Y-16227744D01*
X12552134Y-16027744D02*
X12552134Y-16065839D01*
X12628325Y-16027744D02*
X12628325Y-16065839D01*
X12923563Y-16303934D02*
X12914039Y-16294410D01*
X12914039Y-16294410D02*
X12894991Y-16265839D01*
X12894991Y-16265839D02*
X12885468Y-16246791D01*
X12885468Y-16246791D02*
X12875944Y-16218220D01*
X12875944Y-16218220D02*
X12866420Y-16170601D01*
X12866420Y-16170601D02*
X12866420Y-16132506D01*
X12866420Y-16132506D02*
X12875944Y-16084887D01*
X12875944Y-16084887D02*
X12885468Y-16056315D01*
X12885468Y-16056315D02*
X12894991Y-16037268D01*
X12894991Y-16037268D02*
X12914039Y-16008696D01*
X12914039Y-16008696D02*
X12923563Y-15999172D01*
X12980706Y-16027744D02*
X13104515Y-16027744D01*
X13104515Y-16027744D02*
X13037848Y-16103934D01*
X13037848Y-16103934D02*
X13066420Y-16103934D01*
X13066420Y-16103934D02*
X13085468Y-16113458D01*
X13085468Y-16113458D02*
X13094991Y-16122982D01*
X13094991Y-16122982D02*
X13104515Y-16142029D01*
X13104515Y-16142029D02*
X13104515Y-16189648D01*
X13104515Y-16189648D02*
X13094991Y-16208696D01*
X13094991Y-16208696D02*
X13085468Y-16218220D01*
X13085468Y-16218220D02*
X13066420Y-16227744D01*
X13066420Y-16227744D02*
X13009277Y-16227744D01*
X13009277Y-16227744D02*
X12990229Y-16218220D01*
X12990229Y-16218220D02*
X12980706Y-16208696D01*
X13218801Y-16113458D02*
X13199753Y-16103934D01*
X13199753Y-16103934D02*
X13190229Y-16094410D01*
X13190229Y-16094410D02*
X13180706Y-16075363D01*
X13180706Y-16075363D02*
X13180706Y-16065839D01*
X13180706Y-16065839D02*
X13190229Y-16046791D01*
X13190229Y-16046791D02*
X13199753Y-16037268D01*
X13199753Y-16037268D02*
X13218801Y-16027744D01*
X13218801Y-16027744D02*
X13256896Y-16027744D01*
X13256896Y-16027744D02*
X13275944Y-16037268D01*
X13275944Y-16037268D02*
X13285468Y-16046791D01*
X13285468Y-16046791D02*
X13294991Y-16065839D01*
X13294991Y-16065839D02*
X13294991Y-16075363D01*
X13294991Y-16075363D02*
X13285468Y-16094410D01*
X13285468Y-16094410D02*
X13275944Y-16103934D01*
X13275944Y-16103934D02*
X13256896Y-16113458D01*
X13256896Y-16113458D02*
X13218801Y-16113458D01*
X13218801Y-16113458D02*
X13199753Y-16122982D01*
X13199753Y-16122982D02*
X13190229Y-16132506D01*
X13190229Y-16132506D02*
X13180706Y-16151553D01*
X13180706Y-16151553D02*
X13180706Y-16189648D01*
X13180706Y-16189648D02*
X13190229Y-16208696D01*
X13190229Y-16208696D02*
X13199753Y-16218220D01*
X13199753Y-16218220D02*
X13218801Y-16227744D01*
X13218801Y-16227744D02*
X13256896Y-16227744D01*
X13256896Y-16227744D02*
X13275944Y-16218220D01*
X13275944Y-16218220D02*
X13285468Y-16208696D01*
X13285468Y-16208696D02*
X13294991Y-16189648D01*
X13294991Y-16189648D02*
X13294991Y-16151553D01*
X13294991Y-16151553D02*
X13285468Y-16132506D01*
X13285468Y-16132506D02*
X13275944Y-16122982D01*
X13275944Y-16122982D02*
X13256896Y-16113458D01*
X13533087Y-16227744D02*
X13533087Y-16027744D01*
X13618801Y-16227744D02*
X13618801Y-16122982D01*
X13618801Y-16122982D02*
X13609277Y-16103934D01*
X13609277Y-16103934D02*
X13590230Y-16094410D01*
X13590230Y-16094410D02*
X13561658Y-16094410D01*
X13561658Y-16094410D02*
X13542610Y-16103934D01*
X13542610Y-16103934D02*
X13533087Y-16113458D01*
X13742610Y-16227744D02*
X13723563Y-16218220D01*
X13723563Y-16218220D02*
X13714039Y-16208696D01*
X13714039Y-16208696D02*
X13704515Y-16189648D01*
X13704515Y-16189648D02*
X13704515Y-16132506D01*
X13704515Y-16132506D02*
X13714039Y-16113458D01*
X13714039Y-16113458D02*
X13723563Y-16103934D01*
X13723563Y-16103934D02*
X13742610Y-16094410D01*
X13742610Y-16094410D02*
X13771182Y-16094410D01*
X13771182Y-16094410D02*
X13790230Y-16103934D01*
X13790230Y-16103934D02*
X13799753Y-16113458D01*
X13799753Y-16113458D02*
X13809277Y-16132506D01*
X13809277Y-16132506D02*
X13809277Y-16189648D01*
X13809277Y-16189648D02*
X13799753Y-16208696D01*
X13799753Y-16208696D02*
X13790230Y-16218220D01*
X13790230Y-16218220D02*
X13771182Y-16227744D01*
X13771182Y-16227744D02*
X13742610Y-16227744D01*
X13923563Y-16227744D02*
X13904515Y-16218220D01*
X13904515Y-16218220D02*
X13894991Y-16199172D01*
X13894991Y-16199172D02*
X13894991Y-16027744D01*
X14075944Y-16218220D02*
X14056896Y-16227744D01*
X14056896Y-16227744D02*
X14018801Y-16227744D01*
X14018801Y-16227744D02*
X13999753Y-16218220D01*
X13999753Y-16218220D02*
X13990230Y-16199172D01*
X13990230Y-16199172D02*
X13990230Y-16122982D01*
X13990230Y-16122982D02*
X13999753Y-16103934D01*
X13999753Y-16103934D02*
X14018801Y-16094410D01*
X14018801Y-16094410D02*
X14056896Y-16094410D01*
X14056896Y-16094410D02*
X14075944Y-16103934D01*
X14075944Y-16103934D02*
X14085468Y-16122982D01*
X14085468Y-16122982D02*
X14085468Y-16142029D01*
X14085468Y-16142029D02*
X13990230Y-16161077D01*
X14161658Y-16218220D02*
X14180706Y-16227744D01*
X14180706Y-16227744D02*
X14218801Y-16227744D01*
X14218801Y-16227744D02*
X14237849Y-16218220D01*
X14237849Y-16218220D02*
X14247372Y-16199172D01*
X14247372Y-16199172D02*
X14247372Y-16189648D01*
X14247372Y-16189648D02*
X14237849Y-16170601D01*
X14237849Y-16170601D02*
X14218801Y-16161077D01*
X14218801Y-16161077D02*
X14190230Y-16161077D01*
X14190230Y-16161077D02*
X14171182Y-16151553D01*
X14171182Y-16151553D02*
X14161658Y-16132506D01*
X14161658Y-16132506D02*
X14161658Y-16122982D01*
X14161658Y-16122982D02*
X14171182Y-16103934D01*
X14171182Y-16103934D02*
X14190230Y-16094410D01*
X14190230Y-16094410D02*
X14218801Y-16094410D01*
X14218801Y-16094410D02*
X14237849Y-16103934D01*
X14314039Y-16303934D02*
X14323563Y-16294410D01*
X14323563Y-16294410D02*
X14342611Y-16265839D01*
X14342611Y-16265839D02*
X14352134Y-16246791D01*
X14352134Y-16246791D02*
X14361658Y-16218220D01*
X14361658Y-16218220D02*
X14371182Y-16170601D01*
X14371182Y-16170601D02*
X14371182Y-16132506D01*
X14371182Y-16132506D02*
X14361658Y-16084887D01*
X14361658Y-16084887D02*
X14352134Y-16056315D01*
X14352134Y-16056315D02*
X14342611Y-16037268D01*
X14342611Y-16037268D02*
X14323563Y-16008696D01*
X14323563Y-16008696D02*
X14314039Y-15999172D01*
D17*
X9238500Y-16345260D02*
X9348500Y-16455260D01*
X9348500Y-16345260D02*
X9238500Y-16455260D01*
X9293500Y-16345260D02*
X9293500Y-16455260D01*
X9238500Y-16400260D02*
X9348500Y-16400260D01*
D10*
X9714039Y-16491744D02*
X9599753Y-16491744D01*
X9656896Y-16491744D02*
X9656896Y-16291744D01*
X9656896Y-16291744D02*
X9637848Y-16320315D01*
X9637848Y-16320315D02*
X9618801Y-16339363D01*
X9618801Y-16339363D02*
X9599753Y-16348887D01*
X9799753Y-16472696D02*
X9809277Y-16482220D01*
X9809277Y-16482220D02*
X9799753Y-16491744D01*
X9799753Y-16491744D02*
X9790229Y-16482220D01*
X9790229Y-16482220D02*
X9799753Y-16472696D01*
X9799753Y-16472696D02*
X9799753Y-16491744D01*
X9999753Y-16491744D02*
X9885467Y-16491744D01*
X9942610Y-16491744D02*
X9942610Y-16291744D01*
X9942610Y-16291744D02*
X9923563Y-16320315D01*
X9923563Y-16320315D02*
X9904515Y-16339363D01*
X9904515Y-16339363D02*
X9885467Y-16348887D01*
X10123563Y-16291744D02*
X10142610Y-16291744D01*
X10142610Y-16291744D02*
X10161658Y-16301268D01*
X10161658Y-16301268D02*
X10171182Y-16310791D01*
X10171182Y-16310791D02*
X10180705Y-16329839D01*
X10180705Y-16329839D02*
X10190229Y-16367934D01*
X10190229Y-16367934D02*
X10190229Y-16415553D01*
X10190229Y-16415553D02*
X10180705Y-16453648D01*
X10180705Y-16453648D02*
X10171182Y-16472696D01*
X10171182Y-16472696D02*
X10161658Y-16482220D01*
X10161658Y-16482220D02*
X10142610Y-16491744D01*
X10142610Y-16491744D02*
X10123563Y-16491744D01*
X10123563Y-16491744D02*
X10104515Y-16482220D01*
X10104515Y-16482220D02*
X10094991Y-16472696D01*
X10094991Y-16472696D02*
X10085467Y-16453648D01*
X10085467Y-16453648D02*
X10075944Y-16415553D01*
X10075944Y-16415553D02*
X10075944Y-16367934D01*
X10075944Y-16367934D02*
X10085467Y-16329839D01*
X10085467Y-16329839D02*
X10094991Y-16310791D01*
X10094991Y-16310791D02*
X10104515Y-16301268D01*
X10104515Y-16301268D02*
X10123563Y-16291744D01*
X10314039Y-16291744D02*
X10333086Y-16291744D01*
X10333086Y-16291744D02*
X10352134Y-16301268D01*
X10352134Y-16301268D02*
X10361658Y-16310791D01*
X10361658Y-16310791D02*
X10371182Y-16329839D01*
X10371182Y-16329839D02*
X10380705Y-16367934D01*
X10380705Y-16367934D02*
X10380705Y-16415553D01*
X10380705Y-16415553D02*
X10371182Y-16453648D01*
X10371182Y-16453648D02*
X10361658Y-16472696D01*
X10361658Y-16472696D02*
X10352134Y-16482220D01*
X10352134Y-16482220D02*
X10333086Y-16491744D01*
X10333086Y-16491744D02*
X10314039Y-16491744D01*
X10314039Y-16491744D02*
X10294991Y-16482220D01*
X10294991Y-16482220D02*
X10285467Y-16472696D01*
X10285467Y-16472696D02*
X10275944Y-16453648D01*
X10275944Y-16453648D02*
X10266420Y-16415553D01*
X10266420Y-16415553D02*
X10266420Y-16367934D01*
X10266420Y-16367934D02*
X10275944Y-16329839D01*
X10275944Y-16329839D02*
X10285467Y-16310791D01*
X10285467Y-16310791D02*
X10294991Y-16301268D01*
X10294991Y-16301268D02*
X10314039Y-16291744D01*
X10466420Y-16491744D02*
X10466420Y-16358410D01*
X10466420Y-16377458D02*
X10475944Y-16367934D01*
X10475944Y-16367934D02*
X10494991Y-16358410D01*
X10494991Y-16358410D02*
X10523563Y-16358410D01*
X10523563Y-16358410D02*
X10542610Y-16367934D01*
X10542610Y-16367934D02*
X10552134Y-16386982D01*
X10552134Y-16386982D02*
X10552134Y-16491744D01*
X10552134Y-16386982D02*
X10561658Y-16367934D01*
X10561658Y-16367934D02*
X10580705Y-16358410D01*
X10580705Y-16358410D02*
X10609277Y-16358410D01*
X10609277Y-16358410D02*
X10628325Y-16367934D01*
X10628325Y-16367934D02*
X10637848Y-16386982D01*
X10637848Y-16386982D02*
X10637848Y-16491744D01*
X10733086Y-16491744D02*
X10733086Y-16358410D01*
X10733086Y-16377458D02*
X10742610Y-16367934D01*
X10742610Y-16367934D02*
X10761658Y-16358410D01*
X10761658Y-16358410D02*
X10790229Y-16358410D01*
X10790229Y-16358410D02*
X10809277Y-16367934D01*
X10809277Y-16367934D02*
X10818801Y-16386982D01*
X10818801Y-16386982D02*
X10818801Y-16491744D01*
X10818801Y-16386982D02*
X10828325Y-16367934D01*
X10828325Y-16367934D02*
X10847372Y-16358410D01*
X10847372Y-16358410D02*
X10875944Y-16358410D01*
X10875944Y-16358410D02*
X10894991Y-16367934D01*
X10894991Y-16367934D02*
X10904515Y-16386982D01*
X10904515Y-16386982D02*
X10904515Y-16491744D01*
X11294991Y-16282220D02*
X11123563Y-16539363D01*
X11552134Y-16291744D02*
X11571182Y-16291744D01*
X11571182Y-16291744D02*
X11590229Y-16301268D01*
X11590229Y-16301268D02*
X11599753Y-16310791D01*
X11599753Y-16310791D02*
X11609277Y-16329839D01*
X11609277Y-16329839D02*
X11618801Y-16367934D01*
X11618801Y-16367934D02*
X11618801Y-16415553D01*
X11618801Y-16415553D02*
X11609277Y-16453648D01*
X11609277Y-16453648D02*
X11599753Y-16472696D01*
X11599753Y-16472696D02*
X11590229Y-16482220D01*
X11590229Y-16482220D02*
X11571182Y-16491744D01*
X11571182Y-16491744D02*
X11552134Y-16491744D01*
X11552134Y-16491744D02*
X11533086Y-16482220D01*
X11533086Y-16482220D02*
X11523563Y-16472696D01*
X11523563Y-16472696D02*
X11514039Y-16453648D01*
X11514039Y-16453648D02*
X11504515Y-16415553D01*
X11504515Y-16415553D02*
X11504515Y-16367934D01*
X11504515Y-16367934D02*
X11514039Y-16329839D01*
X11514039Y-16329839D02*
X11523563Y-16310791D01*
X11523563Y-16310791D02*
X11533086Y-16301268D01*
X11533086Y-16301268D02*
X11552134Y-16291744D01*
X11704515Y-16472696D02*
X11714039Y-16482220D01*
X11714039Y-16482220D02*
X11704515Y-16491744D01*
X11704515Y-16491744D02*
X11694991Y-16482220D01*
X11694991Y-16482220D02*
X11704515Y-16472696D01*
X11704515Y-16472696D02*
X11704515Y-16491744D01*
X11837848Y-16291744D02*
X11856896Y-16291744D01*
X11856896Y-16291744D02*
X11875944Y-16301268D01*
X11875944Y-16301268D02*
X11885467Y-16310791D01*
X11885467Y-16310791D02*
X11894991Y-16329839D01*
X11894991Y-16329839D02*
X11904515Y-16367934D01*
X11904515Y-16367934D02*
X11904515Y-16415553D01*
X11904515Y-16415553D02*
X11894991Y-16453648D01*
X11894991Y-16453648D02*
X11885467Y-16472696D01*
X11885467Y-16472696D02*
X11875944Y-16482220D01*
X11875944Y-16482220D02*
X11856896Y-16491744D01*
X11856896Y-16491744D02*
X11837848Y-16491744D01*
X11837848Y-16491744D02*
X11818801Y-16482220D01*
X11818801Y-16482220D02*
X11809277Y-16472696D01*
X11809277Y-16472696D02*
X11799753Y-16453648D01*
X11799753Y-16453648D02*
X11790229Y-16415553D01*
X11790229Y-16415553D02*
X11790229Y-16367934D01*
X11790229Y-16367934D02*
X11799753Y-16329839D01*
X11799753Y-16329839D02*
X11809277Y-16310791D01*
X11809277Y-16310791D02*
X11818801Y-16301268D01*
X11818801Y-16301268D02*
X11837848Y-16291744D01*
X12075944Y-16358410D02*
X12075944Y-16491744D01*
X12028325Y-16282220D02*
X11980706Y-16425077D01*
X11980706Y-16425077D02*
X12104515Y-16425077D01*
X12161658Y-16291744D02*
X12285467Y-16291744D01*
X12285467Y-16291744D02*
X12218801Y-16367934D01*
X12218801Y-16367934D02*
X12247372Y-16367934D01*
X12247372Y-16367934D02*
X12266420Y-16377458D01*
X12266420Y-16377458D02*
X12275944Y-16386982D01*
X12275944Y-16386982D02*
X12285467Y-16406029D01*
X12285467Y-16406029D02*
X12285467Y-16453648D01*
X12285467Y-16453648D02*
X12275944Y-16472696D01*
X12275944Y-16472696D02*
X12266420Y-16482220D01*
X12266420Y-16482220D02*
X12247372Y-16491744D01*
X12247372Y-16491744D02*
X12190229Y-16491744D01*
X12190229Y-16491744D02*
X12171182Y-16482220D01*
X12171182Y-16482220D02*
X12161658Y-16472696D01*
X12352134Y-16291744D02*
X12475944Y-16291744D01*
X12475944Y-16291744D02*
X12409277Y-16367934D01*
X12409277Y-16367934D02*
X12437848Y-16367934D01*
X12437848Y-16367934D02*
X12456896Y-16377458D01*
X12456896Y-16377458D02*
X12466420Y-16386982D01*
X12466420Y-16386982D02*
X12475944Y-16406029D01*
X12475944Y-16406029D02*
X12475944Y-16453648D01*
X12475944Y-16453648D02*
X12466420Y-16472696D01*
X12466420Y-16472696D02*
X12456896Y-16482220D01*
X12456896Y-16482220D02*
X12437848Y-16491744D01*
X12437848Y-16491744D02*
X12380706Y-16491744D01*
X12380706Y-16491744D02*
X12361658Y-16482220D01*
X12361658Y-16482220D02*
X12352134Y-16472696D01*
X12552134Y-16291744D02*
X12552134Y-16329839D01*
X12628325Y-16291744D02*
X12628325Y-16329839D01*
X12923563Y-16567934D02*
X12914039Y-16558410D01*
X12914039Y-16558410D02*
X12894991Y-16529839D01*
X12894991Y-16529839D02*
X12885468Y-16510791D01*
X12885468Y-16510791D02*
X12875944Y-16482220D01*
X12875944Y-16482220D02*
X12866420Y-16434601D01*
X12866420Y-16434601D02*
X12866420Y-16396506D01*
X12866420Y-16396506D02*
X12875944Y-16348887D01*
X12875944Y-16348887D02*
X12885468Y-16320315D01*
X12885468Y-16320315D02*
X12894991Y-16301268D01*
X12894991Y-16301268D02*
X12914039Y-16272696D01*
X12914039Y-16272696D02*
X12923563Y-16263172D01*
X13085468Y-16291744D02*
X13047372Y-16291744D01*
X13047372Y-16291744D02*
X13028325Y-16301268D01*
X13028325Y-16301268D02*
X13018801Y-16310791D01*
X13018801Y-16310791D02*
X12999753Y-16339363D01*
X12999753Y-16339363D02*
X12990229Y-16377458D01*
X12990229Y-16377458D02*
X12990229Y-16453648D01*
X12990229Y-16453648D02*
X12999753Y-16472696D01*
X12999753Y-16472696D02*
X13009277Y-16482220D01*
X13009277Y-16482220D02*
X13028325Y-16491744D01*
X13028325Y-16491744D02*
X13066420Y-16491744D01*
X13066420Y-16491744D02*
X13085468Y-16482220D01*
X13085468Y-16482220D02*
X13094991Y-16472696D01*
X13094991Y-16472696D02*
X13104515Y-16453648D01*
X13104515Y-16453648D02*
X13104515Y-16406029D01*
X13104515Y-16406029D02*
X13094991Y-16386982D01*
X13094991Y-16386982D02*
X13085468Y-16377458D01*
X13085468Y-16377458D02*
X13066420Y-16367934D01*
X13066420Y-16367934D02*
X13028325Y-16367934D01*
X13028325Y-16367934D02*
X13009277Y-16377458D01*
X13009277Y-16377458D02*
X12999753Y-16386982D01*
X12999753Y-16386982D02*
X12990229Y-16406029D01*
X13342610Y-16491744D02*
X13342610Y-16291744D01*
X13428325Y-16491744D02*
X13428325Y-16386982D01*
X13428325Y-16386982D02*
X13418801Y-16367934D01*
X13418801Y-16367934D02*
X13399753Y-16358410D01*
X13399753Y-16358410D02*
X13371182Y-16358410D01*
X13371182Y-16358410D02*
X13352134Y-16367934D01*
X13352134Y-16367934D02*
X13342610Y-16377458D01*
X13552134Y-16491744D02*
X13533087Y-16482220D01*
X13533087Y-16482220D02*
X13523563Y-16472696D01*
X13523563Y-16472696D02*
X13514039Y-16453648D01*
X13514039Y-16453648D02*
X13514039Y-16396506D01*
X13514039Y-16396506D02*
X13523563Y-16377458D01*
X13523563Y-16377458D02*
X13533087Y-16367934D01*
X13533087Y-16367934D02*
X13552134Y-16358410D01*
X13552134Y-16358410D02*
X13580706Y-16358410D01*
X13580706Y-16358410D02*
X13599753Y-16367934D01*
X13599753Y-16367934D02*
X13609277Y-16377458D01*
X13609277Y-16377458D02*
X13618801Y-16396506D01*
X13618801Y-16396506D02*
X13618801Y-16453648D01*
X13618801Y-16453648D02*
X13609277Y-16472696D01*
X13609277Y-16472696D02*
X13599753Y-16482220D01*
X13599753Y-16482220D02*
X13580706Y-16491744D01*
X13580706Y-16491744D02*
X13552134Y-16491744D01*
X13733087Y-16491744D02*
X13714039Y-16482220D01*
X13714039Y-16482220D02*
X13704515Y-16463172D01*
X13704515Y-16463172D02*
X13704515Y-16291744D01*
X13885468Y-16482220D02*
X13866420Y-16491744D01*
X13866420Y-16491744D02*
X13828325Y-16491744D01*
X13828325Y-16491744D02*
X13809277Y-16482220D01*
X13809277Y-16482220D02*
X13799753Y-16463172D01*
X13799753Y-16463172D02*
X13799753Y-16386982D01*
X13799753Y-16386982D02*
X13809277Y-16367934D01*
X13809277Y-16367934D02*
X13828325Y-16358410D01*
X13828325Y-16358410D02*
X13866420Y-16358410D01*
X13866420Y-16358410D02*
X13885468Y-16367934D01*
X13885468Y-16367934D02*
X13894991Y-16386982D01*
X13894991Y-16386982D02*
X13894991Y-16406029D01*
X13894991Y-16406029D02*
X13799753Y-16425077D01*
X13971182Y-16482220D02*
X13990230Y-16491744D01*
X13990230Y-16491744D02*
X14028325Y-16491744D01*
X14028325Y-16491744D02*
X14047372Y-16482220D01*
X14047372Y-16482220D02*
X14056896Y-16463172D01*
X14056896Y-16463172D02*
X14056896Y-16453648D01*
X14056896Y-16453648D02*
X14047372Y-16434601D01*
X14047372Y-16434601D02*
X14028325Y-16425077D01*
X14028325Y-16425077D02*
X13999753Y-16425077D01*
X13999753Y-16425077D02*
X13980706Y-16415553D01*
X13980706Y-16415553D02*
X13971182Y-16396506D01*
X13971182Y-16396506D02*
X13971182Y-16386982D01*
X13971182Y-16386982D02*
X13980706Y-16367934D01*
X13980706Y-16367934D02*
X13999753Y-16358410D01*
X13999753Y-16358410D02*
X14028325Y-16358410D01*
X14028325Y-16358410D02*
X14047372Y-16367934D01*
X14123563Y-16567934D02*
X14133087Y-16558410D01*
X14133087Y-16558410D02*
X14152134Y-16529839D01*
X14152134Y-16529839D02*
X14161658Y-16510791D01*
X14161658Y-16510791D02*
X14171182Y-16482220D01*
X14171182Y-16482220D02*
X14180706Y-16434601D01*
X14180706Y-16434601D02*
X14180706Y-16396506D01*
X14180706Y-16396506D02*
X14171182Y-16348887D01*
X14171182Y-16348887D02*
X14161658Y-16320315D01*
X14161658Y-16320315D02*
X14152134Y-16301268D01*
X14152134Y-16301268D02*
X14133087Y-16272696D01*
X14133087Y-16272696D02*
X14123563Y-16263172D01*
X9148500Y-16564260D02*
X9348500Y-16764260D01*
X9348500Y-16564260D02*
X9148500Y-16764260D01*
X9319211Y-16734971D02*
X9319211Y-16593549D01*
X9177789Y-16593549D01*
X9177789Y-16734971D01*
X9319211Y-16734971D01*
X9590229Y-16555744D02*
X9714039Y-16555744D01*
X9714039Y-16555744D02*
X9647372Y-16631934D01*
X9647372Y-16631934D02*
X9675944Y-16631934D01*
X9675944Y-16631934D02*
X9694991Y-16641458D01*
X9694991Y-16641458D02*
X9704515Y-16650982D01*
X9704515Y-16650982D02*
X9714039Y-16670029D01*
X9714039Y-16670029D02*
X9714039Y-16717648D01*
X9714039Y-16717648D02*
X9704515Y-16736696D01*
X9704515Y-16736696D02*
X9694991Y-16746220D01*
X9694991Y-16746220D02*
X9675944Y-16755744D01*
X9675944Y-16755744D02*
X9618801Y-16755744D01*
X9618801Y-16755744D02*
X9599753Y-16746220D01*
X9599753Y-16746220D02*
X9590229Y-16736696D01*
X9799753Y-16736696D02*
X9809277Y-16746220D01*
X9809277Y-16746220D02*
X9799753Y-16755744D01*
X9799753Y-16755744D02*
X9790229Y-16746220D01*
X9790229Y-16746220D02*
X9799753Y-16736696D01*
X9799753Y-16736696D02*
X9799753Y-16755744D01*
X9885467Y-16574791D02*
X9894991Y-16565268D01*
X9894991Y-16565268D02*
X9914039Y-16555744D01*
X9914039Y-16555744D02*
X9961658Y-16555744D01*
X9961658Y-16555744D02*
X9980705Y-16565268D01*
X9980705Y-16565268D02*
X9990229Y-16574791D01*
X9990229Y-16574791D02*
X9999753Y-16593839D01*
X9999753Y-16593839D02*
X9999753Y-16612887D01*
X9999753Y-16612887D02*
X9990229Y-16641458D01*
X9990229Y-16641458D02*
X9875944Y-16755744D01*
X9875944Y-16755744D02*
X9999753Y-16755744D01*
X10123563Y-16555744D02*
X10142610Y-16555744D01*
X10142610Y-16555744D02*
X10161658Y-16565268D01*
X10161658Y-16565268D02*
X10171182Y-16574791D01*
X10171182Y-16574791D02*
X10180705Y-16593839D01*
X10180705Y-16593839D02*
X10190229Y-16631934D01*
X10190229Y-16631934D02*
X10190229Y-16679553D01*
X10190229Y-16679553D02*
X10180705Y-16717648D01*
X10180705Y-16717648D02*
X10171182Y-16736696D01*
X10171182Y-16736696D02*
X10161658Y-16746220D01*
X10161658Y-16746220D02*
X10142610Y-16755744D01*
X10142610Y-16755744D02*
X10123563Y-16755744D01*
X10123563Y-16755744D02*
X10104515Y-16746220D01*
X10104515Y-16746220D02*
X10094991Y-16736696D01*
X10094991Y-16736696D02*
X10085467Y-16717648D01*
X10085467Y-16717648D02*
X10075944Y-16679553D01*
X10075944Y-16679553D02*
X10075944Y-16631934D01*
X10075944Y-16631934D02*
X10085467Y-16593839D01*
X10085467Y-16593839D02*
X10094991Y-16574791D01*
X10094991Y-16574791D02*
X10104515Y-16565268D01*
X10104515Y-16565268D02*
X10123563Y-16555744D01*
X10314039Y-16555744D02*
X10333086Y-16555744D01*
X10333086Y-16555744D02*
X10352134Y-16565268D01*
X10352134Y-16565268D02*
X10361658Y-16574791D01*
X10361658Y-16574791D02*
X10371182Y-16593839D01*
X10371182Y-16593839D02*
X10380705Y-16631934D01*
X10380705Y-16631934D02*
X10380705Y-16679553D01*
X10380705Y-16679553D02*
X10371182Y-16717648D01*
X10371182Y-16717648D02*
X10361658Y-16736696D01*
X10361658Y-16736696D02*
X10352134Y-16746220D01*
X10352134Y-16746220D02*
X10333086Y-16755744D01*
X10333086Y-16755744D02*
X10314039Y-16755744D01*
X10314039Y-16755744D02*
X10294991Y-16746220D01*
X10294991Y-16746220D02*
X10285467Y-16736696D01*
X10285467Y-16736696D02*
X10275944Y-16717648D01*
X10275944Y-16717648D02*
X10266420Y-16679553D01*
X10266420Y-16679553D02*
X10266420Y-16631934D01*
X10266420Y-16631934D02*
X10275944Y-16593839D01*
X10275944Y-16593839D02*
X10285467Y-16574791D01*
X10285467Y-16574791D02*
X10294991Y-16565268D01*
X10294991Y-16565268D02*
X10314039Y-16555744D01*
X10466420Y-16755744D02*
X10466420Y-16622410D01*
X10466420Y-16641458D02*
X10475944Y-16631934D01*
X10475944Y-16631934D02*
X10494991Y-16622410D01*
X10494991Y-16622410D02*
X10523563Y-16622410D01*
X10523563Y-16622410D02*
X10542610Y-16631934D01*
X10542610Y-16631934D02*
X10552134Y-16650982D01*
X10552134Y-16650982D02*
X10552134Y-16755744D01*
X10552134Y-16650982D02*
X10561658Y-16631934D01*
X10561658Y-16631934D02*
X10580705Y-16622410D01*
X10580705Y-16622410D02*
X10609277Y-16622410D01*
X10609277Y-16622410D02*
X10628325Y-16631934D01*
X10628325Y-16631934D02*
X10637848Y-16650982D01*
X10637848Y-16650982D02*
X10637848Y-16755744D01*
X10733086Y-16755744D02*
X10733086Y-16622410D01*
X10733086Y-16641458D02*
X10742610Y-16631934D01*
X10742610Y-16631934D02*
X10761658Y-16622410D01*
X10761658Y-16622410D02*
X10790229Y-16622410D01*
X10790229Y-16622410D02*
X10809277Y-16631934D01*
X10809277Y-16631934D02*
X10818801Y-16650982D01*
X10818801Y-16650982D02*
X10818801Y-16755744D01*
X10818801Y-16650982D02*
X10828325Y-16631934D01*
X10828325Y-16631934D02*
X10847372Y-16622410D01*
X10847372Y-16622410D02*
X10875944Y-16622410D01*
X10875944Y-16622410D02*
X10894991Y-16631934D01*
X10894991Y-16631934D02*
X10904515Y-16650982D01*
X10904515Y-16650982D02*
X10904515Y-16755744D01*
X11294991Y-16546220D02*
X11123563Y-16803363D01*
X11552134Y-16555744D02*
X11571182Y-16555744D01*
X11571182Y-16555744D02*
X11590229Y-16565268D01*
X11590229Y-16565268D02*
X11599753Y-16574791D01*
X11599753Y-16574791D02*
X11609277Y-16593839D01*
X11609277Y-16593839D02*
X11618801Y-16631934D01*
X11618801Y-16631934D02*
X11618801Y-16679553D01*
X11618801Y-16679553D02*
X11609277Y-16717648D01*
X11609277Y-16717648D02*
X11599753Y-16736696D01*
X11599753Y-16736696D02*
X11590229Y-16746220D01*
X11590229Y-16746220D02*
X11571182Y-16755744D01*
X11571182Y-16755744D02*
X11552134Y-16755744D01*
X11552134Y-16755744D02*
X11533086Y-16746220D01*
X11533086Y-16746220D02*
X11523563Y-16736696D01*
X11523563Y-16736696D02*
X11514039Y-16717648D01*
X11514039Y-16717648D02*
X11504515Y-16679553D01*
X11504515Y-16679553D02*
X11504515Y-16631934D01*
X11504515Y-16631934D02*
X11514039Y-16593839D01*
X11514039Y-16593839D02*
X11523563Y-16574791D01*
X11523563Y-16574791D02*
X11533086Y-16565268D01*
X11533086Y-16565268D02*
X11552134Y-16555744D01*
X11704515Y-16736696D02*
X11714039Y-16746220D01*
X11714039Y-16746220D02*
X11704515Y-16755744D01*
X11704515Y-16755744D02*
X11694991Y-16746220D01*
X11694991Y-16746220D02*
X11704515Y-16736696D01*
X11704515Y-16736696D02*
X11704515Y-16755744D01*
X11904515Y-16755744D02*
X11790229Y-16755744D01*
X11847372Y-16755744D02*
X11847372Y-16555744D01*
X11847372Y-16555744D02*
X11828325Y-16584315D01*
X11828325Y-16584315D02*
X11809277Y-16603363D01*
X11809277Y-16603363D02*
X11790229Y-16612887D01*
X11980706Y-16574791D02*
X11990229Y-16565268D01*
X11990229Y-16565268D02*
X12009277Y-16555744D01*
X12009277Y-16555744D02*
X12056896Y-16555744D01*
X12056896Y-16555744D02*
X12075944Y-16565268D01*
X12075944Y-16565268D02*
X12085467Y-16574791D01*
X12085467Y-16574791D02*
X12094991Y-16593839D01*
X12094991Y-16593839D02*
X12094991Y-16612887D01*
X12094991Y-16612887D02*
X12085467Y-16641458D01*
X12085467Y-16641458D02*
X11971182Y-16755744D01*
X11971182Y-16755744D02*
X12094991Y-16755744D01*
X12266420Y-16555744D02*
X12228325Y-16555744D01*
X12228325Y-16555744D02*
X12209277Y-16565268D01*
X12209277Y-16565268D02*
X12199753Y-16574791D01*
X12199753Y-16574791D02*
X12180706Y-16603363D01*
X12180706Y-16603363D02*
X12171182Y-16641458D01*
X12171182Y-16641458D02*
X12171182Y-16717648D01*
X12171182Y-16717648D02*
X12180706Y-16736696D01*
X12180706Y-16736696D02*
X12190229Y-16746220D01*
X12190229Y-16746220D02*
X12209277Y-16755744D01*
X12209277Y-16755744D02*
X12247372Y-16755744D01*
X12247372Y-16755744D02*
X12266420Y-16746220D01*
X12266420Y-16746220D02*
X12275944Y-16736696D01*
X12275944Y-16736696D02*
X12285467Y-16717648D01*
X12285467Y-16717648D02*
X12285467Y-16670029D01*
X12285467Y-16670029D02*
X12275944Y-16650982D01*
X12275944Y-16650982D02*
X12266420Y-16641458D01*
X12266420Y-16641458D02*
X12247372Y-16631934D01*
X12247372Y-16631934D02*
X12209277Y-16631934D01*
X12209277Y-16631934D02*
X12190229Y-16641458D01*
X12190229Y-16641458D02*
X12180706Y-16650982D01*
X12180706Y-16650982D02*
X12171182Y-16670029D01*
X12409277Y-16555744D02*
X12428325Y-16555744D01*
X12428325Y-16555744D02*
X12447372Y-16565268D01*
X12447372Y-16565268D02*
X12456896Y-16574791D01*
X12456896Y-16574791D02*
X12466420Y-16593839D01*
X12466420Y-16593839D02*
X12475944Y-16631934D01*
X12475944Y-16631934D02*
X12475944Y-16679553D01*
X12475944Y-16679553D02*
X12466420Y-16717648D01*
X12466420Y-16717648D02*
X12456896Y-16736696D01*
X12456896Y-16736696D02*
X12447372Y-16746220D01*
X12447372Y-16746220D02*
X12428325Y-16755744D01*
X12428325Y-16755744D02*
X12409277Y-16755744D01*
X12409277Y-16755744D02*
X12390229Y-16746220D01*
X12390229Y-16746220D02*
X12380706Y-16736696D01*
X12380706Y-16736696D02*
X12371182Y-16717648D01*
X12371182Y-16717648D02*
X12361658Y-16679553D01*
X12361658Y-16679553D02*
X12361658Y-16631934D01*
X12361658Y-16631934D02*
X12371182Y-16593839D01*
X12371182Y-16593839D02*
X12380706Y-16574791D01*
X12380706Y-16574791D02*
X12390229Y-16565268D01*
X12390229Y-16565268D02*
X12409277Y-16555744D01*
X12552134Y-16555744D02*
X12552134Y-16593839D01*
X12628325Y-16555744D02*
X12628325Y-16593839D01*
X12923563Y-16831934D02*
X12914039Y-16822410D01*
X12914039Y-16822410D02*
X12894991Y-16793839D01*
X12894991Y-16793839D02*
X12885468Y-16774791D01*
X12885468Y-16774791D02*
X12875944Y-16746220D01*
X12875944Y-16746220D02*
X12866420Y-16698601D01*
X12866420Y-16698601D02*
X12866420Y-16660506D01*
X12866420Y-16660506D02*
X12875944Y-16612887D01*
X12875944Y-16612887D02*
X12885468Y-16584315D01*
X12885468Y-16584315D02*
X12894991Y-16565268D01*
X12894991Y-16565268D02*
X12914039Y-16536696D01*
X12914039Y-16536696D02*
X12923563Y-16527172D01*
X13104515Y-16755744D02*
X12990229Y-16755744D01*
X13047372Y-16755744D02*
X13047372Y-16555744D01*
X13047372Y-16555744D02*
X13028325Y-16584315D01*
X13028325Y-16584315D02*
X13009277Y-16603363D01*
X13009277Y-16603363D02*
X12990229Y-16612887D01*
X13218801Y-16641458D02*
X13199753Y-16631934D01*
X13199753Y-16631934D02*
X13190229Y-16622410D01*
X13190229Y-16622410D02*
X13180706Y-16603363D01*
X13180706Y-16603363D02*
X13180706Y-16593839D01*
X13180706Y-16593839D02*
X13190229Y-16574791D01*
X13190229Y-16574791D02*
X13199753Y-16565268D01*
X13199753Y-16565268D02*
X13218801Y-16555744D01*
X13218801Y-16555744D02*
X13256896Y-16555744D01*
X13256896Y-16555744D02*
X13275944Y-16565268D01*
X13275944Y-16565268D02*
X13285468Y-16574791D01*
X13285468Y-16574791D02*
X13294991Y-16593839D01*
X13294991Y-16593839D02*
X13294991Y-16603363D01*
X13294991Y-16603363D02*
X13285468Y-16622410D01*
X13285468Y-16622410D02*
X13275944Y-16631934D01*
X13275944Y-16631934D02*
X13256896Y-16641458D01*
X13256896Y-16641458D02*
X13218801Y-16641458D01*
X13218801Y-16641458D02*
X13199753Y-16650982D01*
X13199753Y-16650982D02*
X13190229Y-16660506D01*
X13190229Y-16660506D02*
X13180706Y-16679553D01*
X13180706Y-16679553D02*
X13180706Y-16717648D01*
X13180706Y-16717648D02*
X13190229Y-16736696D01*
X13190229Y-16736696D02*
X13199753Y-16746220D01*
X13199753Y-16746220D02*
X13218801Y-16755744D01*
X13218801Y-16755744D02*
X13256896Y-16755744D01*
X13256896Y-16755744D02*
X13275944Y-16746220D01*
X13275944Y-16746220D02*
X13285468Y-16736696D01*
X13285468Y-16736696D02*
X13294991Y-16717648D01*
X13294991Y-16717648D02*
X13294991Y-16679553D01*
X13294991Y-16679553D02*
X13285468Y-16660506D01*
X13285468Y-16660506D02*
X13275944Y-16650982D01*
X13275944Y-16650982D02*
X13256896Y-16641458D01*
X13533087Y-16755744D02*
X13533087Y-16555744D01*
X13618801Y-16755744D02*
X13618801Y-16650982D01*
X13618801Y-16650982D02*
X13609277Y-16631934D01*
X13609277Y-16631934D02*
X13590230Y-16622410D01*
X13590230Y-16622410D02*
X13561658Y-16622410D01*
X13561658Y-16622410D02*
X13542610Y-16631934D01*
X13542610Y-16631934D02*
X13533087Y-16641458D01*
X13742610Y-16755744D02*
X13723563Y-16746220D01*
X13723563Y-16746220D02*
X13714039Y-16736696D01*
X13714039Y-16736696D02*
X13704515Y-16717648D01*
X13704515Y-16717648D02*
X13704515Y-16660506D01*
X13704515Y-16660506D02*
X13714039Y-16641458D01*
X13714039Y-16641458D02*
X13723563Y-16631934D01*
X13723563Y-16631934D02*
X13742610Y-16622410D01*
X13742610Y-16622410D02*
X13771182Y-16622410D01*
X13771182Y-16622410D02*
X13790230Y-16631934D01*
X13790230Y-16631934D02*
X13799753Y-16641458D01*
X13799753Y-16641458D02*
X13809277Y-16660506D01*
X13809277Y-16660506D02*
X13809277Y-16717648D01*
X13809277Y-16717648D02*
X13799753Y-16736696D01*
X13799753Y-16736696D02*
X13790230Y-16746220D01*
X13790230Y-16746220D02*
X13771182Y-16755744D01*
X13771182Y-16755744D02*
X13742610Y-16755744D01*
X13923563Y-16755744D02*
X13904515Y-16746220D01*
X13904515Y-16746220D02*
X13894991Y-16727172D01*
X13894991Y-16727172D02*
X13894991Y-16555744D01*
X14075944Y-16746220D02*
X14056896Y-16755744D01*
X14056896Y-16755744D02*
X14018801Y-16755744D01*
X14018801Y-16755744D02*
X13999753Y-16746220D01*
X13999753Y-16746220D02*
X13990230Y-16727172D01*
X13990230Y-16727172D02*
X13990230Y-16650982D01*
X13990230Y-16650982D02*
X13999753Y-16631934D01*
X13999753Y-16631934D02*
X14018801Y-16622410D01*
X14018801Y-16622410D02*
X14056896Y-16622410D01*
X14056896Y-16622410D02*
X14075944Y-16631934D01*
X14075944Y-16631934D02*
X14085468Y-16650982D01*
X14085468Y-16650982D02*
X14085468Y-16670029D01*
X14085468Y-16670029D02*
X13990230Y-16689077D01*
X14161658Y-16746220D02*
X14180706Y-16755744D01*
X14180706Y-16755744D02*
X14218801Y-16755744D01*
X14218801Y-16755744D02*
X14237849Y-16746220D01*
X14237849Y-16746220D02*
X14247372Y-16727172D01*
X14247372Y-16727172D02*
X14247372Y-16717648D01*
X14247372Y-16717648D02*
X14237849Y-16698601D01*
X14237849Y-16698601D02*
X14218801Y-16689077D01*
X14218801Y-16689077D02*
X14190230Y-16689077D01*
X14190230Y-16689077D02*
X14171182Y-16679553D01*
X14171182Y-16679553D02*
X14161658Y-16660506D01*
X14161658Y-16660506D02*
X14161658Y-16650982D01*
X14161658Y-16650982D02*
X14171182Y-16631934D01*
X14171182Y-16631934D02*
X14190230Y-16622410D01*
X14190230Y-16622410D02*
X14218801Y-16622410D01*
X14218801Y-16622410D02*
X14237849Y-16631934D01*
X14314039Y-16831934D02*
X14323563Y-16822410D01*
X14323563Y-16822410D02*
X14342611Y-16793839D01*
X14342611Y-16793839D02*
X14352134Y-16774791D01*
X14352134Y-16774791D02*
X14361658Y-16746220D01*
X14361658Y-16746220D02*
X14371182Y-16698601D01*
X14371182Y-16698601D02*
X14371182Y-16660506D01*
X14371182Y-16660506D02*
X14361658Y-16612887D01*
X14361658Y-16612887D02*
X14352134Y-16584315D01*
X14352134Y-16584315D02*
X14342611Y-16565268D01*
X14342611Y-16565268D02*
X14323563Y-16536696D01*
X14323563Y-16536696D02*
X14314039Y-16527172D01*
M02*
