%TF.GenerationSoftware,KiCad,Pcbnew,7.0.7*%
%TF.CreationDate,2023-11-05T16:16:46-05:00*%
%TF.ProjectId,MaisonEtape1,4d616973-6f6e-4457-9461-7065312e6b69,rev?*%
%TF.SameCoordinates,Original*%
%TF.FileFunction,Paste,Top*%
%TF.FilePolarity,Positive*%
%FSLAX46Y46*%
G04 Gerber Fmt 4.6, Leading zero omitted, Abs format (unit mm)*
G04 Created by KiCad (PCBNEW 7.0.7) date 2023-11-05 16:16:46*
%MOMM*%
%LPD*%
G01*
G04 APERTURE LIST*
G04 Aperture macros list*
%AMRoundRect*
0 Rectangle with rounded corners*
0 $1 Rounding radius*
0 $2 $3 $4 $5 $6 $7 $8 $9 X,Y pos of 4 corners*
0 Add a 4 corners polygon primitive as box body*
4,1,4,$2,$3,$4,$5,$6,$7,$8,$9,$2,$3,0*
0 Add four circle primitives for the rounded corners*
1,1,$1+$1,$2,$3*
1,1,$1+$1,$4,$5*
1,1,$1+$1,$6,$7*
1,1,$1+$1,$8,$9*
0 Add four rect primitives between the rounded corners*
20,1,$1+$1,$2,$3,$4,$5,0*
20,1,$1+$1,$4,$5,$6,$7,0*
20,1,$1+$1,$6,$7,$8,$9,0*
20,1,$1+$1,$8,$9,$2,$3,0*%
G04 Aperture macros list end*
%ADD10RoundRect,0.243750X-0.456250X0.243750X-0.456250X-0.243750X0.456250X-0.243750X0.456250X0.243750X0*%
%ADD11R,0.550000X1.600000*%
%ADD12R,1.600000X0.550000*%
%ADD13RoundRect,0.243750X-0.243750X-0.456250X0.243750X-0.456250X0.243750X0.456250X-0.243750X0.456250X0*%
G04 APERTURE END LIST*
D10*
%TO.C,Window_1*%
X131445000Y-66880500D03*
X131445000Y-68755500D03*
%TD*%
%TO.C,Window_2*%
X131445000Y-73152000D03*
X131445000Y-75027000D03*
%TD*%
D11*
%TO.C,U1*%
X120853000Y-66040000D03*
X120053000Y-66040000D03*
X119253000Y-66040000D03*
X118453000Y-66040000D03*
X117653000Y-66040000D03*
X116853000Y-66040000D03*
X116053000Y-66040000D03*
X115253000Y-66040000D03*
D12*
X113803000Y-67490000D03*
X113803000Y-68290000D03*
X113803000Y-69090000D03*
X113803000Y-69890000D03*
X113803000Y-70690000D03*
X113803000Y-71490000D03*
X113803000Y-72290000D03*
X113803000Y-73090000D03*
D11*
X115253000Y-74540000D03*
X116053000Y-74540000D03*
X116853000Y-74540000D03*
X117653000Y-74540000D03*
X118453000Y-74540000D03*
X119253000Y-74540000D03*
X120053000Y-74540000D03*
X120853000Y-74540000D03*
D12*
X122303000Y-73090000D03*
X122303000Y-72290000D03*
X122303000Y-71490000D03*
X122303000Y-70690000D03*
X122303000Y-69890000D03*
X122303000Y-69090000D03*
X122303000Y-68290000D03*
X122303000Y-67490000D03*
%TD*%
%TO.C,U2*%
X114055000Y-87479800D03*
X114055000Y-88279800D03*
X114055000Y-89079800D03*
X114055000Y-89879800D03*
X114055000Y-90679800D03*
X114055000Y-91479800D03*
X114055000Y-92279800D03*
X114055000Y-93079800D03*
D11*
X115505000Y-94529800D03*
X116305000Y-94529800D03*
X117105000Y-94529800D03*
X117905000Y-94529800D03*
X118705000Y-94529800D03*
X119505000Y-94529800D03*
X120305000Y-94529800D03*
X121105000Y-94529800D03*
D12*
X122555000Y-93079800D03*
X122555000Y-92279800D03*
X122555000Y-91479800D03*
X122555000Y-90679800D03*
X122555000Y-89879800D03*
X122555000Y-89079800D03*
X122555000Y-88279800D03*
X122555000Y-87479800D03*
D11*
X121105000Y-86029800D03*
X120305000Y-86029800D03*
X119505000Y-86029800D03*
X118705000Y-86029800D03*
X117905000Y-86029800D03*
X117105000Y-86029800D03*
X116305000Y-86029800D03*
X115505000Y-86029800D03*
%TD*%
D12*
%TO.C,U4*%
X113740000Y-128185600D03*
X113740000Y-128985600D03*
X113740000Y-129785600D03*
X113740000Y-130585600D03*
X113740000Y-131385600D03*
X113740000Y-132185600D03*
X113740000Y-132985600D03*
X113740000Y-133785600D03*
D11*
X115190000Y-135235600D03*
X115990000Y-135235600D03*
X116790000Y-135235600D03*
X117590000Y-135235600D03*
X118390000Y-135235600D03*
X119190000Y-135235600D03*
X119990000Y-135235600D03*
X120790000Y-135235600D03*
D12*
X122240000Y-133785600D03*
X122240000Y-132985600D03*
X122240000Y-132185600D03*
X122240000Y-131385600D03*
X122240000Y-130585600D03*
X122240000Y-129785600D03*
X122240000Y-128985600D03*
X122240000Y-128185600D03*
D11*
X120790000Y-126735600D03*
X119990000Y-126735600D03*
X119190000Y-126735600D03*
X118390000Y-126735600D03*
X117590000Y-126735600D03*
X116790000Y-126735600D03*
X115990000Y-126735600D03*
X115190000Y-126735600D03*
%TD*%
D12*
%TO.C,LT1*%
X113089100Y-48068000D03*
X113089100Y-48868000D03*
X113089100Y-49668000D03*
X113089100Y-50468000D03*
X113089100Y-51268000D03*
X113089100Y-52068000D03*
X113089100Y-52868000D03*
X113089100Y-53668000D03*
D11*
X114539100Y-55118000D03*
X115339100Y-55118000D03*
X116139100Y-55118000D03*
X116939100Y-55118000D03*
X117739100Y-55118000D03*
X118539100Y-55118000D03*
X119339100Y-55118000D03*
X120139100Y-55118000D03*
D12*
X121589100Y-53668000D03*
X121589100Y-52868000D03*
X121589100Y-52068000D03*
X121589100Y-51268000D03*
X121589100Y-50468000D03*
X121589100Y-49668000D03*
X121589100Y-48868000D03*
X121589100Y-48068000D03*
D11*
X120139100Y-46618000D03*
X119339100Y-46618000D03*
X118539100Y-46618000D03*
X117739100Y-46618000D03*
X116939100Y-46618000D03*
X116139100Y-46618000D03*
X115339100Y-46618000D03*
X114539100Y-46618000D03*
%TD*%
D12*
%TO.C,U3*%
X114055000Y-107000000D03*
X114055000Y-107800000D03*
X114055000Y-108600000D03*
X114055000Y-109400000D03*
X114055000Y-110200000D03*
X114055000Y-111000000D03*
X114055000Y-111800000D03*
X114055000Y-112600000D03*
D11*
X115505000Y-114050000D03*
X116305000Y-114050000D03*
X117105000Y-114050000D03*
X117905000Y-114050000D03*
X118705000Y-114050000D03*
X119505000Y-114050000D03*
X120305000Y-114050000D03*
X121105000Y-114050000D03*
D12*
X122555000Y-112600000D03*
X122555000Y-111800000D03*
X122555000Y-111000000D03*
X122555000Y-110200000D03*
X122555000Y-109400000D03*
X122555000Y-108600000D03*
X122555000Y-107800000D03*
X122555000Y-107000000D03*
D11*
X121105000Y-105550000D03*
X120305000Y-105550000D03*
X119505000Y-105550000D03*
X118705000Y-105550000D03*
X117905000Y-105550000D03*
X117105000Y-105550000D03*
X116305000Y-105550000D03*
X115505000Y-105550000D03*
%TD*%
D13*
%TO.C,door_1*%
X126979200Y-89357200D03*
X128854200Y-89357200D03*
%TD*%
D12*
%TO.C,U5*%
X161185000Y-68660000D03*
X161185000Y-69460000D03*
X161185000Y-70260000D03*
X161185000Y-71060000D03*
X161185000Y-71860000D03*
X161185000Y-72660000D03*
X161185000Y-73460000D03*
X161185000Y-74260000D03*
D11*
X162635000Y-75710000D03*
X163435000Y-75710000D03*
X164235000Y-75710000D03*
X165035000Y-75710000D03*
X165835000Y-75710000D03*
X166635000Y-75710000D03*
X167435000Y-75710000D03*
X168235000Y-75710000D03*
D12*
X169685000Y-74260000D03*
X169685000Y-73460000D03*
X169685000Y-72660000D03*
X169685000Y-71860000D03*
X169685000Y-71060000D03*
X169685000Y-70260000D03*
X169685000Y-69460000D03*
X169685000Y-68660000D03*
D11*
X168235000Y-67210000D03*
X167435000Y-67210000D03*
X166635000Y-67210000D03*
X165835000Y-67210000D03*
X165035000Y-67210000D03*
X164235000Y-67210000D03*
X163435000Y-67210000D03*
X162635000Y-67210000D03*
%TD*%
M02*
