%TF.GenerationSoftware,KiCad,Pcbnew,7.0.7*%
%TF.CreationDate,2023-11-05T16:16:48-05:00*%
%TF.ProjectId,MaisonEtape1,4d616973-6f6e-4457-9461-7065312e6b69,rev?*%
%TF.SameCoordinates,Original*%
%TF.FileFunction,Soldermask,Top*%
%TF.FilePolarity,Negative*%
%FSLAX46Y46*%
G04 Gerber Fmt 4.6, Leading zero omitted, Abs format (unit mm)*
G04 Created by KiCad (PCBNEW 7.0.7) date 2023-11-05 16:16:48*
%MOMM*%
%LPD*%
G01*
G04 APERTURE LIST*
G04 Aperture macros list*
%AMRoundRect*
0 Rectangle with rounded corners*
0 $1 Rounding radius*
0 $2 $3 $4 $5 $6 $7 $8 $9 X,Y pos of 4 corners*
0 Add a 4 corners polygon primitive as box body*
4,1,4,$2,$3,$4,$5,$6,$7,$8,$9,$2,$3,0*
0 Add four circle primitives for the rounded corners*
1,1,$1+$1,$2,$3*
1,1,$1+$1,$4,$5*
1,1,$1+$1,$6,$7*
1,1,$1+$1,$8,$9*
0 Add four rect primitives between the rounded corners*
20,1,$1+$1,$2,$3,$4,$5,0*
20,1,$1+$1,$4,$5,$6,$7,0*
20,1,$1+$1,$6,$7,$8,$9,0*
20,1,$1+$1,$8,$9,$2,$3,0*%
%AMFreePoly0*
4,1,5,0.762000,-1.524000,-0.762000,-1.524000,-0.762000,1.524000,0.762000,1.524000,0.762000,-1.524000,0.762000,-1.524000,$1*%
%AMFreePoly1*
4,1,5,0.762000,-1.200000,-0.762000,-1.200000,-0.762000,1.200000,0.762000,1.200000,0.762000,-1.200000,0.762000,-1.200000,$1*%
%AMFreePoly2*
4,1,5,0.762000,-1.050000,-0.762000,-1.050000,-0.762000,1.050000,0.762000,1.050000,0.762000,-1.050000,0.762000,-1.050000,$1*%
%AMFreePoly3*
4,1,5,0.762000,-1.000000,-0.762000,-1.000000,-0.762000,1.000000,0.762000,1.000000,0.762000,-1.000000,0.762000,-1.000000,$1*%
G04 Aperture macros list end*
%ADD10RoundRect,0.243750X-0.456250X0.243750X-0.456250X-0.243750X0.456250X-0.243750X0.456250X0.243750X0*%
%ADD11FreePoly0,180.000000*%
%ADD12FreePoly1,180.000000*%
%ADD13R,1.700000X1.700000*%
%ADD14O,1.700000X1.700000*%
%ADD15C,1.750000*%
%ADD16C,0.800000*%
%ADD17C,6.400000*%
%ADD18FreePoly0,0.000000*%
%ADD19FreePoly2,0.000000*%
%ADD20R,2.000000X2.000000*%
%ADD21C,2.000000*%
%ADD22R,2.400000X1.600000*%
%ADD23O,2.400000X1.600000*%
%ADD24RoundRect,0.102000X-0.765000X-0.765000X0.765000X-0.765000X0.765000X0.765000X-0.765000X0.765000X0*%
%ADD25C,1.734000*%
%ADD26R,0.550000X1.600000*%
%ADD27R,1.600000X0.550000*%
%ADD28FreePoly3,0.000000*%
%ADD29C,1.500000*%
%ADD30R,1.905000X2.000000*%
%ADD31O,1.905000X2.000000*%
%ADD32FreePoly0,270.000000*%
%ADD33R,1.600000X1.600000*%
%ADD34O,1.600000X1.600000*%
%ADD35RoundRect,0.243750X-0.243750X-0.456250X0.243750X-0.456250X0.243750X0.456250X-0.243750X0.456250X0*%
G04 APERTURE END LIST*
D10*
%TO.C,Window_1*%
X131445000Y-66880500D03*
X131445000Y-68755500D03*
%TD*%
D11*
%TO.C,U2_XT1*%
X142621000Y-98806000D03*
X140081000Y-98806000D03*
X137541000Y-98806000D03*
X135001000Y-98806000D03*
D12*
X132461000Y-98806000D03*
X129921000Y-98806000D03*
X127381000Y-98806000D03*
X124841000Y-98806000D03*
X122301000Y-98806000D03*
X119761000Y-98806000D03*
X117221000Y-98806000D03*
X114681000Y-98806000D03*
X112141000Y-98806000D03*
X109601000Y-98806000D03*
X107061000Y-98806000D03*
%TD*%
D13*
%TO.C,J_U2A1*%
X140750600Y-85410400D03*
D14*
X140750600Y-87950400D03*
X140750600Y-90490400D03*
X140750600Y-93030400D03*
%TD*%
D10*
%TO.C,Window_2*%
X131445000Y-73152000D03*
X131445000Y-75027000D03*
%TD*%
D13*
%TO.C,J14*%
X125027100Y-48895000D03*
D14*
X127567100Y-48895000D03*
X130107100Y-48895000D03*
X132647100Y-48895000D03*
X135187100Y-48895000D03*
X137727100Y-48895000D03*
X140267100Y-48895000D03*
X142807100Y-48895000D03*
%TD*%
D15*
%TO.C,J3*%
X104775000Y-111900000D03*
X104775000Y-109360000D03*
X107315000Y-111900000D03*
X107315000Y-109360000D03*
X109855000Y-111900000D03*
X109855000Y-109360000D03*
%TD*%
D13*
%TO.C,U5_PW1*%
X165735000Y-48006000D03*
D14*
X163195000Y-48006000D03*
%TD*%
D16*
%TO.C,MH15*%
X184163000Y-86461600D03*
X184865944Y-84764544D03*
X184865944Y-88158656D03*
X186563000Y-84061600D03*
D17*
X186563000Y-86461600D03*
D16*
X186563000Y-88861600D03*
X188260056Y-84764544D03*
X188260056Y-88158656D03*
X188963000Y-86461600D03*
%TD*%
D13*
%TO.C,J_SPI_4*%
X139827000Y-124714000D03*
D14*
X139827000Y-127254000D03*
X139827000Y-129794000D03*
X139827000Y-132334000D03*
%TD*%
D13*
%TO.C,J6*%
X187833000Y-94234000D03*
D14*
X187833000Y-96774000D03*
X187833000Y-99314000D03*
X187833000Y-101854000D03*
X187833000Y-104394000D03*
X187833000Y-106934000D03*
X187833000Y-109474000D03*
X187833000Y-112014000D03*
X187833000Y-114554000D03*
X187833000Y-117094000D03*
X187833000Y-119634000D03*
X187833000Y-122174000D03*
X187833000Y-124714000D03*
X187833000Y-127254000D03*
X187833000Y-129794000D03*
X187833000Y-132334000D03*
X187833000Y-134874000D03*
X187833000Y-137414000D03*
X187833000Y-139954000D03*
%TD*%
D18*
%TO.C,U4_XT_L1*%
X98171000Y-140462000D03*
X100711000Y-140462000D03*
X103251000Y-140462000D03*
X105791000Y-140462000D03*
X108331000Y-140462000D03*
X110871000Y-140462000D03*
X113411000Y-140462000D03*
X115951000Y-140462000D03*
%TD*%
D15*
%TO.C,J4*%
X139319000Y-138684000D03*
X139319000Y-136144000D03*
X141859000Y-138684000D03*
X141859000Y-136144000D03*
X144399000Y-138684000D03*
X144399000Y-136144000D03*
%TD*%
D13*
%TO.C,U4_PW1*%
X136017000Y-124699000D03*
D14*
X136017000Y-127239000D03*
%TD*%
D16*
%TO.C,MH12*%
X155287900Y-86533100D03*
X155990844Y-84836044D03*
X155990844Y-88230156D03*
X157687900Y-84133100D03*
D17*
X157687900Y-86533100D03*
D16*
X157687900Y-88933100D03*
X159384956Y-84836044D03*
X159384956Y-88230156D03*
X160087900Y-86533100D03*
%TD*%
D18*
%TO.C,U3_XT_R1*%
X106299000Y-120650000D03*
X108839000Y-120650000D03*
X111379000Y-120650000D03*
D19*
X113919000Y-120650000D03*
X116459000Y-120650000D03*
X118999000Y-120650000D03*
X121539000Y-120650000D03*
X124079000Y-120650000D03*
%TD*%
D20*
%TO.C,BZ1*%
X161183000Y-57810400D03*
D21*
X168783000Y-57810400D03*
%TD*%
D22*
%TO.C,U7*%
X181178200Y-85902800D03*
D23*
X181178200Y-83362800D03*
X181178200Y-80822800D03*
X181178200Y-78282800D03*
X181178200Y-75742800D03*
X181178200Y-73202800D03*
X181178200Y-70662800D03*
X181178200Y-68122800D03*
X173558200Y-68122800D03*
X173558200Y-70662800D03*
X173558200Y-73202800D03*
X173558200Y-75742800D03*
X173558200Y-78282800D03*
X173558200Y-80822800D03*
X173558200Y-83362800D03*
X173558200Y-85902800D03*
%TD*%
D16*
%TO.C,MH4*%
X184213800Y-45072000D03*
X184916744Y-43374944D03*
X184916744Y-46769056D03*
X186613800Y-42672000D03*
D17*
X186613800Y-45072000D03*
D16*
X186613800Y-47472000D03*
X188310856Y-43374944D03*
X188310856Y-46769056D03*
X189013800Y-45072000D03*
%TD*%
D24*
%TO.C,ESP32*%
X159131000Y-94234000D03*
D25*
X159131000Y-96774000D03*
X159131000Y-99314000D03*
X159131000Y-101854000D03*
X159131000Y-104394000D03*
X159131000Y-106934000D03*
X159131000Y-109474000D03*
X159131000Y-112014000D03*
X159131000Y-114554000D03*
X159131000Y-117094000D03*
X159131000Y-119634000D03*
X159131000Y-122174000D03*
X159131000Y-124714000D03*
X159131000Y-127254000D03*
X159131000Y-129794000D03*
X159131000Y-132334000D03*
X159131000Y-134874000D03*
X159131000Y-137414000D03*
X159131000Y-139954000D03*
X184531000Y-139954000D03*
X184531000Y-137414000D03*
X184531000Y-134874000D03*
X184531000Y-132334000D03*
X184531000Y-129794000D03*
X184531000Y-127254000D03*
X184531000Y-124714000D03*
X184531000Y-122174000D03*
X184531000Y-119634000D03*
X184531000Y-117094000D03*
X184531000Y-114554000D03*
X184531000Y-112014000D03*
X184531000Y-109474000D03*
X184531000Y-106934000D03*
X184531000Y-104394000D03*
X184531000Y-101854000D03*
X184531000Y-99314000D03*
X184531000Y-96774000D03*
X184531000Y-94234000D03*
%TD*%
D26*
%TO.C,U1*%
X120853000Y-66040000D03*
X120053000Y-66040000D03*
X119253000Y-66040000D03*
X118453000Y-66040000D03*
X117653000Y-66040000D03*
X116853000Y-66040000D03*
X116053000Y-66040000D03*
X115253000Y-66040000D03*
D27*
X113803000Y-67490000D03*
X113803000Y-68290000D03*
X113803000Y-69090000D03*
X113803000Y-69890000D03*
X113803000Y-70690000D03*
X113803000Y-71490000D03*
X113803000Y-72290000D03*
X113803000Y-73090000D03*
D26*
X115253000Y-74540000D03*
X116053000Y-74540000D03*
X116853000Y-74540000D03*
X117653000Y-74540000D03*
X118453000Y-74540000D03*
X119253000Y-74540000D03*
X120053000Y-74540000D03*
X120853000Y-74540000D03*
D27*
X122303000Y-73090000D03*
X122303000Y-72290000D03*
X122303000Y-71490000D03*
X122303000Y-70690000D03*
X122303000Y-69890000D03*
X122303000Y-69090000D03*
X122303000Y-68290000D03*
X122303000Y-67490000D03*
%TD*%
D22*
%TO.C,U6*%
X181178200Y-63042800D03*
D23*
X181178200Y-60502800D03*
X181178200Y-57962800D03*
X181178200Y-55422800D03*
X181178200Y-52882800D03*
X181178200Y-50342800D03*
X181178200Y-47802800D03*
X181178200Y-45262800D03*
X173558200Y-45262800D03*
X173558200Y-47802800D03*
X173558200Y-50342800D03*
X173558200Y-52882800D03*
X173558200Y-55422800D03*
X173558200Y-57962800D03*
X173558200Y-60502800D03*
X173558200Y-63042800D03*
%TD*%
D28*
%TO.C,LT_XT1*%
X119507000Y-60198000D03*
X122047000Y-60198000D03*
X124587000Y-60198000D03*
X127127000Y-60198000D03*
X129667000Y-60198000D03*
X132207000Y-60198000D03*
X134747000Y-60198000D03*
X137287000Y-60198000D03*
X139827000Y-60198000D03*
%TD*%
%TO.C,U3_XT_L1*%
X106045000Y-101600000D03*
X108585000Y-101600000D03*
X111125000Y-101600000D03*
X113665000Y-101600000D03*
X116205000Y-101600000D03*
X118745000Y-101600000D03*
X121285000Y-101600000D03*
X123825000Y-101600000D03*
%TD*%
D29*
%TO.C,SW_U3*%
X130429000Y-110833200D03*
X127889000Y-110833200D03*
X132969000Y-110833200D03*
%TD*%
D13*
%TO.C,J_SPI_5*%
X170307000Y-44399200D03*
D14*
X167767000Y-44399200D03*
X165227000Y-44399200D03*
X162687000Y-44399200D03*
%TD*%
D27*
%TO.C,U2*%
X114055000Y-87479800D03*
X114055000Y-88279800D03*
X114055000Y-89079800D03*
X114055000Y-89879800D03*
X114055000Y-90679800D03*
X114055000Y-91479800D03*
X114055000Y-92279800D03*
X114055000Y-93079800D03*
D26*
X115505000Y-94529800D03*
X116305000Y-94529800D03*
X117105000Y-94529800D03*
X117905000Y-94529800D03*
X118705000Y-94529800D03*
X119505000Y-94529800D03*
X120305000Y-94529800D03*
X121105000Y-94529800D03*
D27*
X122555000Y-93079800D03*
X122555000Y-92279800D03*
X122555000Y-91479800D03*
X122555000Y-90679800D03*
X122555000Y-89879800D03*
X122555000Y-89079800D03*
X122555000Y-88279800D03*
X122555000Y-87479800D03*
D26*
X121105000Y-86029800D03*
X120305000Y-86029800D03*
X119505000Y-86029800D03*
X118705000Y-86029800D03*
X117905000Y-86029800D03*
X117105000Y-86029800D03*
X116305000Y-86029800D03*
X115505000Y-86029800D03*
%TD*%
D13*
%TO.C,J7*%
X155829000Y-94234000D03*
D14*
X155829000Y-96774000D03*
X155829000Y-99314000D03*
X155829000Y-101854000D03*
X155829000Y-104394000D03*
X155829000Y-106934000D03*
X155829000Y-109474000D03*
X155829000Y-112014000D03*
X155829000Y-114554000D03*
X155829000Y-117094000D03*
X155829000Y-119634000D03*
X155829000Y-122174000D03*
X155829000Y-124714000D03*
X155829000Y-127254000D03*
X155829000Y-129794000D03*
X155829000Y-132334000D03*
X155829000Y-134874000D03*
X155829000Y-137414000D03*
X155829000Y-139954000D03*
%TD*%
D15*
%TO.C,Jmaster1*%
X98425000Y-57912000D03*
X98425000Y-55372000D03*
X100965000Y-57912000D03*
X100965000Y-55372000D03*
X103505000Y-57912000D03*
X103505000Y-55372000D03*
%TD*%
D13*
%TO.C,J_U6*%
X166363000Y-116840000D03*
D14*
X166363000Y-119380000D03*
X166363000Y-121920000D03*
X166363000Y-124460000D03*
%TD*%
D13*
%TO.C,Door1*%
X128885000Y-86486600D03*
D14*
X126345000Y-86486600D03*
%TD*%
D16*
%TO.C,MH21*%
X95978900Y-110422100D03*
X96681844Y-108725044D03*
X96681844Y-112119156D03*
X98378900Y-108022100D03*
D17*
X98378900Y-110422100D03*
D16*
X98378900Y-112822100D03*
X100075956Y-108725044D03*
X100075956Y-112119156D03*
X100778900Y-110422100D03*
%TD*%
D13*
%TO.C,J_SPI_3*%
X139319000Y-104788000D03*
D14*
X139319000Y-107328000D03*
X139319000Y-109868000D03*
X139319000Y-112408000D03*
%TD*%
D16*
%TO.C,MH5*%
X95453800Y-71547100D03*
X96156744Y-69850044D03*
X96156744Y-73244156D03*
X97853800Y-69147100D03*
D17*
X97853800Y-71547100D03*
D16*
X97853800Y-73947100D03*
X99550856Y-69850044D03*
X99550856Y-73244156D03*
X100253800Y-71547100D03*
%TD*%
D29*
%TO.C,SW1*%
X106654600Y-69697600D03*
X104114600Y-69697600D03*
X109194600Y-69697600D03*
%TD*%
D28*
%TO.C,U1_XT1*%
X106781600Y-80289400D03*
X109321600Y-80289400D03*
X111861600Y-80289400D03*
X114401600Y-80289400D03*
X116941600Y-80289400D03*
X119481600Y-80289400D03*
X122021600Y-80289400D03*
X124561600Y-80289400D03*
X127101600Y-80289400D03*
X129641600Y-80289400D03*
X132181600Y-80289400D03*
X134721600Y-80289400D03*
X137261600Y-80289400D03*
%TD*%
D27*
%TO.C,U4*%
X113740000Y-128185600D03*
X113740000Y-128985600D03*
X113740000Y-129785600D03*
X113740000Y-130585600D03*
X113740000Y-131385600D03*
X113740000Y-132185600D03*
X113740000Y-132985600D03*
X113740000Y-133785600D03*
D26*
X115190000Y-135235600D03*
X115990000Y-135235600D03*
X116790000Y-135235600D03*
X117590000Y-135235600D03*
X118390000Y-135235600D03*
X119190000Y-135235600D03*
X119990000Y-135235600D03*
X120790000Y-135235600D03*
D27*
X122240000Y-133785600D03*
X122240000Y-132985600D03*
X122240000Y-132185600D03*
X122240000Y-131385600D03*
X122240000Y-130585600D03*
X122240000Y-129785600D03*
X122240000Y-128985600D03*
X122240000Y-128185600D03*
D26*
X120790000Y-126735600D03*
X119990000Y-126735600D03*
X119190000Y-126735600D03*
X118390000Y-126735600D03*
X117590000Y-126735600D03*
X116790000Y-126735600D03*
X115990000Y-126735600D03*
X115190000Y-126735600D03*
%TD*%
D30*
%TO.C,Q1*%
X127013000Y-137944400D03*
D31*
X129553000Y-137944400D03*
X132093000Y-137944400D03*
%TD*%
D15*
%TO.C,J2*%
X104140000Y-91279800D03*
X104140000Y-88739800D03*
X106680000Y-91279800D03*
X106680000Y-88739800D03*
X109220000Y-91279800D03*
X109220000Y-88739800D03*
%TD*%
D16*
%TO.C,MH30*%
X145809000Y-110122000D03*
X146511944Y-108424944D03*
X146511944Y-111819056D03*
X148209000Y-107722000D03*
D17*
X148209000Y-110122000D03*
D16*
X148209000Y-112522000D03*
X149906056Y-108424944D03*
X149906056Y-111819056D03*
X150609000Y-110122000D03*
%TD*%
D13*
%TO.C,J_U1B1*%
X134696200Y-67370800D03*
D14*
X134696200Y-69910800D03*
X134696200Y-72450800D03*
X134696200Y-74990800D03*
%TD*%
D15*
%TO.C,J1*%
X103454200Y-75336400D03*
X103454200Y-72796400D03*
X105994200Y-75336400D03*
X105994200Y-72796400D03*
X108534200Y-75336400D03*
X108534200Y-72796400D03*
%TD*%
D27*
%TO.C,LT1*%
X113089100Y-48068000D03*
X113089100Y-48868000D03*
X113089100Y-49668000D03*
X113089100Y-50468000D03*
X113089100Y-51268000D03*
X113089100Y-52068000D03*
X113089100Y-52868000D03*
X113089100Y-53668000D03*
D26*
X114539100Y-55118000D03*
X115339100Y-55118000D03*
X116139100Y-55118000D03*
X116939100Y-55118000D03*
X117739100Y-55118000D03*
X118539100Y-55118000D03*
X119339100Y-55118000D03*
X120139100Y-55118000D03*
D27*
X121589100Y-53668000D03*
X121589100Y-52868000D03*
X121589100Y-52068000D03*
X121589100Y-51268000D03*
X121589100Y-50468000D03*
X121589100Y-49668000D03*
X121589100Y-48868000D03*
X121589100Y-48068000D03*
D26*
X120139100Y-46618000D03*
X119339100Y-46618000D03*
X118539100Y-46618000D03*
X117739100Y-46618000D03*
X116939100Y-46618000D03*
X116139100Y-46618000D03*
X115339100Y-46618000D03*
X114539100Y-46618000D03*
%TD*%
D16*
%TO.C,MH11*%
X145174000Y-90999900D03*
X145876944Y-89302844D03*
X145876944Y-92696956D03*
X147574000Y-88599900D03*
D17*
X147574000Y-90999900D03*
D16*
X147574000Y-93399900D03*
X149271056Y-89302844D03*
X149271056Y-92696956D03*
X149974000Y-90999900D03*
%TD*%
D32*
%TO.C,U5_XT1*%
X154305000Y-49276000D03*
X154305000Y-51816000D03*
X154305000Y-54356000D03*
X154305000Y-56896000D03*
X154305000Y-59436000D03*
X154305000Y-61976000D03*
X154305000Y-64516000D03*
X154305000Y-67056000D03*
X154305000Y-69596000D03*
X154305000Y-72136000D03*
X154305000Y-74676000D03*
X154305000Y-77216000D03*
X154305000Y-79756000D03*
X154305000Y-82296000D03*
%TD*%
D33*
%TO.C,U8*%
X170427000Y-114554000D03*
D34*
X170427000Y-117094000D03*
X170427000Y-119634000D03*
X170427000Y-122174000D03*
X178047000Y-122174000D03*
X178047000Y-119634000D03*
X178047000Y-117094000D03*
X178047000Y-114554000D03*
%TD*%
D13*
%TO.C,Window2*%
X128397000Y-74168000D03*
D14*
X125857000Y-74168000D03*
%TD*%
D16*
%TO.C,MH7*%
X95978900Y-90030000D03*
X96681844Y-88332944D03*
X96681844Y-91727056D03*
X98378900Y-87630000D03*
D17*
X98378900Y-90030000D03*
D16*
X98378900Y-92430000D03*
X100075956Y-88332944D03*
X100075956Y-91727056D03*
X100778900Y-90030000D03*
%TD*%
%TO.C,MH50*%
X146063000Y-131686000D03*
X146765944Y-129988944D03*
X146765944Y-133383056D03*
X148463000Y-129286000D03*
D17*
X148463000Y-131686000D03*
D16*
X148463000Y-134086000D03*
X150160056Y-129988944D03*
X150160056Y-133383056D03*
X150863000Y-131686000D03*
%TD*%
D13*
%TO.C,J12*%
X126822200Y-105067400D03*
D14*
X129362200Y-105067400D03*
%TD*%
D15*
%TO.C,J5*%
X163957000Y-86960000D03*
X163957000Y-84420000D03*
X166497000Y-86960000D03*
X166497000Y-84420000D03*
X169037000Y-86960000D03*
X169037000Y-84420000D03*
%TD*%
D16*
%TO.C,MH1*%
X95657000Y-49416000D03*
X96359944Y-47718944D03*
X96359944Y-51113056D03*
X98057000Y-47016000D03*
D17*
X98057000Y-49416000D03*
D16*
X98057000Y-51816000D03*
X99754056Y-47718944D03*
X99754056Y-51113056D03*
X100457000Y-49416000D03*
%TD*%
%TO.C,MH6*%
X145809000Y-71247000D03*
X146511944Y-69549944D03*
X146511944Y-72944056D03*
X148209000Y-68847000D03*
D17*
X148209000Y-71247000D03*
D16*
X148209000Y-73647000D03*
X149906056Y-69549944D03*
X149906056Y-72944056D03*
X150609000Y-71247000D03*
%TD*%
D13*
%TO.C,U3_PW1*%
X135685000Y-104783000D03*
D14*
X135685000Y-107323000D03*
%TD*%
D29*
%TO.C,SW_U4*%
X129553000Y-132833800D03*
X127013000Y-132833800D03*
X132093000Y-132833800D03*
%TD*%
D16*
%TO.C,Mh3*%
X155033900Y-45131100D03*
X155736844Y-43434044D03*
X155736844Y-46828156D03*
X157433900Y-42731100D03*
D17*
X157433900Y-45131100D03*
D16*
X157433900Y-47531100D03*
X159130956Y-43434044D03*
X159130956Y-46828156D03*
X159833900Y-45131100D03*
%TD*%
D13*
%TO.C,J_U1A1*%
X140967600Y-67351600D03*
D14*
X140967600Y-69891600D03*
X140967600Y-72431600D03*
X140967600Y-74971600D03*
%TD*%
D27*
%TO.C,U3*%
X114055000Y-107000000D03*
X114055000Y-107800000D03*
X114055000Y-108600000D03*
X114055000Y-109400000D03*
X114055000Y-110200000D03*
X114055000Y-111000000D03*
X114055000Y-111800000D03*
X114055000Y-112600000D03*
D26*
X115505000Y-114050000D03*
X116305000Y-114050000D03*
X117105000Y-114050000D03*
X117905000Y-114050000D03*
X118705000Y-114050000D03*
X119505000Y-114050000D03*
X120305000Y-114050000D03*
X121105000Y-114050000D03*
D27*
X122555000Y-112600000D03*
X122555000Y-111800000D03*
X122555000Y-111000000D03*
X122555000Y-110200000D03*
X122555000Y-109400000D03*
X122555000Y-108600000D03*
X122555000Y-107800000D03*
X122555000Y-107000000D03*
D26*
X121105000Y-105550000D03*
X120305000Y-105550000D03*
X119505000Y-105550000D03*
X118705000Y-105550000D03*
X117905000Y-105550000D03*
X117105000Y-105550000D03*
X116305000Y-105550000D03*
X115505000Y-105550000D03*
%TD*%
D35*
%TO.C,door_1*%
X126979200Y-89357200D03*
X128854200Y-89357200D03*
%TD*%
D13*
%TO.C,J11*%
X125997000Y-127296600D03*
D14*
X128537000Y-127296600D03*
%TD*%
D13*
%TO.C,Window1*%
X128143000Y-67691000D03*
D14*
X125603000Y-67691000D03*
%TD*%
D29*
%TO.C,SW2*%
X107467400Y-84734400D03*
X104927400Y-84734400D03*
X110007400Y-84734400D03*
%TD*%
D30*
%TO.C,Q2*%
X127889000Y-115913200D03*
D31*
X130429000Y-115913200D03*
X132969000Y-115913200D03*
%TD*%
D13*
%TO.C,J13*%
X125027100Y-53340000D03*
D14*
X127567100Y-53340000D03*
X130107100Y-53340000D03*
X132647100Y-53340000D03*
X135187100Y-53340000D03*
X137727100Y-53340000D03*
X140267100Y-53340000D03*
X142807100Y-53340000D03*
%TD*%
D16*
%TO.C,MH2*%
X146063000Y-50686000D03*
X146765944Y-48988944D03*
X146765944Y-52383056D03*
X148463000Y-48286000D03*
D17*
X148463000Y-50686000D03*
D16*
X148463000Y-53086000D03*
X150160056Y-48988944D03*
X150160056Y-52383056D03*
X150863000Y-50686000D03*
%TD*%
D17*
%TO.C,MH434*%
X175380000Y-127381000D03*
%TD*%
D16*
%TO.C,MH40*%
X95851900Y-131237100D03*
X96554844Y-129540044D03*
X96554844Y-132934156D03*
X98251900Y-128837100D03*
D17*
X98251900Y-131237100D03*
D16*
X98251900Y-133637100D03*
X99948956Y-129540044D03*
X99948956Y-132934156D03*
X100651900Y-131237100D03*
%TD*%
D19*
%TO.C,U4_XT_R1*%
X115189000Y-123190000D03*
X117729000Y-123190000D03*
X120269000Y-123190000D03*
X122809000Y-123190000D03*
X125349000Y-123190000D03*
D18*
X127889000Y-123190000D03*
X130429000Y-123190000D03*
X132969000Y-123190000D03*
%TD*%
D27*
%TO.C,U5*%
X161185000Y-68660000D03*
X161185000Y-69460000D03*
X161185000Y-70260000D03*
X161185000Y-71060000D03*
X161185000Y-71860000D03*
X161185000Y-72660000D03*
X161185000Y-73460000D03*
X161185000Y-74260000D03*
D26*
X162635000Y-75710000D03*
X163435000Y-75710000D03*
X164235000Y-75710000D03*
X165035000Y-75710000D03*
X165835000Y-75710000D03*
X166635000Y-75710000D03*
X167435000Y-75710000D03*
X168235000Y-75710000D03*
D27*
X169685000Y-74260000D03*
X169685000Y-73460000D03*
X169685000Y-72660000D03*
X169685000Y-71860000D03*
X169685000Y-71060000D03*
X169685000Y-70260000D03*
X169685000Y-69460000D03*
X169685000Y-68660000D03*
D26*
X168235000Y-67210000D03*
X167435000Y-67210000D03*
X166635000Y-67210000D03*
X165835000Y-67210000D03*
X165035000Y-67210000D03*
X164235000Y-67210000D03*
X163435000Y-67210000D03*
X162635000Y-67210000D03*
%TD*%
D13*
%TO.C,J_U2B1*%
X133324600Y-85496400D03*
D14*
X133324600Y-88036400D03*
X133324600Y-90576400D03*
X133324600Y-93116400D03*
%TD*%
D17*
%TO.C,MH235*%
X168268000Y-109728000D03*
%TD*%
D29*
%TO.C,SW_U5*%
X165145000Y-80460000D03*
X167685000Y-80460000D03*
X162605000Y-80460000D03*
%TD*%
D13*
%TO.C,J10*%
X188185000Y-81026000D03*
D14*
X188185000Y-78486000D03*
X188185000Y-75946000D03*
X188185000Y-73406000D03*
X188185000Y-70866000D03*
X188185000Y-68326000D03*
X188185000Y-65786000D03*
X188185000Y-63246000D03*
X188185000Y-60706000D03*
X188185000Y-58166000D03*
X188185000Y-55626000D03*
X188185000Y-53086000D03*
X188185000Y-50546000D03*
%TD*%
M02*
